<svg width="466" height="545" viewBox="0 0 466 545" fill="none" xmlns="http://www.w3.org/2000/svg">
<path d="M390.85 157.518C393.074 154.917 395.623 152.655 398.392 150.769L397.326 141.445L411.982 136.309L416.962 144.254C420.304 143.994 423.698 144.163 427.066 144.813L432.905 137.466L446.897 144.202L444.804 153.344C447.405 155.568 449.667 158.116 451.553 160.886L460.877 159.82L466.013 174.475L458.068 179.456C458.328 182.798 458.146 186.192 457.509 189.56L464.856 195.399L458.133 209.391L448.991 207.298C446.767 209.899 444.219 212.161 441.449 214.047L442.515 223.371L427.834 228.507L422.853 220.549C419.511 220.809 416.117 220.627 412.749 219.99L406.91 227.337L392.918 220.601L395.011 211.459C392.411 209.235 390.148 206.687 388.262 203.917L378.938 204.983L373.802 190.327L381.747 185.347C381.487 182.005 381.669 178.611 382.306 175.243L374.959 169.404L381.682 155.412L390.85 157.518ZM401.032 173.331C396.013 183.76 400.408 196.27 410.824 201.29C421.254 206.309 433.763 201.914 438.783 191.498C443.803 181.069 439.407 168.559 428.991 163.539C418.562 158.52 406.039 162.915 401.032 173.331Z" fill="#EBEBEB"/>
<path d="M353.879 89.7935C355.375 88.0379 357.091 86.5294 358.951 85.255L358.235 78.9871L368.08 75.541L371.435 80.8857C373.684 80.7166 375.96 80.8337 378.223 81.2628L382.137 76.3213L391.539 80.8467L390.134 86.9846C391.89 88.48 393.398 90.1966 394.673 92.0562L400.941 91.3409L404.387 101.185L399.042 104.54C399.211 106.79 399.094 109.065 398.665 111.328L403.607 115.242L399.081 124.644L392.943 123.24C391.448 124.995 389.731 126.504 387.872 127.778L388.587 134.046L378.743 137.492L375.388 132.148C373.138 132.317 370.862 132.2 368.6 131.771L364.685 136.712L355.284 132.187L356.688 126.049C354.932 124.553 353.424 122.837 352.15 120.977L345.882 121.692L342.436 111.848L347.78 108.493C347.611 106.244 347.728 103.968 348.157 101.705L343.216 97.7909L347.741 88.389L353.879 89.7935ZM360.719 100.418C357.351 107.427 360.303 115.828 367.299 119.209C374.308 122.577 382.709 119.625 386.09 112.629C389.458 105.619 386.506 97.2188 379.51 93.8377C372.501 90.4567 364.087 93.4086 360.719 100.418Z" fill="#F5F5F5"/>
<path d="M11.4436 431.033C12.939 429.277 14.6556 427.769 16.5151 426.494L15.7999 420.226L25.644 416.78L28.999 422.125C31.2487 421.956 33.5244 422.073 35.7871 422.502L39.7014 417.561L49.1033 422.086L47.6988 428.224C49.4544 429.719 50.9629 431.436 52.2373 433.295L58.5052 432.58L61.9513 442.424L56.6066 445.779C56.7757 448.029 56.6586 450.305 56.2295 452.567L61.171 456.495L56.6456 465.897L50.5077 464.492C49.0123 466.248 47.2957 467.756 45.4361 469.031L46.1514 475.299L36.3073 478.745L32.9523 473.4C30.7026 473.569 28.4268 473.452 26.1641 473.023L22.2499 477.964L12.848 473.439L14.2524 467.301C12.4969 465.806 10.9884 464.089 9.71402 462.229L3.44607 462.945L0 453.088L5.34466 449.733C5.17561 447.483 5.29265 445.207 5.72178 442.944L0.780243 439.03L5.30565 429.628L11.4436 431.033ZM18.2967 441.657C14.9286 448.666 17.8806 457.067 24.8767 460.448C31.8859 463.816 40.2865 460.864 43.6676 453.868C47.0356 446.859 44.0837 438.458 37.0875 435.077C30.0654 431.696 21.6647 434.648 18.2967 441.657Z" fill="#F5F5F5"/>
<path d="M85.9826 465.233C88.2323 462.594 90.8071 460.318 93.616 458.406L92.5367 448.965L107.361 443.764L112.407 451.813C115.788 451.553 119.221 451.722 122.628 452.385L128.532 444.947L142.693 451.761L140.574 461.007C143.213 463.27 145.502 465.845 147.401 468.64L156.829 467.561L162.03 482.386L153.981 487.431C154.241 490.812 154.072 494.245 153.409 497.652L160.847 503.556L154.033 517.718L144.787 515.598C142.524 518.238 139.949 520.527 137.154 522.425L138.233 531.866L123.408 537.068L118.363 529.018C114.982 529.278 111.549 529.109 108.142 528.446L102.238 535.884L88.0763 529.07L90.1959 519.824C87.5561 517.562 85.2674 515 83.3688 512.191L73.9409 513.27L68.7393 498.446L76.7888 493.4C76.5287 490.019 76.6977 486.586 77.3609 483.179L69.9226 477.275L76.7367 463.114L85.9826 465.233ZM96.2818 481.228C91.2102 491.775 95.6446 504.441 106.191 509.512C116.737 514.584 129.403 510.149 134.475 499.603C139.546 489.057 135.112 476.391 124.566 471.319C114.019 466.248 101.366 470.682 96.2818 481.228Z" fill="#EBEBEB"/>
<path d="M119.599 131.458C132.265 123.812 145.737 117.999 159.638 114.059L167.883 74.4223L234.854 73.252L244.49 112.576C258.521 116.035 272.201 121.354 285.127 128.558L318.977 106.373L367.157 152.902L346.181 187.493C353.841 200.159 359.641 213.644 363.581 227.545L403.217 235.79L404.388 302.761L365.063 312.397C361.604 326.428 356.286 340.095 349.081 353.021L371.266 386.871L324.751 435.051L290.147 414.075C277.481 421.722 263.996 427.521 250.095 431.475L241.85 471.111L174.879 472.281L165.243 432.957C151.212 429.498 137.532 424.166 124.619 416.975L90.769 439.16L42.589 392.632L63.5645 358.028C55.9181 345.362 50.1053 331.89 46.1651 317.975L6.52876 309.731L5.3584 242.76L44.6826 233.124C48.1417 219.092 53.4734 205.412 60.6646 192.499L38.4797 158.65L84.9952 110.47L119.599 131.458ZM139.872 210.003C105.216 245.907 106.218 303.099 142.122 337.754C178.026 372.41 235.218 371.409 269.874 335.505C304.53 299.601 303.528 242.409 267.624 207.753C231.72 173.097 174.528 174.111 139.872 210.003Z" fill="#EBEBEB"/>
<path d="M155.001 63.4995C164.501 53.4995 170.081 53.121 182.344 51.6775C187.493 51.0664 192.682 49.4669 197.688 50.8193C202.695 52.1717 208.781 53.9533 211.772 58.2056C215.322 63.2512 216.752 73.5634 212.695 79.6363C209.184 84.9029 211.876 88.9212 211.408 95.2281C210.926 101.548 211.616 110.118 207.896 115.254L195.439 118.896C186.57 119.195 177.571 119.494 168.923 117.465C160.276 115.436 164.63 131.081 160.001 123.5C142.737 95.2281 139.67 79.6363 155.001 63.4995Z" fill="#263238"/>
<path d="M195.439 144.968C195.335 139.324 195.205 134.708 195.205 134.734C195.205 134.734 208.313 133.29 211.928 116.502C213.723 108.154 214.061 94.3173 213.97 82.9908C213.892 72.7956 205.205 58.9073 192.617 58.8553L187.026 58.2051L165.608 66.7227C162.513 66.8788 160.055 69.3756 159.951 72.4705L159.873 145.28L181.265 198.636L194.867 174.331L195.439 144.968Z" fill="#CCA685"/>
<path d="M209.015 96.2027C208.989 97.3471 208 98.2834 206.804 98.2834C205.608 98.2834 204.645 97.3471 204.671 96.2027C204.697 95.0584 205.686 94.1221 206.882 94.1221C208.078 94.1221 209.041 95.0584 209.015 96.2027Z" fill="#263238"/>
<path d="M209.782 89.2715C209.496 89.5445 207.923 88.2311 205.582 88.1141C203.254 87.9581 201.473 89.0634 201.226 88.7643C201.109 88.6343 201.408 88.1401 202.188 87.633C202.955 87.1258 204.243 86.6707 205.686 86.7617C207.143 86.8527 208.339 87.4509 209.015 88.0361C209.717 88.6213 209.925 89.1544 209.782 89.2715Z" fill="#263238"/>
<path d="M195.192 134.734C195.192 134.734 183.761 134.838 172.838 127.438C172.838 127.438 178.235 139.506 195.283 138.856L195.192 134.734Z" fill="#BA8B68"/>
<path d="M195.101 106.983C195.101 106.853 196.57 106.684 198.937 106.502C199.535 106.476 200.107 106.385 200.237 105.982C200.407 105.553 200.185 104.903 199.938 104.188C199.457 102.718 198.95 101.171 198.417 99.5451C196.323 92.9391 194.841 87.5164 195.101 87.4384C195.374 87.3603 197.286 92.64 199.379 99.246C199.886 100.872 200.368 102.432 200.823 103.915C201.018 104.604 201.356 105.397 201.005 106.268C200.823 106.71 200.368 107.009 199.977 107.087C199.587 107.179 199.249 107.166 198.95 107.179C196.57 107.192 195.101 107.114 195.101 106.983Z" fill="#BA8B68"/>
<path d="M195 87.999V106.999L200 106.499L200.5 105.499L195 87.999Z" fill="#BA8B68"/>
<path d="M188.13 108.219C188.507 108.219 188.377 110.754 190.445 112.679C192.513 114.604 195.231 114.474 195.231 114.825C195.257 114.981 194.606 115.28 193.462 115.254C192.344 115.228 190.718 114.786 189.457 113.602C188.195 112.419 187.701 110.923 187.675 109.87C187.636 108.804 187.948 108.193 188.13 108.219Z" fill="#263238"/>
<path d="M183.32 95.0845C183.255 96.2289 184.178 97.2302 185.374 97.3212C186.571 97.4123 187.585 96.541 187.65 95.3966C187.715 94.2523 186.792 93.251 185.595 93.1599C184.399 93.0689 183.385 93.9272 183.32 95.0845Z" fill="#263238"/>
<path d="M177.754 88.4395C178.014 88.7256 179.691 87.5422 182.032 87.5812C184.373 87.5942 186.063 88.8296 186.323 88.5435C186.453 88.4134 186.18 87.9063 185.452 87.3471C184.724 86.7879 183.476 86.2418 182.019 86.2288C180.563 86.2158 179.327 86.7229 178.612 87.2691C177.871 87.7893 177.624 88.3094 177.754 88.4395Z" fill="#263238"/>
<path d="M159.899 96.3853L165.009 102.315C166.622 77.3863 175.451 63.9662 188.846 66.8791C201.225 69.5709 200.237 65.3576 206.856 64.9415C206.856 64.9415 201.225 54.7983 180.783 56.7879C171.277 57.7112 153.501 63.1079 153.774 74.2134C154.034 85.3318 159.899 96.3853 159.899 96.3853Z" fill="#263238"/>
<path d="M151.42 105.995C151.485 105.995 151.472 105.033 151.537 103.316C151.589 101.6 151.836 99.1028 152.499 96.1119C153.774 90.117 157.259 82.1325 163.423 75.0193C169.586 67.9061 176.7 63.0296 181.94 59.8176C184.567 58.2051 186.752 56.9957 188.273 56.1634C189.782 55.3312 190.627 54.863 190.601 54.811C190.588 54.785 190.367 54.876 189.951 55.0581C189.535 55.2401 188.923 55.5132 188.143 55.8903C186.583 56.6446 184.346 57.7889 181.667 59.3364C176.336 62.4444 169.092 67.2949 162.837 74.4992C156.595 81.7034 153.11 89.8829 151.966 95.9818C151.368 99.0378 151.199 101.561 151.238 103.303C151.225 104.174 151.316 104.851 151.329 105.306C151.368 105.761 151.394 105.995 151.42 105.995Z" fill="#455A64"/>
<path d="M183.319 54.1358C183.306 54.1098 183.072 54.1878 182.643 54.3568C182.214 54.5259 181.577 54.786 180.784 55.1501C179.184 55.8653 176.882 56.9706 174.125 58.5051C171.382 60.0396 168.17 62.0032 164.789 64.435C161.421 66.8797 157.74 69.6756 154.58 73.3818C153.007 75.2283 151.694 77.231 150.718 79.3246C149.756 81.4183 149.158 83.5639 148.833 85.6446C148.169 89.8059 148.456 93.6161 148.859 96.737C149.288 99.871 149.847 102.355 150.25 104.058C150.458 104.917 150.627 105.58 150.757 106.022C150.887 106.464 150.965 106.698 150.991 106.698C151.043 106.685 150.874 105.723 150.549 104.006C150.237 102.277 149.756 99.78 149.405 96.672C149.067 93.5771 148.859 89.8189 149.535 85.7746C149.886 83.759 150.471 81.6784 151.407 79.6627C152.357 77.6471 153.631 75.7095 155.166 73.9149C158.248 70.2998 161.876 67.5039 165.192 65.0462C168.534 62.6014 171.681 60.5988 174.386 59.0123C177.09 57.4258 179.34 56.2554 180.901 55.4492C182.474 54.6169 183.345 54.1878 183.319 54.1358Z" fill="#455A64"/>
<path d="M162.395 101.275C162.46 100.014 161.173 96.9578 159.938 96.6977C156.635 95.9955 150.627 95.9305 150.107 104.383C149.391 115.931 161.134 114.266 161.173 113.928C161.199 113.668 162.161 105.631 162.395 101.275Z" fill="#CCA685"/>
<path d="M158.676 109.169C158.624 109.13 158.468 109.299 158.117 109.429C157.779 109.559 157.193 109.624 156.608 109.364C155.412 108.843 154.515 106.841 154.58 104.76C154.619 103.707 154.892 102.719 155.321 101.912C155.724 101.093 156.309 100.534 156.933 100.456C157.558 100.352 157.961 100.742 158.091 101.08C158.221 101.418 158.143 101.639 158.195 101.665C158.221 101.691 158.455 101.483 158.39 101.002C158.351 100.768 158.234 100.482 157.974 100.248C157.714 100.001 157.31 99.8707 156.881 99.8837C155.984 99.8967 155.139 100.664 154.671 101.548C154.15 102.432 153.812 103.538 153.773 104.721C153.708 107.049 154.762 109.299 156.4 109.884C157.193 110.144 157.896 109.936 158.26 109.689C158.637 109.455 158.715 109.195 158.676 109.169Z" fill="#BA8B68"/>
<path d="M228.026 485.428L221.108 432.579L188.728 441.63L199.781 493.074L228.026 485.428Z" fill="url(#paint0_linear)"/>
<path d="M228.026 483.672L230.978 508.107L244.593 539.056C245.568 541.293 244.463 543.881 242.174 544.713C240.887 545.181 239.47 544.999 238.351 544.219C231.225 539.264 205.087 520.876 204.853 517.873C204.58 514.4 198.754 491.578 198.754 491.578L228.026 483.672Z" fill="#37395B"/>
<g opacity="0.6">
<g opacity="0.6">
<g opacity="0.6">
<path opacity="0.6" d="M242.175 544.713L204.424 515.142L204.697 516.858C204.931 518.341 205.685 519.706 206.817 520.681C209.873 523.308 218.468 530.356 238.234 544.245C239.379 545.051 240.861 545.233 242.175 544.713Z" fill="white"/>
</g>
</g>
</g>
<g opacity="0.6">
<g opacity="0.6">
<g opacity="0.6">
<g opacity="0.6">
<g opacity="0.6">
<path opacity="0.6" d="M210.679 500.733C211.81 501.279 212.382 502.761 211.888 503.906C211.394 505.05 209.886 505.648 208.754 505.128C207.623 504.608 206.869 502.839 207.493 501.76C208.117 500.668 209.925 500.07 210.9 500.85" fill="white"/>
</g>
</g>
</g>
</g>
</g>
<path d="M230.093 528.457C230.34 528.535 230.926 526.26 233.149 524.738C235.334 523.152 237.662 523.36 237.675 523.113C237.688 523.009 237.129 522.775 236.166 522.788C235.204 522.801 233.852 523.152 232.629 524.01C231.407 524.868 230.627 526.026 230.288 526.936C229.963 527.833 229.989 528.431 230.093 528.457Z" fill="white"/>
<path d="M233.839 533.425C234.06 533.568 235.152 532.047 237.155 531.111C239.145 530.135 241.017 530.239 241.03 529.979C241.108 529.758 239.028 529.199 236.765 530.304C234.489 531.384 233.618 533.36 233.839 533.425Z" fill="white"/>
<path d="M223.617 522.333C223.839 522.489 225.503 520.135 228.494 518.419C231.459 516.65 234.32 516.338 234.294 516.065C234.32 515.844 231.225 515.753 228.039 517.638C224.84 519.498 223.409 522.255 223.617 522.333Z" fill="white"/>
<path d="M220.913 510.096C221.056 510.317 223.149 509.03 226.049 508.47C228.936 507.859 231.368 508.236 231.42 507.976C231.498 507.755 228.975 506.949 225.867 507.586C222.759 508.197 220.757 509.94 220.913 510.096Z" fill="white"/>
<path d="M219.014 498.197C219.183 498.405 221.212 496.701 224.32 496.363C227.415 495.947 229.808 497.118 229.912 496.871C229.964 496.779 229.444 496.337 228.416 495.947C227.402 495.557 225.868 495.271 224.203 495.479C222.538 495.687 221.121 496.324 220.224 496.949C219.339 497.56 218.936 498.119 219.014 498.197Z" fill="white"/>
<path d="M325.843 270.809C297.26 265.607 238.365 280.003 238.365 280.003L225.777 265.581L159.404 265.607L147.883 292.616L179.301 339.405L186.596 366.987C186.596 366.987 217.676 362.071 216.362 362.227C215.049 362.383 236.284 357.819 237.585 357.65C289.419 350.576 317.052 328.742 332.514 313.28C348.34 297.454 336.715 272.798 325.843 270.809Z" fill="#37395B"/>
<path d="M192.044 371.473C191.888 370.537 191.485 368.027 190.64 362.877C190.184 360.121 189.612 356.779 188.884 352.916C188.52 350.992 188.104 348.937 187.623 346.765C187.376 345.686 187.102 344.581 186.79 343.449C186.634 342.89 186.465 342.318 186.257 341.746C186.036 341.174 185.854 340.601 185.386 340.042L185.295 340.458C197.623 336.089 213.02 330.302 229.444 323.384C239.535 319.093 249.067 314.749 257.441 310.237C261.616 307.961 265.543 305.673 268.924 303.111C272.331 300.588 275.361 298.078 278.209 295.894C283.84 291.446 288.95 288.572 292.773 287.35C293.71 286.986 294.581 286.791 295.322 286.596C296.063 286.375 296.701 286.271 297.234 286.18C297.728 286.088 298.118 286.023 298.417 285.958C298.677 285.906 298.82 285.88 298.82 285.867C298.82 285.854 298.677 285.867 298.417 285.893C298.118 285.932 297.715 285.984 297.221 286.049C296.688 286.114 296.037 286.206 295.296 286.401C294.542 286.583 293.658 286.765 292.708 287.103C290.771 287.675 288.508 288.689 286.011 290.081C283.514 291.485 280.823 293.332 277.962 295.516C275.088 297.688 272.045 300.185 268.638 302.669C265.27 305.204 261.356 307.454 257.181 309.704C248.807 314.177 239.288 318.495 229.21 322.786C212.798 329.704 197.415 335.53 185.139 339.964L184.801 340.094L185.061 340.393C185.386 340.771 185.62 341.356 185.815 341.902C186.023 342.448 186.192 343.02 186.348 343.566C186.673 344.685 186.933 345.777 187.194 346.856C187.701 349.002 188.117 351.057 188.507 352.981C189.274 356.831 189.885 360.173 190.38 362.916C190.887 365.634 191.277 367.767 191.563 369.262C191.706 369.991 191.823 370.55 191.914 370.914C191.979 371.291 192.044 371.473 192.044 371.473Z" fill="#455A64"/>
<path d="M150 271L147.5 281.5C147.5 281.5 143.189 297.373 142.5 310C142.11 317.334 141.566 322.736 141.501 330.5C141.449 336.754 144.5 348 151.5 357.5L166.453 368.287L178.611 413.138L191 490L228.3 482.008L221.993 345.023C221.876 329.457 214.776 311.212 205.894 292.279L202.838 267.22L150 271Z" fill="url(#paint1_linear)"/>
<path d="M225.049 415.219C224.177 398.092 222.994 374.555 221.681 348.56C221.264 342.058 221.42 335.647 220.042 329.717C218.755 323.761 216.362 318.299 213.449 313.514C210.484 308.767 206.921 304.723 203.124 301.498C199.301 298.299 195.308 295.854 191.433 294.112C183.696 290.562 176.726 289.599 172.005 289.352C169.625 289.248 167.779 289.287 166.517 289.352C165.932 289.378 165.464 289.404 165.087 289.43C164.762 289.443 164.593 289.443 164.593 289.417C164.593 289.417 167.207 288.897 172.005 288.988C176.765 289.131 183.813 289.99 191.693 293.514C195.62 295.243 199.704 297.688 203.605 300.913C207.493 304.164 211.121 308.247 214.164 313.072C217.142 317.909 219.587 323.462 220.913 329.522C222.331 335.608 222.175 342.045 222.604 348.521C223.813 374.529 224.906 398.066 225.699 415.193C226.05 423.671 226.336 430.563 226.531 435.401C226.609 437.729 226.661 439.575 226.713 440.902C226.726 441.487 226.726 441.955 226.739 442.332C226.739 442.657 226.726 442.826 226.713 442.826C226.7 442.826 226.674 442.657 226.648 442.345C226.622 441.968 226.583 441.5 226.531 440.915C226.44 439.588 226.323 437.755 226.18 435.427" fill="#455A64"/>
<path d="M166.595 368.274C165.841 363.632 165.373 359.405 165.399 355.764C165.243 351.72 165.191 348.443 165.178 346.18C165.191 345.14 165.191 344.282 165.191 343.567C165.204 342.968 165.23 342.656 165.269 342.656C165.295 342.656 165.334 342.968 165.386 343.567C165.425 344.269 165.477 345.127 165.542 346.167C165.672 348.573 165.841 351.798 166.049 355.725C166.114 359.484 166.66 363.84 167.518 368.638" fill="#263238"/>
<path d="M210.368 270.301C210.342 270.249 210.524 270.08 210.966 269.963C211.395 269.846 212.084 269.833 212.825 270.21C213.541 270.548 214.347 271.446 214.334 272.629C214.334 273.76 213.645 275.022 212.331 275.49C211.044 275.958 209.626 275.321 209.028 274.372C208.352 273.435 208.417 272.239 208.846 271.537C209.249 270.809 209.847 270.444 210.264 270.301C210.693 270.158 210.94 270.21 210.953 270.262C211.018 270.392 209.977 270.588 209.444 271.823C209.197 272.408 209.223 273.214 209.73 273.878C210.212 274.541 211.148 274.931 212.032 274.619C212.877 274.333 213.45 273.422 213.476 272.616C213.528 271.81 213.046 271.147 212.5 270.796C211.356 270.041 210.394 270.444 210.368 270.301Z" fill="#455A64"/>
<path d="M184.501 475.999L229.501 465.999L228.287 482.02L191.501 490.999L184.501 475.999Z" fill="#7476A0"/>
<path d="M213.969 148.948C213.969 148.948 235.061 156.374 237.376 169.573C239.691 182.772 250.484 230.198 250.484 230.198L314.23 238.455L306.818 255.686C306.818 255.686 235.139 259.314 231.81 255.686C228.468 252.057 213.969 148.948 213.969 148.948Z" fill="#FF6043"/>
<path d="M213.969 148.948C213.969 148.948 235.061 156.374 237.376 169.573C239.691 182.772 250.484 230.198 250.484 230.198L314.23 238.455L306.818 255.686C306.818 255.686 235.139 259.314 231.81 255.686C228.468 252.057 213.969 148.948 213.969 148.948Z" fill="url(#paint2_linear)"/>
<path d="M144.5 284.5C142.239 268 142.239 255.117 142.239 255.117V177.245L134.813 150.353L158.689 143.89C167.454 157.375 193.189 158.467 196.908 143.89L213.956 148.961C213.956 148.961 225.023 158.597 232.435 215.295C234.698 232.603 242.123 255.777 242.123 255.777C242.123 255.777 242.734 265.048 236.297 269.392L144.5 284.5Z" fill="#FF6043"/>
<path d="M134.826 150.274C134.826 150.274 121.393 157.258 118.22 170.444C115.931 179.937 113.201 239.001 118.22 249.274C123.24 259.535 127.18 266.05 137.999 267.883C148.819 269.717 215.425 266.986 215.425 266.986L219.001 241.264L152.148 228.871C152.148 228.871 146.101 177.752 145.321 174.085" fill="#FF6043"/>
<path d="M227.025 244.541L245.543 243.176L254.425 249.197L262.071 259.496C262.071 259.496 261.018 261.173 258.885 260.367L261.733 263.813C261.733 263.813 260.654 266.024 258.17 264.854L259.925 267.571C259.925 267.571 256.583 268.768 254.62 265.712C252.656 262.656 248.677 258.365 248.677 258.365L241.902 256.128L248.508 262.695L252.162 268.521C252.162 268.521 251.499 270.354 250.159 269.509C248.82 268.664 245.127 264.086 245.127 264.086L237.35 259.119C237.35 259.119 231.837 261.616 230.133 261.642C228.417 261.668 222.864 258.117 222.864 258.117L217.571 261.616L218.989 243.189L227.025 244.541Z" fill="#CCA685"/>
<path d="M261.72 263.813C261.642 263.865 260.783 262.864 259.457 261.187C258.13 259.509 256.336 257.168 254.385 254.542C253.735 253.67 253.111 252.825 252.526 252.019L252.617 252.11C250.471 250.796 248.637 249.652 247.337 248.807C246.037 247.961 245.295 247.428 245.334 247.363C245.373 247.298 246.193 247.701 247.558 248.443C248.911 249.184 250.796 250.263 252.955 251.538L253.007 251.564L253.046 251.616C253.644 252.409 254.268 253.254 254.931 254.125C256.882 256.739 258.612 259.132 259.847 260.887C261.082 262.643 261.798 263.761 261.72 263.813Z" fill="#CCA685"/>
<path d="M259.497 266.921C259.419 266.973 258.665 266.037 257.52 264.477C256.376 262.916 254.815 260.731 253.138 258.287C252.566 257.441 252.006 256.622 251.473 255.855L251.603 255.972C247.559 254.008 244.646 252.487 244.724 252.344C244.789 252.201 247.806 253.488 251.889 255.374L251.967 255.413L252.019 255.491C252.553 256.258 253.112 257.064 253.697 257.91C255.375 260.354 256.857 262.578 257.91 264.217C258.977 265.829 259.575 266.869 259.497 266.921Z" fill="#CCA685"/>
<path d="M148.936 268.195C148.936 268.182 149.04 268.182 149.261 268.169C149.508 268.156 149.82 268.143 150.21 268.13C151.081 268.104 152.317 268.078 153.916 268.026C157.193 267.961 161.914 267.857 167.883 267.74C179.885 267.532 196.869 267.246 216.869 266.921L216.557 267.207C217.207 259.144 217.922 250.379 218.676 241.238L218.962 241.602C213.462 240.782 207.701 239.924 201.836 239.053C182.109 236.101 163.604 233.331 147.843 230.964L147.583 230.925L147.596 230.665C148.272 213.695 147.7 199.521 146.894 189.625C146.504 184.683 146.075 180.795 145.776 178.155C145.62 176.855 145.503 175.853 145.425 175.138C145.386 174.813 145.36 174.566 145.347 174.358C145.334 174.189 145.321 174.098 145.334 174.098C145.347 174.098 145.36 174.189 145.399 174.358C145.438 174.553 145.477 174.813 145.529 175.125C145.633 175.84 145.776 176.842 145.971 178.129C146.335 180.769 146.803 184.644 147.245 189.598C148.142 199.495 148.806 213.695 148.181 230.691L147.934 230.392C163.695 232.72 182.213 235.464 201.94 238.39C207.805 239.261 213.566 240.119 219.053 240.938L219.366 240.991L219.34 241.303C218.585 250.444 217.844 259.209 217.181 267.259L217.155 267.545H216.869C196.869 267.779 179.898 267.987 167.883 268.13C161.914 268.182 157.193 268.221 153.916 268.247C152.317 268.247 151.081 268.247 150.21 268.247C149.807 268.247 149.495 268.234 149.261 268.234C149.04 268.221 148.936 268.208 148.936 268.195Z" fill="#263238"/>
<path d="M326.441 215.892L300.64 272.954C299.574 275.321 296.323 277.232 293.735 277.271L174.696 277.115C174.995 274.619 177.089 272.72 179.599 272.668L224.762 271.68L247.883 216.191C248.624 214.423 250.341 213.266 252.265 213.253L324.347 212.706C326.011 212.68 327.117 214.384 326.441 215.892Z" fill="#E0E0E0"/>
<path d="M226.986 277.766C227.012 277.779 227.129 277.558 227.337 277.142C227.572 276.648 227.858 276.037 228.196 275.295C228.95 273.579 229.977 271.264 231.213 268.455C233.722 262.669 237.143 254.645 240.823 245.75C244.503 236.842 247.741 228.754 249.991 222.85C251.109 219.898 252.006 217.505 252.578 215.841C252.838 215.074 253.059 214.436 253.229 213.916C253.372 213.474 253.437 213.24 253.411 213.227C253.385 213.214 253.281 213.435 253.085 213.864C252.877 214.371 252.617 214.996 252.305 215.737C251.603 217.479 250.654 219.82 249.496 222.655C247.065 228.585 243.775 236.608 240.133 245.464C236.479 254.32 233.176 262.317 230.732 268.247C229.574 271.095 228.638 273.436 227.923 275.178C227.637 275.933 227.39 276.557 227.194 277.077C227.038 277.519 226.96 277.753 226.986 277.766Z" fill="#455A64"/>
<path d="M273.671 243.565C273.671 245.607 275.322 247.258 277.364 247.258C279.406 247.258 281.057 245.607 281.057 243.565C281.057 241.524 279.406 239.872 277.364 239.872C275.322 239.872 273.671 241.524 273.671 243.565Z" fill="white"/>
<path d="M359.186 1.28613C360.29 1.28613 361.186 2.18156 361.186 3.28613V147.249C361.186 148.353 360.29 149.249 359.186 149.249H292.198C290.846 149.249 289.586 149.932 288.847 151.065L281.121 162.917C280.281 164.205 278.363 164.104 277.664 162.734L271.895 151.431C271.212 150.092 269.835 149.249 268.332 149.249H263.325C262.221 149.249 261.325 148.353 261.325 147.249V3.28613C261.325 2.18156 262.221 1.28613 263.325 1.28613H359.186Z" fill="#FAFAFA" stroke="black" stroke-width="2"/>
<path d="M288.829 125.619H288.504C286.97 125.619 285.734 124.371 285.734 122.849V29.0902C285.734 27.5557 286.983 26.3203 288.504 26.3203H288.829C290.364 26.3203 291.599 27.5687 291.599 29.0902V122.849C291.599 124.371 290.351 125.619 288.829 125.619Z" fill="#E0E0E0"/>
<path d="M311.417 125.619H311.092C309.558 125.619 308.322 124.371 308.322 122.849V29.0902C308.322 27.5557 309.571 26.3203 311.092 26.3203H311.417C312.952 26.3203 314.187 27.5687 314.187 29.0902V122.849C314.187 124.371 312.952 125.619 311.417 125.619Z" fill="#E0E0E0"/>
<path d="M334.019 125.619H333.694C332.159 125.619 330.924 124.371 330.924 122.849V29.0902C330.924 27.5557 332.172 26.3203 333.694 26.3203H334.019C335.553 26.3203 336.789 27.5687 336.789 29.0902V122.849C336.789 124.371 335.54 125.619 334.019 125.619Z" fill="#E0E0E0"/>
<path d="M288.596 72.8492H286.893C283.915 72.8492 281.496 70.4304 281.496 67.4525V66.8283C281.496 63.8504 283.915 61.4316 286.893 61.4316H288.596C291.574 61.4316 293.993 63.8504 293.993 66.8283V67.4525C293.993 70.4304 291.587 72.8492 288.596 72.8492Z" fill="#FF6043"/>
<path d="M312.667 94.3834H310.963C307.985 94.3834 305.566 91.9646 305.566 88.9867V88.3625C305.566 85.3846 307.985 82.9658 310.963 82.9658H312.667C315.645 82.9658 318.063 85.3846 318.063 88.3625V88.9867C318.063 91.9646 315.658 94.3834 312.667 94.3834Z" fill="#FF6043"/>
<path d="M334.448 53.7974H332.744C329.766 53.7974 327.348 51.3787 327.348 48.4008V47.7766C327.348 44.7986 329.766 42.3799 332.744 42.3799H334.448C337.426 42.3799 339.845 44.7986 339.845 47.7766V48.4008C339.845 51.3917 337.426 53.7974 334.448 53.7974Z" fill="#FF6043"/>
<defs>
<linearGradient id="paint0_linear" x1="188.865" y1="476.036" x2="231.463" y2="448.743" gradientUnits="userSpaceOnUse">
<stop stop-color="#BA8B68"/>
<stop offset="1" stop-color="#CCA685"/>
</linearGradient>
<linearGradient id="paint1_linear" x1="104.207" y1="431.269" x2="211.975" y2="362.223" gradientUnits="userSpaceOnUse">
<stop stop-color="#373929"/>
<stop offset="1" stop-color="#37395B"/>
</linearGradient>
<linearGradient id="paint2_linear" x1="281.5" y1="177.5" x2="200.5" y2="208.5" gradientUnits="userSpaceOnUse">
<stop offset="0.22669" stop-color="#DE4226"/>
<stop offset="1" stop-color="#FF6043"/>
</linearGradient>
</defs>
</svg>
