<svg xmlns="http://www.w3.org/2000/svg" width="234" height="359" fill="none" viewBox="0 0 234 359"><g opacity=".3"><path fill="#F5F5F5" d="M36.9437 204.03C41.7716 198.363 47.3132 193.493 53.3165 189.379L51.0076 169.144L82.7876 158.019L93.6188 175.273C100.882 174.727 108.228 175.105 115.533 176.49L128.17 160.537L158.522 175.147L153.988 194.962C159.656 199.79 164.526 205.332 168.64 211.335L188.875 209.026L200 240.806L182.746 251.637C183.291 258.9 182.914 266.247 181.528 273.552L197.481 286.23L182.872 316.583L163.056 312.049C158.228 317.716 152.687 322.586 146.683 326.7L148.992 346.936L117.212 358.061L106.381 340.806C99.1184 341.352 91.7716 340.974 84.4668 339.589L71.8304 355.542L41.4778 340.932L46.0118 321.117C40.3442 316.289 35.4744 310.748 31.3602 304.744L11.1251 307.053L0 275.231L17.2544 264.4C16.7086 257.137 17.0865 249.79 18.4719 242.485L2.51889 229.849L17.1285 199.496L36.9437 204.03ZM59.068 238.329C48.1948 260.957 57.7246 288.077 80.3107 298.993C102.939 309.866 130.059 300.336 140.974 277.75C151.847 255.122 142.317 228.002 119.731 217.087C97.0613 206.171 69.9412 215.701 59.068 238.329Z"/></g><g opacity=".3"><path fill="#F5F5F5" d="M161.44 20.4752C163.588 17.9532 166.054 15.7861 168.726 13.9553L167.698 4.95066L181.84 0L186.66 7.67819C189.892 7.43533 193.162 7.60348 196.412 8.21998L202.035 1.12092L215.542 7.62215L213.525 16.44C216.047 18.5884 218.214 21.0544 220.045 23.7259L229.049 22.6984L234 36.8405L226.322 41.6604C226.565 44.8923 226.397 48.1616 225.78 51.4123L232.879 57.0542L226.378 70.5611L217.56 68.5435C215.412 71.0656 212.946 73.2326 210.274 75.0634L211.302 84.0681L197.16 89.0187L192.34 81.3406C189.108 81.5834 185.838 81.4153 182.588 80.7988L176.965 87.8978L163.458 81.3966L165.475 72.5788C162.953 70.4304 160.786 67.9644 158.955 65.2929L149.951 66.3204L145 52.1596L152.678 47.3397C152.435 44.1077 152.603 40.8384 153.22 37.5878L146.121 31.9645L152.622 18.4576L161.44 20.4752ZM171.285 35.7383C166.447 45.8078 170.687 57.8762 180.738 62.7334C190.808 67.572 202.876 63.3313 207.733 53.2805C212.572 43.211 208.331 31.1426 198.28 26.2853C188.192 21.428 176.124 25.6688 171.285 35.7383Z"/></g></svg>