<svg width="1052" height="345" viewBox="0 0 1052 345" fill="none" xmlns="http://www.w3.org/2000/svg">
<path opacity="0.6" d="M1052 322.697C1051.98 328.608 1049.63 334.273 1045.45 338.452C1041.27 342.632 1035.6 344.986 1029.68 345H-362.684C-368.603 345 -374.279 342.65 -378.464 338.468C-382.649 334.285 -385 328.612 -385 322.697C-385 316.782 -382.649 311.109 -378.464 306.927C-374.279 302.744 -368.603 300.394 -362.684 300.394C-360.862 300.388 -359.045 300.588 -357.268 300.99C-357.26 292.248 -354.648 283.707 -349.765 276.455C-344.881 269.203 -337.948 263.569 -329.848 260.27C-321.748 256.972 -312.849 256.159 -304.285 257.935C-295.721 259.711 -287.88 263.995 -281.761 270.242H-281.328C-281.328 267.535 -281.761 264.829 -281.761 262.014C-281.751 247.933 -278.162 234.084 -271.331 221.768C-264.501 209.452 -254.653 199.071 -242.71 191.6C-230.768 184.128 -217.122 179.809 -203.053 179.05C-188.984 178.29 -174.952 181.113 -162.273 187.256C-161.329 173.816 -155.852 161.094 -146.737 151.167C-137.623 141.241 -125.409 134.697 -112.092 132.604C-98.775 130.512 -85.1416 132.994 -73.4189 139.647C-61.6962 146.299 -52.5772 156.728 -47.5517 169.229C-40.0609 157.332 -29.6712 147.531 -17.3556 140.742C-5.03995 133.954 8.79834 130.4 22.8629 130.416C28.2068 130.422 33.5385 130.929 38.7875 131.931C37.6502 125.535 37.0883 119.049 37.1084 112.552C37.0975 91.0243 43.2736 69.9466 54.9021 51.8257C66.5306 33.7048 83.1223 19.3032 102.704 10.3337C122.285 1.36413 144.032 -1.79576 165.358 1.22971C186.685 4.25518 206.693 13.3387 223.003 27.4C224.869 23.7499 227.708 20.6859 231.206 18.5462C234.704 16.4064 238.726 15.2741 242.827 15.2742C245.766 15.2898 248.673 15.8782 251.385 17.0065L272.293 10.3337H394.923L415.831 17.0065C421.019 14.7903 426.858 14.6313 432.16 16.5617C437.462 18.4922 441.829 22.3674 444.376 27.4C460.686 13.3387 480.694 4.25518 502.02 1.22971C523.346 -1.79576 545.093 1.36413 564.675 10.3337C584.256 19.3032 600.848 33.7048 612.476 51.8257C624.105 69.9466 630.281 91.0243 630.27 112.552C630.29 119.049 629.728 125.535 628.591 131.931C633.822 130.932 639.135 130.424 644.461 130.416C658.526 130.4 672.364 133.954 684.68 140.742C696.995 147.531 707.385 157.332 714.876 169.229C720.105 157.065 729.241 146.99 740.84 140.595C752.439 134.201 765.84 131.852 778.924 133.919C792.008 135.987 804.03 142.354 813.089 152.013C822.149 161.672 827.729 174.073 828.948 187.256C841.622 181.07 855.663 178.206 869.749 178.934C883.835 179.662 897.506 183.957 909.475 191.415C921.444 198.874 931.319 209.252 938.172 221.573C945.026 233.894 948.632 247.754 948.652 261.851C948.652 264.612 948.652 267.265 948.219 270.08H948.652C954.77 263.833 962.611 259.548 971.176 257.772C979.74 255.996 988.639 256.809 996.739 260.108C1004.84 263.406 1011.77 269.041 1016.66 276.293C1021.54 283.545 1024.15 292.086 1024.16 300.827C1025.94 300.425 1027.75 300.226 1029.57 300.232C1032.53 300.218 1035.46 300.789 1038.19 301.914C1040.92 303.038 1043.4 304.693 1045.48 306.783C1047.57 308.873 1049.22 311.356 1050.34 314.087C1051.46 316.819 1052.02 319.746 1052 322.697Z" fill="#FF6043" fill-opacity="0.7"/>
</svg>
