<svg width="1366" height="328" viewBox="0 0 1366 328" fill="none" xmlns="http://www.w3.org/2000/svg">
<path opacity="0.6" d="M1366 306.789C1365.99 312.41 1363.75 317.798 1359.77 321.772C1355.8 325.747 1350.41 327.986 1344.79 328H21.2134C15.5872 328 10.1916 325.765 6.2133 321.787C2.23501 317.81 0 312.415 0 306.789C0 301.164 2.23501 295.768 6.2133 291.791C10.1916 287.813 15.5872 285.578 21.2134 285.578C22.9455 285.572 24.6728 285.762 26.3623 286.144C26.3693 277.831 28.8522 269.708 33.4943 262.811C38.1364 255.914 44.7274 250.555 52.4271 247.418C60.1268 244.281 68.5864 243.508 76.7273 245.197C84.8683 246.886 92.3219 250.961 98.1378 256.902H98.5496C98.5496 254.328 98.1378 251.754 98.1378 249.077C98.148 235.685 101.56 222.515 108.052 210.802C114.545 199.089 123.907 189.216 135.259 182.11C146.612 175.004 159.583 170.897 172.958 170.174C186.332 169.452 199.67 172.137 211.722 177.979C212.62 165.197 217.826 153.098 226.491 143.657C235.155 134.217 246.765 127.993 259.424 126.003C272.083 124.013 285.043 126.374 296.186 132.701C307.33 139.027 315.998 148.946 320.776 160.835C327.896 149.521 337.773 140.199 349.48 133.743C361.187 127.286 374.341 123.907 387.711 123.922C392.791 123.927 397.859 124.41 402.849 125.363C401.768 119.28 401.234 113.111 401.253 106.932C401.242 86.459 407.113 66.4133 418.167 49.1796C429.221 31.9459 444.993 18.2494 463.607 9.71904C482.221 1.18868 502.893 -1.8165 523.166 1.06084C543.439 3.93817 562.458 12.577 577.962 25.9498C579.736 22.4784 582.435 19.5644 585.76 17.5295C589.086 15.4945 592.909 14.4176 596.807 14.4177C599.601 14.4325 602.364 14.9922 604.943 16.0652L624.817 9.71907H741.388L761.263 16.0652C766.195 13.9575 771.745 13.8062 776.785 15.6422C781.825 17.4782 785.977 21.1636 788.397 25.9498C803.902 12.577 822.921 3.93817 843.194 1.06084C863.467 -1.8165 884.139 1.18868 902.753 9.71904C921.367 18.2494 937.138 31.9459 948.192 49.1796C959.246 66.4133 965.118 86.459 965.107 106.932C965.126 113.111 964.592 119.28 963.511 125.363C968.484 124.412 973.534 123.93 978.597 123.922C991.967 123.907 1005.12 127.286 1016.83 133.743C1028.54 140.199 1038.41 149.521 1045.53 160.835C1050.5 149.267 1059.19 139.685 1070.21 133.603C1081.24 127.522 1093.98 125.288 1106.42 127.254C1118.85 129.22 1130.28 135.275 1138.89 144.461C1147.51 153.648 1152.81 165.441 1153.97 177.979C1166.02 172.096 1179.36 169.373 1192.75 170.065C1206.14 170.756 1219.14 174.841 1230.52 181.935C1241.89 189.028 1251.28 198.898 1257.8 210.616C1264.31 222.334 1267.74 235.515 1267.76 248.922C1267.76 251.548 1267.76 254.071 1267.35 256.748H1267.76C1273.57 250.807 1281.03 246.732 1289.17 245.043C1297.31 243.354 1305.77 244.127 1313.47 247.264C1321.17 250.401 1327.76 255.76 1332.4 262.657C1337.04 269.554 1339.53 277.676 1339.53 285.99C1341.22 285.608 1342.95 285.418 1344.68 285.424C1347.49 285.41 1350.27 285.954 1352.87 287.023C1355.46 288.093 1357.82 289.667 1359.8 291.654C1361.79 293.641 1363.36 296.003 1364.42 298.601C1365.48 301.199 1366.02 303.982 1366 306.789Z" fill="#FF6043" fill-opacity="0.7"/>
</svg>
