<?xml version="1.0" encoding="UTF-8" standalone="no"?>
<svg
   xmlns:dc="http://purl.org/dc/elements/1.1/"
   xmlns:cc="http://creativecommons.org/ns#"
   xmlns:rdf="http://www.w3.org/1999/02/22-rdf-syntax-ns#"
   xmlns:svg="http://www.w3.org/2000/svg"
   xmlns="http://www.w3.org/2000/svg"
   xmlns:sodipodi="http://sodipodi.sourceforge.net/DTD/sodipodi-0.dtd"
   xmlns:inkscape="http://www.inkscape.org/namespaces/inkscape"
   width="1366.0005"
   height="354.00241"
   viewBox="0 0 1366.0005 354.00241"
   fill="none"
   version="1.1"
   id="svg4"
   sodipodi:docname="cloud.svg"
   inkscape:version="1.0.1 (0767f8302a, 2020-10-17)">
  <metadata
     id="metadata10">
    <rdf:RDF>
      <cc:Work
         rdf:about="">
        <dc:format>image/svg+xml</dc:format>
        <dc:type
           rdf:resource="http://purl.org/dc/dcmitype/StillImage" />
        <dc:title></dc:title>
      </cc:Work>
    </rdf:RDF>
  </metadata>
  <defs
     id="defs8" />
  <sodipodi:namedview
     pagecolor="#ffffff"
     bordercolor="#666666"
     borderopacity="1"
     objecttolerance="10"
     gridtolerance="10"
     guidetolerance="10"
     inkscape:pageopacity="0"
     inkscape:pageshadow="2"
     inkscape:window-width="1854"
     inkscape:window-height="1016"
     id="namedview6"
     showgrid="false"
     fit-margin-top="0"
     fit-margin-left="0"
     fit-margin-right="0"
     fit-margin-bottom="0"
     inkscape:zoom="0.41047065"
     inkscape:cx="711.95149"
     inkscape:cy="68.795089"
     inkscape:window-x="66"
     inkscape:window-y="27"
     inkscape:window-maximized="1"
     inkscape:current-layer="svg4" />
  <path
     opacity="0.6"
     d="m 1366,332.79141 c -0.01,5.621 -2.25,11.009 -6.23,14.983 -3.97,3.975 -9.36,6.214 -14.98,6.228 H 21.2134 c -5.6262,0 -11.0218,-2.235 -15.0001,-6.213 C 2.23501,343.81241 0,338.41741 0,332.79141 c 0,-5.625 2.23501,-11.021 6.2133,-14.998 3.9783,-3.978 9.3739,-6.213 15.0001,-6.213 1.7321,-0.006 3.4594,0.184 5.1489,0.566 0.007,-8.313 2.4899,-16.436 7.132,-23.333 4.6421,-6.897 11.2331,-12.256 18.9328,-15.393 7.6997,-3.137 16.1593,-3.91 24.3002,-2.221 8.141,1.689 15.5946,5.764 21.4105,11.705 h 0.4118 c 0,-2.574 -0.4118,-5.148 -0.4118,-7.825 0.0102,-13.392 3.4222,-26.562 9.9142,-38.275 6.493,-11.713 15.855,-21.586 27.207,-28.692 11.353,-7.106 24.324,-11.213 37.699,-11.936 13.374,-0.722 26.712,1.963 38.764,7.805 0.898,-12.782 6.104,-24.881 14.769,-34.322 8.664,-9.44 20.274,-15.664 32.933,-17.654 12.659,-1.99 25.619,0.371 36.762,6.698 11.144,6.326 19.812,16.245 24.59,28.134 7.12,-11.314 16.997,-20.636 28.704,-27.092 11.707,-6.457 24.861,-9.836 38.231,-9.821 5.08,0.005 10.148,0.488 15.138,1.441 -1.081,-6.083 -1.615,-12.252 -1.596,-18.431 -0.011,-20.473 5.86,-40.5187 16.914,-57.7524 11.054,-17.2337 26.826,-30.9302 45.44,-39.46056 18.614,-8.53036 39.286,-11.53554 59.559,-8.6582 20.273,2.87733 39.292,11.51616 54.796,24.88896 37.70598,-69.506845 169.57893,-69.031975 210.435,0 15.505,-13.3728 34.524,-22.01163 54.797,-24.88896 20.273,-2.87734 40.945,0.12784 59.559,8.6582 18.614,8.53036 34.385,22.22686 45.439,39.46056 11.054,17.2337 16.926,37.2794 16.915,57.7524 0.019,6.179 -0.515,12.348 -1.596,18.431 4.973,-0.951 10.023,-1.433 15.086,-1.441 13.37,-0.015 26.523,3.364 38.233,9.821 11.71,6.456 21.58,15.778 28.7,27.092 4.97,-11.568 13.66,-21.15 24.68,-27.232 11.03,-6.081 23.77,-8.315 36.21,-6.349 12.43,1.966 23.86,8.021 32.47,17.207 8.62,9.187 13.92,20.98 15.08,33.518 12.05,-5.883 25.39,-8.606 38.78,-7.914 13.39,0.691 26.39,4.776 37.77,11.87 11.37,7.093 20.76,16.963 27.28,28.681 6.51,11.718 9.94,24.899 9.96,38.306 0,2.626 0,5.149 -0.41,7.826 h 0.41 c 5.81,-5.941 13.27,-10.016 21.41,-11.705 8.14,-1.689 16.6,-0.916 24.3,2.221 7.7,3.137 14.29,8.496 18.93,15.393 4.64,6.897 7.13,15.019 7.13,23.333 1.69,-0.382 3.42,-0.572 5.15,-0.566 2.81,-0.014 5.59,0.53 8.19,1.599 2.59,1.07 4.95,2.644 6.93,4.631 1.99,1.987 3.56,4.349 4.62,6.947 1.06,2.598 1.6,5.381 1.58,8.188 z"
     fill="#ff6043"
     fill-opacity="0.7"
     id="path2"
     sodipodi:nodetypes="cccscscccsssccccccccsccccccsssccssscccccccccccccccsssccccsc" />
</svg>
