<svg width="125" height="35" viewBox="0 0 125 35" fill="none" xmlns="http://www.w3.org/2000/svg">
<path d="M8.68 26.6644C8.97 27.0044 9.10999 27.4445 9.10999 27.9945C9.10999 28.6645 8.74 29.2345 8 29.6945C7.26 30.1545 6.42999 30.3845 5.50999 30.3845C3.95999 30.3845 2.66 30.0544 1.59 29.3944C0.529996 28.7344 0 27.3244 0 25.1744V8.31445C0 7.66445 0.219996 7.12445 0.659996 6.68445C1.1 6.24445 1.63999 6.02441 2.28999 6.02441C2.90999 6.02441 3.43999 6.24445 3.85999 6.68445C4.27999 7.12445 4.5 7.66445 4.5 8.31445V10.7145H7.16C7.76 10.7145 8.26 10.9145 8.66 11.3145C9.06 11.7145 9.25999 12.2145 9.25999 12.8145C9.25999 13.3945 9.06 13.8745 8.66 14.2545C8.26 14.6445 7.76 14.8345 7.16 14.8345H4.5V24.9845C4.5 25.5145 4.64 25.8945 4.91 26.1245C5.18 26.3645 5.56 26.4845 6.03 26.4845C6.23 26.4845 6.5 26.4345 6.85 26.3345C7.15 26.2145 7.44 26.1444 7.71 26.1444C8.08 26.1644 8.4 26.3344 8.68 26.6644Z" fill="white"/>
<path d="M31.1101 25.7648C30.2101 27.3548 28.9801 28.5848 27.4201 29.4548C25.8601 30.3348 24.1401 30.7648 22.2701 30.7648C20.3701 30.7648 18.6501 30.3248 17.1001 29.4548C15.5501 28.5848 14.3301 27.3548 13.4301 25.7648C12.5301 24.1748 12.0801 22.3849 12.0801 20.3849C12.0801 18.3849 12.5301 16.5949 13.4301 15.0049C14.3301 13.4149 15.5501 12.1848 17.1001 11.2948C18.6501 10.4048 20.3701 9.96484 22.2701 9.96484C24.1401 9.96484 25.8601 10.4148 27.4201 11.2948C28.9801 12.1848 30.2101 13.4149 31.1101 15.0049C32.0101 16.5949 32.4601 18.3849 32.4601 20.3849C32.4601 22.3949 32.0101 24.1848 31.1101 25.7648ZM27.2001 17.1149C26.6901 16.1549 26.0001 15.4149 25.1401 14.8849C24.2801 14.3649 23.3201 14.0948 22.2701 14.0948C21.2201 14.0948 20.2601 14.3549 19.4001 14.8849C18.5401 15.4049 17.8501 16.1549 17.3401 17.1149C16.8301 18.0749 16.5701 19.1748 16.5701 20.3948C16.5701 21.6248 16.8301 22.7048 17.3401 23.6548C17.8501 24.6048 18.5401 25.3449 19.4001 25.8649C20.2601 26.3849 21.2201 26.6548 22.2701 26.6548C23.3201 26.6548 24.2701 26.3949 25.1401 25.8649C26.0001 25.3449 26.6901 24.6048 27.2001 23.6548C27.7101 22.7048 27.9701 21.6148 27.9701 20.3948C27.9601 19.1648 27.7101 18.0749 27.2001 17.1149Z" fill="white"/>
<path d="M77.78 25.7648C76.88 27.3548 75.65 28.5848 74.09 29.4548C72.53 30.3348 70.81 30.7648 68.94 30.7648C67.04 30.7648 65.32 30.3248 63.77 29.4548C62.22 28.5848 61 27.3548 60.1 25.7648C59.2 24.1748 58.75 22.3849 58.75 20.3849C58.75 18.3849 59.2 16.5949 60.1 15.0049C61 13.4149 62.22 12.1848 63.77 11.2948C65.32 10.4048 67.04 9.96484 68.94 9.96484C70.81 9.96484 72.53 10.4148 74.09 11.2948C75.65 12.1848 76.88 13.4149 77.78 15.0049C78.68 16.5949 79.13 18.3849 79.13 20.3849C79.13 22.3949 78.68 24.1848 77.78 25.7648ZM73.86 17.1149C73.35 16.1549 72.66 15.4149 71.8 14.8849C70.94 14.3649 69.98 14.0948 68.93 14.0948C67.88 14.0948 66.93 14.3549 66.06 14.8849C65.2 15.4049 64.51 16.1549 64 17.1149C63.49 18.0749 63.23 19.1748 63.23 20.3948C63.23 21.6248 63.49 22.7048 64 23.6548C64.51 24.6048 65.2 25.3449 66.06 25.8649C66.92 26.3849 67.88 26.6548 68.93 26.6548C69.98 26.6548 70.93 26.3949 71.8 25.8649C72.66 25.3449 73.35 24.6048 73.86 23.6548C74.37 22.7048 74.63 21.6148 74.63 20.3948C74.63 19.1648 74.38 18.0749 73.86 17.1149Z" fill="white"/>
<path d="M55.0701 6.69421C54.6501 6.25421 54.1201 6.03418 53.5001 6.03418C52.8501 6.03418 52.3101 6.25421 51.8701 6.69421C51.4301 7.13421 51.2101 7.67422 51.2101 8.32422V11.5442C51.0301 11.4342 50.8501 11.3142 50.6701 11.2142C49.1101 10.3242 47.3901 9.88428 45.5201 9.88428C43.6201 9.88428 41.9001 10.3242 40.3501 11.2142C38.8001 12.1042 37.5801 13.3342 36.6801 14.9242C35.7801 16.5142 35.3301 18.3042 35.3301 20.3042C35.3301 22.3042 35.7801 24.0942 36.6801 25.6842C37.5801 27.2742 38.8001 28.5043 40.3501 29.3743C41.9001 30.2543 43.6201 30.6842 45.5201 30.6842C47.3901 30.6842 49.1101 30.2443 50.6701 29.3743C52.2301 28.5043 53.4601 27.2742 54.3601 25.6842C54.6601 25.1542 54.9101 24.5942 55.1101 24.0142C55.5101 22.8742 55.7101 21.6342 55.7101 20.3142V11.4642V8.34424C55.7001 7.67424 55.4901 7.13421 55.0701 6.69421ZM50.4401 23.5542C49.9301 24.5042 49.2401 25.2442 48.3801 25.7642C47.5201 26.2842 46.5601 26.5542 45.5101 26.5542C44.4601 26.5542 43.5101 26.2942 42.6401 25.7642C41.7801 25.2442 41.0901 24.5042 40.5801 23.5542C40.0701 22.6042 39.8101 21.5142 39.8101 20.2942C39.8101 19.0742 40.0701 17.9742 40.5801 17.0142C41.0901 16.0542 41.7801 15.3042 42.6401 14.7842C43.5001 14.2642 44.4601 13.9943 45.5101 13.9943C46.5601 13.9943 47.5201 14.2542 48.3801 14.7842C49.2401 15.3042 49.9301 16.0542 50.4401 17.0142C50.9501 17.9742 51.2101 19.0642 51.2101 20.2942C51.2101 21.5242 50.9501 22.6042 50.4401 23.5542Z" fill="white"/>
<path d="M113.36 33.5243C126.6 30.9543 129.64 5.30431 114.81 2.91431C111.87 2.44431 110.6 6.93431 113.57 7.41431C123.77 9.05431 120.98 27.3043 112.12 29.0243C109.16 29.6043 110.42 34.0943 113.36 33.5243Z" fill="white"/>
<path d="M95.1298 1.35453C92.1698 7.50453 88.9698 13.5545 85.5198 19.4345C83.9898 22.0345 88.0298 24.3845 89.5498 21.7945C93.0098 15.9145 96.1998 9.86452 99.1598 3.71452C100.46 1.01452 96.4398 -1.35547 95.1298 1.35453Z" fill="white"/>
<path d="M94.3799 34.8347C94.3899 34.8347 94.3999 34.8247 94.4099 34.8247C95.4699 34.5547 96.0399 33.6047 96.1199 32.5747C96.3299 29.8047 96.1499 27.0546 96.4499 24.2646C96.7899 21.0946 97.1499 17.9346 97.5699 14.7746C98.1099 10.8046 98.7899 6.86465 99.5699 2.92465C100.15 -0.0153499 95.6499 -1.26534 95.0699 1.68466C94.2599 5.79466 93.5599 9.92468 92.9999 14.0847C92.5799 17.2047 92.2099 20.3247 91.8699 23.4447C91.6699 25.2447 91.4099 27.0547 91.3599 28.8647C91.3199 30.0947 91.5399 31.3447 91.4499 32.5647C92.0199 31.8147 92.5899 31.0647 93.1599 30.3147C93.1499 30.3147 93.1399 30.3247 93.1299 30.3247C90.2299 31.0847 91.4599 35.5847 94.3799 34.8347Z" fill="white"/>
<path d="M114.18 2.83495C99.06 1.31495 89.96 19.6249 91.42 32.5849C91.75 35.5349 96.43 35.5749 96.09 32.5849C94.9 22.0749 101.54 6.23499 114.18 7.50499C117.18 7.80499 117.15 3.13495 114.18 2.83495Z" fill="white"/>
<path d="M105.91 12.8144C103.03 16.7844 101.93 21.6344 102.86 26.4444C103.78 31.2244 107.93 34.1344 112.74 33.6044C115.7 33.2844 115.73 28.6143 112.74 28.9343C104.63 29.8243 107.06 19.1343 109.94 15.1643C111.71 12.7343 107.65 10.4044 105.91 12.8144Z" fill="white"/>
</svg>
