<svg xmlns="http://www.w3.org/2000/svg" width="493" height="287" fill="none" viewBox="0 0 493 287"><g opacity=".3"><path fill="#F5F5F5" d="M420.44 30.4752C422.588 27.9532 425.054 25.7861 427.726 23.9553L426.698 14.9507L440.84 10L445.66 17.6782C448.892 17.4353 452.162 17.6035 455.412 18.22L461.035 11.1209L474.542 17.6221L472.525 26.44C475.047 28.5884 477.214 31.0544 479.045 33.7259L488.049 32.6984L493 46.8405L485.322 51.6604C485.565 54.8923 485.397 58.1616 484.78 61.4123L491.879 67.0542L485.378 80.5611L476.56 78.5435C474.412 81.0656 471.946 83.2326 469.274 85.0634L470.302 94.0681L456.16 99.0187L451.34 91.3406C448.108 91.5834 444.838 91.4153 441.588 90.7988L435.965 97.8978L422.458 91.3966L424.475 82.5788C421.953 80.4304 419.786 77.9644 417.955 75.2929L408.951 76.3204L404 62.1596L411.678 57.3397C411.435 54.1077 411.603 50.8384 412.22 47.5878L405.121 41.9645L411.622 28.4576L420.44 30.4752ZM430.285 45.7383C425.447 55.8078 429.687 67.8762 439.738 72.7334C449.808 77.572 461.876 73.3313 466.733 63.2805C471.572 53.211 467.331 41.1426 457.28 36.2853C447.192 31.428 435.124 35.6688 430.285 45.7383Z"/></g><g clip-path="url(#clip0)"><g opacity=".8"><path fill="#F2F2F2" d="M410.632 161.187C398.719 149.274 382.069 145.063 366.759 148.412L277.147 58.8004C280.496 43.4903 276.286 26.8406 264.372 14.9274C251.598 2.15305 233.322 -1.86585 217.103 2.9664L246.718 32.5819L238.345 56.2168L214.758 64.5417L185.143 34.9262C180.31 51.1454 184.281 69.374 197.104 82.1962C209.017 94.1093 225.667 98.3196 240.977 94.9705L330.589 184.63C327.24 199.94 331.45 216.59 343.363 228.503C356.137 241.278 374.414 245.297 390.633 240.464L361.017 210.849L369.342 187.214L392.977 178.889L422.593 208.504C427.425 192.238 423.454 173.961 410.632 161.187Z"/><path fill="url(#paint0_linear)" d="M410.632 161.187C398.719 149.274 382.069 145.063 366.759 148.412L277.147 58.8004C280.496 43.4903 276.286 26.8406 264.372 14.9274C251.598 2.15305 233.322 -1.86585 217.103 2.9664L246.718 32.5819L238.345 56.2168L214.758 64.5417L185.143 34.9262C180.31 51.1454 184.281 69.374 197.104 82.1962C209.017 94.1093 225.667 98.3196 240.977 94.9705L330.589 184.63C327.24 199.94 331.45 216.59 343.363 228.503C356.137 241.278 374.414 245.297 390.633 240.464L361.017 210.849L369.342 187.214L392.977 178.889L422.593 208.504C427.425 192.238 423.454 173.961 410.632 161.187Z"/></g><path fill="#F2705B" d="M242.842 235.058L242.172 235.154L241.838 235.201L183.324 243L190.979 184.343L191.027 183.865L191.075 183.482L329.584 44.6385L335.086 39.1364L338.53 35.6917L390.202 87.3632L386.757 90.808L381.303 96.3101L242.842 235.058Z"/><path fill="#FF6043" d="M330.971 43.251L329.584 44.6385L191.075 183.482L191.027 183.865L190.979 184.343L207.773 201.136L348.339 60.5705L330.971 43.251Z"/><path fill="url(#paint1_linear)" d="M330.971 43.251L329.584 44.6385L191.075 183.482L191.027 183.865L190.979 184.343L207.773 201.136L348.339 60.5705L330.971 43.251Z"/><path fill="#FF6043" d="M365.466 77.7466L224.9 218.312L241.837 235.201L242.172 235.154L242.842 235.058L382.834 95.0661L365.466 77.7466Z"/><path fill="url(#paint2_linear)" d="M365.466 77.7466L224.9 218.312L241.837 235.201L242.172 235.154L242.842 235.058L382.834 95.0661L365.466 77.7466Z"/><path fill="#FF6043" d="M225.063 218.388L365.628 77.8232L348.273 60.4685L207.709 201.033L225.063 218.388Z"/><path fill="url(#paint3_linear)" d="M225.063 218.388L365.628 77.8232L348.273 60.4685L207.709 201.033L225.063 218.388Z"/><path fill="#C60F36" d="M398.096 79.469L346.425 27.7974L371.017 3.15771C375.227 -1.05257 382.069 -1.05257 386.279 3.15771L422.688 39.5192C426.899 43.7295 426.899 50.5712 422.688 54.7815L398.096 79.469Z"/><path fill="#F2F2F2" d="M381.303 96.3101L329.584 44.6385L346.377 27.7974L398.097 79.469L381.303 96.3101Z"/><path fill="#FFF2D2" d="M242.172 235.154L183.324 243L191.027 183.865C195.572 182.908 200.5 184.2 204.041 187.74C207.677 191.376 208.921 196.448 207.82 201.136C212.461 200.036 217.581 201.28 221.217 204.916C224.853 208.552 226.097 213.624 224.996 218.312C229.637 217.212 234.757 218.456 238.393 222.092C241.885 225.537 243.177 230.561 242.172 235.154Z"/><path fill="#FF6043" d="M205.237 240.082L183.324 243L186.195 220.801C190.357 222.427 194.233 224.867 197.63 228.264C201.122 231.709 203.658 235.728 205.237 240.082Z"/></g><g opacity=".3"><path fill="#F5F5F5" d="M36.9437 132.012C41.7716 126.344 47.3132 121.474 53.3165 117.36L51.0076 97.1251L82.7876 86L93.6188 103.254C100.882 102.709 108.228 103.086 115.533 104.472L128.17 88.5189L158.522 103.128L153.988 122.944C159.656 127.772 164.526 133.313 168.64 139.317L188.875 137.008L200 168.788L182.746 179.619C183.291 186.882 182.914 194.228 181.528 201.533L197.481 214.212L182.872 244.564L163.056 240.03C158.228 245.698 152.687 250.568 146.683 254.682L148.992 274.917L117.212 286.042L106.381 268.788C99.1184 269.334 91.7716 268.956 84.4668 267.57L71.8304 283.523L41.4778 268.914L46.0118 249.098C40.3442 244.271 35.4744 238.729 31.3602 232.726L11.1251 235.035L0 203.213L17.2544 192.381C16.7086 185.118 17.0865 177.772 18.4719 170.467L2.51889 157.83L17.1285 127.478L36.9437 132.012ZM59.068 166.311C48.1948 188.939 57.7246 216.059 80.3107 226.974C102.939 237.847 130.059 228.317 140.974 205.731C151.847 183.103 142.317 155.983 119.731 145.068C97.0613 134.153 69.9412 143.683 59.068 166.311Z"/></g><defs><linearGradient id="paint0_linear" x1="303.868" x2="303.868" y1=".986" y2="242.445" gradientUnits="userSpaceOnUse"><stop stop-color="#fff" stop-opacity=".64"/><stop offset="1" stop-color="#fff" stop-opacity="0"/></linearGradient><linearGradient id="paint1_linear" x1="269.659" x2="269.659" y1="43.251" y2="201.136" gradientUnits="userSpaceOnUse"><stop stop-color="#414141" stop-opacity=".4"/><stop offset="1" stop-color="#fff" stop-opacity="0"/></linearGradient><linearGradient id="paint2_linear" x1="303.867" x2="303.867" y1="77.747" y2="235.201" gradientUnits="userSpaceOnUse"><stop stop-color="#414141" stop-opacity=".4"/><stop offset="1" stop-color="#fff" stop-opacity="0"/></linearGradient><linearGradient id="paint3_linear" x1="360.98" x2="162.188" y1="63.154" y2="264.099" gradientUnits="userSpaceOnUse"><stop stop-color="#fff" stop-opacity=".21"/><stop offset="1" stop-color="#fff" stop-opacity="0"/></linearGradient><clipPath id="clip0"><rect width="243" height="243" fill="#fff" transform="translate(183)"/></clipPath></defs></svg>