<svg xmlns="http://www.w3.org/2000/svg" width="413" height="318" fill="none" viewBox="0 0 413 318"><g opacity=".4"><path fill="#04283A" d="M118.694 274.07L130.005 262.759L118.08 250.834L106.769 262.145L118.694 274.07Z"/><path fill="#37395B" d="M116.042 163.881C89.5339 137.373 46.3894 137.373 19.8812 163.881C-6.62706 190.389 -6.62706 233.534 19.8812 260.042C46.3894 286.55 89.5339 286.55 116.042 260.042C142.55 233.579 142.55 190.435 116.042 163.881Z"/><path fill="#FF6043" d="M167.824 286.963L146.389 265.528C139.534 258.673 128.382 258.673 121.481 265.528C114.625 272.384 114.625 283.535 121.481 290.437L142.916 311.872C149.771 318.727 160.923 318.727 167.824 311.872C174.726 305.016 174.726 293.865 167.824 286.963Z"/><path fill="url(#paint0_linear)" d="M167.824 286.963L146.389 265.528C139.534 258.673 128.382 258.673 121.481 265.528C114.625 272.384 114.625 283.535 121.481 290.437L142.916 311.872C149.771 318.727 160.923 318.727 167.824 311.872C174.726 305.016 174.726 293.865 167.824 286.963Z"/><path fill="#fff" d="M101.965 246.012C83.2268 264.75 52.6966 264.75 33.9123 246.012C15.1738 227.273 15.1738 196.743 33.9123 177.959C52.6509 159.22 83.1811 159.22 101.965 177.959C120.704 196.743 120.704 227.228 101.965 246.012Z"/><path fill="url(#paint1_linear)" d="M101.965 246.012C83.2268 264.75 52.6966 264.75 33.9123 246.012C15.1738 227.273 15.1738 196.743 33.9123 177.959C52.6509 159.22 83.1811 159.22 101.965 177.959C120.704 196.743 120.704 227.228 101.965 246.012Z"/><path fill="#FF6043" d="M46.9697 221.701C52.4541 221.701 55.1141 218.958 55.1141 215.75C55.1141 208.703 43.9532 211.143 43.9532 207.606C43.9532 206.399 44.9678 205.412 47.6004 205.412C49.3006 205.412 51.1379 205.905 52.9203 206.92L54.2914 203.547C52.509 202.423 50.041 201.847 47.6278 201.847C42.1708 201.847 39.5382 204.562 39.5382 207.825C39.5382 214.955 50.6991 212.487 50.6991 216.079C50.6991 217.258 49.6296 218.136 46.9971 218.136C44.6936 218.136 42.2804 217.313 40.6625 216.134L39.1543 219.479C40.8545 220.796 43.9258 221.701 46.9697 221.701Z"/><path fill="#FF6043" d="M62.5646 217.807V213.364H71.4769V209.909H62.5646V205.741H72.656V202.176H58.1496V221.372H73.0125V217.807H62.5646Z"/><path fill="#FF6043" d="M85.7898 221.701C91.8227 221.701 96.2926 217.505 96.2926 211.774C96.2926 206.043 91.8227 201.847 85.7898 201.847C79.7295 201.847 75.2871 206.07 75.2871 211.774C75.2871 217.478 79.7295 221.701 85.7898 221.701ZM85.7898 217.916C82.362 217.916 79.7843 215.421 79.7843 211.774C79.7843 208.127 82.362 205.631 85.7898 205.631C89.2176 205.631 91.7953 208.127 91.7953 211.774C91.7953 215.421 89.2176 217.916 85.7898 217.916Z"/></g><g opacity=".4"><path fill="#FF9E00" d="M313.612 56.0878H311.209C311.209 55.251 311.23 54.4357 311.273 53.5989L313.698 53.7276C313.634 54.5215 313.612 55.2939 313.612 56.0878Z"/><path fill="#FF9E00" d="M314.17 49.05L311.767 48.6637C312.024 47.033 312.367 45.4238 312.797 43.8145L315.135 44.4368C314.749 45.9817 314.406 47.5265 314.17 49.05ZM316.594 39.9952L314.341 39.137C314.942 37.5921 315.607 36.0901 316.358 34.6096L318.525 35.7039C317.796 37.0986 317.152 38.5362 316.594 39.9952Z"/><path fill="#FF9E00" d="M402.829 48.9856C402.593 47.4407 402.25 45.8958 401.842 44.3939L404.181 43.7716C404.61 45.3594 404.953 46.9901 405.211 48.6208L402.829 48.9856ZM400.383 39.9309C399.825 38.4718 399.181 37.0342 398.473 35.6395L400.619 34.5452C401.37 36.0043 402.057 37.5277 402.636 39.0511L400.383 39.9309ZM320.865 31.6486L318.826 30.3183C319.727 28.945 320.693 27.5933 321.744 26.3059L323.632 27.8293C322.645 29.0523 321.701 30.3397 320.865 31.6486ZM396.113 31.6057C395.255 30.2968 394.332 29.0309 393.345 27.8078L395.233 26.2844C396.263 27.5504 397.25 28.9021 398.152 30.2754L396.113 31.6057ZM326.765 24.3533L325.049 22.6368C326.207 21.4781 327.452 20.3624 328.718 19.3324L330.241 21.2206C329.04 22.2076 327.859 23.259 326.765 24.3533ZM390.191 24.3318C389.097 23.2376 387.917 22.1647 386.694 21.1992L388.217 19.311C389.505 20.3409 390.728 21.4567 391.886 22.6153L390.191 24.3318ZM334.06 18.4527L332.73 16.4143C334.103 15.5131 335.541 14.6763 337.021 13.9254L338.116 16.0925C336.721 16.8005 335.348 17.5944 334.06 18.4527ZM382.896 18.4313C381.587 17.573 380.214 16.7791 378.819 16.0925L379.913 13.9254C381.372 14.6763 382.81 15.4917 384.205 16.3929L382.896 18.4313ZM342.407 14.1828L341.527 11.9299C343.051 11.3505 344.639 10.8356 346.226 10.4065L346.849 12.7452C345.347 13.1529 343.845 13.625 342.407 14.1828ZM374.549 14.1614C373.09 13.6035 371.588 13.11 370.086 12.7238L370.708 10.385C372.296 10.8141 373.884 11.3291 375.429 11.9084L374.549 14.1614ZM351.44 11.7582L351.054 9.37653C352.663 9.11905 354.337 8.9474 355.968 8.86157L356.096 11.2862C354.552 11.3505 352.985 11.5222 351.44 11.7582ZM365.494 11.7582C363.95 11.5222 362.383 11.3505 360.817 11.2862L360.946 8.86157C362.576 8.9474 364.25 9.11905 365.859 9.37653L365.494 11.7582Z"/><path fill="#FF9E00" d="M405.79 56.0878H403.365C403.365 55.2939 403.344 54.5001 403.301 53.7276L405.725 53.5989C405.768 54.4357 405.79 55.251 405.79 56.0878Z"/><path fill="#37395B" d="M367.963 0H349.038V18.9248H367.963V0Z"/><path fill="#37395B" d="M320.586 51.5818H304.236V67.9318H320.586V51.5818Z"/><path fill="#37395B" d="M412.764 51.5818H396.414V67.9318H412.764V51.5818Z"/><path fill="#FF9E00" d="M409.245 8.26099H367.962V10.6856H409.245V8.26099Z"/><path fill="#FF9E00" d="M409.245 13.2176C407.164 13.2176 405.49 11.544 405.49 9.46268C405.49 7.38139 407.164 5.70776 409.245 5.70776C411.326 5.70776 413 7.38139 413 9.46268C413 11.544 411.326 13.2176 409.245 13.2176Z"/><path fill="#FF9E00" d="M349.038 8.26099H307.755V10.6856H349.038V8.26099Z"/><path fill="#FF9E00" d="M307.755 5.70776C309.836 5.70776 311.51 7.38139 311.51 9.46268C311.51 11.544 309.836 13.2176 307.755 13.2176C305.674 13.2176 304 11.544 304 9.46268C304 7.38139 305.674 5.70776 307.755 5.70776Z"/><path fill="#EEE" d="M384.098 62.2243C371.653 50.5089 364.229 33.7083 360.796 24.3103H356.183C352.75 33.6869 345.326 50.4875 332.881 62.2243C332.881 62.2243 344.854 79.0249 343.931 88.1225H373.026C372.125 79.0249 384.098 62.2243 384.098 62.2243Z"/><path fill="url(#paint2_linear)" d="M384.098 62.2243C371.653 50.5089 364.229 33.7083 360.796 24.3103H356.183C352.75 33.6869 345.326 50.4875 332.881 62.2243C332.881 62.2243 344.854 79.0249 343.931 88.1225H373.026C372.125 79.0249 384.098 62.2243 384.098 62.2243Z"/><path fill="#fff" d="M359.981 50.2944V24.3318H357.041V50.3158C354.509 50.981 352.643 53.2554 352.643 55.9804C352.643 59.2204 355.282 61.8595 358.522 61.8595C361.762 61.8595 364.401 59.2204 364.401 55.9804C364.379 53.234 362.491 50.9595 359.981 50.2944Z"/><path fill="#FF6043" d="M373.026 88.1226H343.974V109H373.026V88.1226Z"/><path fill="url(#paint3_linear)" d="M373.026 88.1226H343.974V109H373.026V88.1226Z"/><path fill="#C60F36" d="M373.026 88.1226H343.974V91.384H373.026V88.1226Z"/></g><path fill="#37395B" d="M345.977 174.483V116.517L320.231 110.244C318.826 106.179 317.22 102.264 315.363 98.4497L329.114 75.8656L288.112 34.8628L265.527 48.614C261.713 46.7571 257.748 45.1511 253.734 43.7459L247.46 18H189.494L183.221 43.7459C179.156 45.1511 175.241 46.7571 171.427 48.614L148.843 34.8628L107.84 75.8656L121.591 98.4497C119.734 102.264 118.128 106.229 116.723 110.244L91.0273 116.517V174.483L116.773 180.756C118.178 184.821 119.784 188.736 121.641 192.55L107.89 215.134L148.893 256.137L171.477 242.386C175.291 244.243 179.256 245.849 183.271 247.254L189.544 273H247.51L253.784 247.254C257.849 245.849 261.763 244.243 265.578 242.386L288.162 256.137L329.165 215.134L315.413 192.55C317.27 188.736 318.876 184.771 320.281 180.756L345.977 174.483Z"/><path fill="#C2EDFF" d="M295.888 132.024C295.737 131.221 295.587 130.418 295.436 129.665C289.012 98.0474 263.568 73.4056 231.548 68.0356C229.189 67.6341 226.831 67.3832 224.422 67.1824C222.464 67.0319 220.507 66.9817 218.5 66.9817C213.581 66.9817 208.763 67.4334 204.096 68.2865C203.845 68.3367 203.644 68.3869 203.393 68.4371C183.871 72.2513 166.958 83.2423 155.565 98.5493C154.662 99.7036 153.859 100.858 153.056 102.062C144.775 114.459 139.957 129.414 139.957 145.474C139.957 188.836 175.138 224.017 218.5 224.017C261.911 224.017 297.042 188.836 297.042 145.474C297.042 140.857 296.641 136.39 295.888 132.024Z"/><path fill="url(#paint4_linear)" d="M295.888 132.024C295.737 131.221 295.587 130.418 295.436 129.665C289.012 98.0474 263.568 73.4056 231.548 68.0356C229.189 67.6341 226.831 67.3832 224.422 67.1824C222.464 67.0319 220.507 66.9817 218.5 66.9817C213.581 66.9817 208.763 67.4334 204.096 68.2865C203.845 68.3367 203.644 68.3869 203.393 68.4371C183.871 72.2513 166.958 83.2423 155.565 98.5493C154.662 99.7036 153.859 100.858 153.056 102.062C144.775 114.459 139.957 129.414 139.957 145.474C139.957 188.836 175.138 224.017 218.5 224.017C261.911 224.017 297.042 188.836 297.042 145.474C297.042 140.857 296.641 136.39 295.888 132.024Z"/><path fill="#7CAA36" d="M214.285 81.7868C214.185 84.2962 210.621 84.4467 208.263 85.3501C206.607 86.0025 205.302 87.3576 203.997 88.6122C201.036 91.4227 197.673 93.8317 194.06 95.789C190.346 97.7965 185.127 99.1013 182.366 95.8894C191.249 92.2257 198.025 84.1958 201.086 75.1119C196.82 77.4707 193.558 81.2348 189.794 84.3965C185.578 87.9598 180.71 90.6699 176.645 94.3837C172.58 98.0976 169.267 103.217 169.468 108.687C169.418 105.525 167.511 102.564 164.851 100.858C162.191 99.1013 158.979 98.4489 155.817 98.4991C155.717 98.4991 155.617 98.4991 155.566 98.4991C166.959 83.1419 183.872 72.1509 203.395 68.3869C203.646 68.3367 203.846 68.2865 204.097 68.2363C205.051 72.2513 207.61 75.8647 211.123 78.073C212.529 79.0265 214.386 80.0805 214.285 81.7868Z"/><path fill="#7CAA36" d="M231.5 68.0366C233.407 69.1407 235.314 70.295 236.619 72.0014C236.97 72.4531 237.322 73.0553 237.221 73.6074C236.97 75.0126 234.812 74.7115 233.507 75.3137C231.299 76.3175 232.052 79.8306 234.009 81.2358C236.017 82.641 238.576 82.8418 240.734 83.9459C241.587 84.3474 242.39 85.1504 242.29 86.0537C242.24 86.5556 241.889 86.9571 241.537 87.3586C238.978 90.2694 236.368 93.1803 233.808 96.0911C233.156 96.7938 232.453 97.5967 231.55 97.9982C230.396 98.6005 229.041 98.5503 227.686 98.5001C222.667 98.3495 216.394 99.4537 215.089 104.272C214.788 105.476 214.788 106.831 213.934 107.735C213.182 108.588 211.877 108.788 211.224 109.792C210.271 111.298 211.626 113.155 211.877 114.961C212.278 117.772 208.966 120.382 206.356 119.328C206.256 116.266 206.155 113.205 206.105 110.194C206.105 109.692 206.055 109.14 205.804 108.738C205.503 108.236 204.901 108.036 204.299 107.885C201.388 106.982 197.774 106.379 195.817 108.638C193.809 110.896 194.813 114.46 196.419 117.019C198.025 119.528 200.183 122.038 200.284 125.049C200.334 126.555 199.581 128.211 198.176 128.512C196.068 128.964 194.663 126.254 194.562 124.045C191.802 129.716 190.848 136.241 192.003 142.514C187.586 143.618 183.22 144.772 178.804 145.826C177.198 146.228 175.491 146.73 174.437 148.035C173.434 149.289 173.333 150.996 173.383 152.551C173.434 157.972 174.839 163.342 177.348 168.109C178.251 169.715 179.255 171.372 180.761 172.476C184.876 175.587 190.798 173.981 195.767 175.336C200.033 176.541 203.395 179.903 205.553 183.768C207.661 187.632 208.765 191.998 209.769 196.314C210.221 198.322 210.722 200.43 212.178 201.885C213.834 203.592 216.343 204.043 218.652 204.395C222.617 205.047 226.933 205.599 230.446 203.642C233.457 201.935 235.364 198.623 238.576 197.419C240.734 196.616 243.193 196.867 245.452 196.365C247.71 195.863 250.069 193.906 249.567 191.597C249.115 189.439 246.205 187.883 246.857 185.775C247.309 184.32 249.115 183.918 250.521 183.416C256.995 181.208 260.458 172.676 257.296 166.604C256.794 165.65 256.142 164.697 256.091 163.593C255.841 160.28 260.458 159.176 262.716 156.717C264.774 154.509 264.824 151.146 265.125 148.185C265.426 145.174 266.581 141.761 269.491 140.908C272.302 140.055 275.163 142.263 276.869 144.622C278.575 147.031 279.88 149.841 282.339 151.447C282.389 146.278 282.49 141.008 282.54 135.839C282.54 133.982 282.64 131.975 283.845 130.519C285.852 128.11 289.616 128.713 292.728 129.365C293.732 129.616 294.836 129.767 295.789 129.666C288.964 98.0484 263.519 73.3564 231.5 68.0366ZM246.957 119.027L247.259 118.926C248.162 118.926 248.965 118.976 249.868 119.027C249.417 120.883 249.969 122.941 251.223 124.397C251.775 125.049 252.478 125.551 253.03 126.203C254.385 127.759 254.837 130.118 254.084 132.025C252.428 132.176 250.671 132.276 249.015 131.874C247.409 131.473 245.803 130.419 245.101 128.913C244.699 127.96 244.649 126.906 244.599 125.852C244.498 123.292 244.749 120.281 246.957 119.027ZM223.771 145.977C221.212 145.525 219.003 143.919 216.745 142.665C213.433 140.908 209.669 139.955 205.904 139.904C204.6 139.854 203.245 140.005 201.94 139.653C200.635 139.302 199.43 138.449 199.029 137.194C198.577 135.588 199.681 133.882 201.087 132.928C202.442 131.975 204.098 131.473 205.453 130.519L205.704 128.01C208.715 131.071 212.429 133.43 216.444 134.986C218.351 135.739 220.409 136.241 222.416 136.441C224.574 136.642 226.732 136.492 228.84 136.341C229.543 136.241 230.245 136.191 230.948 136.191C232.403 136.09 233.859 135.94 235.314 135.839C237.02 135.739 238.877 135.538 240.283 134.484C240.835 136.642 239.831 138.901 238.275 140.456C236.719 141.962 234.712 142.966 232.704 143.869C229.894 145.124 226.832 146.479 223.771 145.977ZM254.084 161.334C253.933 161.836 253.733 162.288 253.281 162.539C252.98 162.739 252.629 162.79 252.227 162.79C248.915 163.241 245.151 163.593 242.541 161.485C241.336 160.531 240.534 159.126 239.731 157.821C238.677 156.065 237.723 154.308 236.669 152.602C235.615 150.845 234.561 148.888 235.063 146.88C236.619 146.68 238.275 146.78 239.831 147.131L240.283 147.633C239.731 148.888 240.333 150.393 241.286 151.347C242.24 152.301 243.545 152.853 244.799 153.354C245.853 153.806 246.957 154.208 248.011 154.659C249.517 155.262 251.073 155.914 252.327 157.018C253.632 158.072 254.485 159.728 254.084 161.334ZM259.855 144.823C259.554 145.124 259.203 145.325 258.751 145.425C255.64 146.479 251.826 143.969 251.524 140.657L252.026 140.256C254.335 140.256 256.644 140.256 258.952 140.256C259.354 140.256 259.805 140.256 260.157 140.507C260.458 140.808 260.558 141.259 260.558 141.711C260.608 142.815 260.658 144.07 259.855 144.823Z"/><defs><linearGradient id="paint0_linear" x1="166.59" x2="122.258" y1="262.049" y2="404.873" gradientUnits="userSpaceOnUse"><stop stop-color="#FF6043"/><stop offset="1" stop-color="#fff" stop-opacity="0"/></linearGradient><linearGradient id="paint1_linear" x1="115.859" x2="19.881" y1="163.785" y2="274.16" gradientUnits="userSpaceOnUse"><stop offset=".097" stop-color="#D6D6D6" stop-opacity=".63"/><stop offset="1" stop-color="#fff" stop-opacity="0"/></linearGradient><linearGradient id="paint2_linear" x1="382.86" x2="326.709" y1="54.5" y2="89.594" gradientUnits="userSpaceOnUse"><stop stop-color="#C5C5C5" stop-opacity=".61"/><stop offset="1" stop-color="#fff" stop-opacity="0"/></linearGradient><linearGradient id="paint3_linear" x1="304.826" x2="370.06" y1="109" y2="101.155" gradientUnits="userSpaceOnUse"><stop stop-color="#fff"/><stop offset="1" stop-color="#fff" stop-opacity=".38"/></linearGradient><linearGradient id="paint4_linear" x1="140.183" x2="297.268" y1="67.183" y2="259.65" gradientUnits="userSpaceOnUse"><stop stop-color="#4A50AE" stop-opacity=".4"/><stop offset="1" stop-color="#fff" stop-opacity="0"/></linearGradient></defs></svg>