<svg width="449" height="449" viewBox="0 0 449 449" fill="none" xmlns="http://www.w3.org/2000/svg">
<path d="M430.177 0H18.7341C8.395 0 0 8.395 0 18.7341V430.266C0 440.605 8.395 449 18.7341 449H430.266C440.605 449 449 440.605 449 430.266V18.7341C448.912 8.395 440.517 0 430.177 0Z" fill="#F2F2F2"/>
<path d="M419.043 115.41H29.957V418.956H419.043V115.41Z" fill="white"/>
<path d="M49.8399 77.5881C60.8209 77.5881 69.7228 68.6862 69.7228 57.7052C69.7228 46.7241 60.8209 37.8223 49.8399 37.8223C38.8589 37.8223 29.957 46.7241 29.957 57.7052C29.957 68.6862 38.8589 77.5881 49.8399 77.5881Z" fill="#FF9E00"/>
<path d="M112.493 77.5881C123.474 77.5881 132.376 68.6862 132.376 57.7052C132.376 46.7241 123.474 37.8223 112.493 37.8223C101.512 37.8223 92.6104 46.7241 92.6104 57.7052C92.6104 68.6862 101.512 77.5881 112.493 77.5881Z" fill="#C60F36"/>
<path d="M175.234 77.5881C186.215 77.5881 195.117 68.6862 195.117 57.7052C195.117 46.7241 186.215 37.8223 175.234 37.8223C164.253 37.8223 155.352 46.7241 155.352 57.7052C155.352 68.6862 164.253 77.5881 175.234 77.5881Z" fill="white"/>
<path d="M282.956 259.892L208.108 208.55C202.099 204.397 193.88 208.639 193.88 215.796V318.569C193.88 325.727 202.099 329.968 208.108 325.815L282.956 274.385C288.081 270.938 288.081 263.427 282.956 259.892Z" fill="white"/>
<g clip-path="url(#clip0)">
<path d="M168.084 153.091V271.242C168.084 273.535 168.451 275.737 169.139 277.801C169.231 278.076 169.369 278.351 169.46 278.672C172.442 286.47 179.964 291.973 188.816 291.973H276.787L317.929 323.667V291.973H331.276C336.643 291.973 341 287.616 341 282.25V153.091C341 147.724 336.643 143.367 331.276 143.367H177.808C172.442 143.367 168.084 147.724 168.084 153.091Z" fill="#37395B"/>
<path d="M314.636 171.777H192.448V187.326H314.636V171.777Z" fill="#F2F2F2"/>
<path d="M314.636 210.029H192.448V225.578H314.636V210.029Z" fill="#F2F2F2"/>
<path d="M314.636 248.328H192.448V263.877H314.636V248.328Z" fill="#F2F2F2"/>
<path d="M271.192 195.379H117.724C112.357 195.379 108 199.736 108 205.103V334.216C108 339.582 112.357 343.939 117.724 343.939H131.071V375.633L172.213 343.939H271.192C276.558 343.939 280.915 339.582 280.915 334.216V205.103C280.915 199.736 276.558 195.379 271.192 195.379Z" fill="#FF6043"/>
<path d="M271.192 195.379H117.724C112.357 195.379 108 199.736 108 205.103V334.216C108 339.582 112.357 343.939 117.724 343.939H131.071V375.633L172.213 343.939H271.192C276.558 343.939 280.915 339.582 280.915 334.216V205.103C280.915 199.736 276.558 195.379 271.192 195.379Z" fill="url(#paint0_linear)"/>
<path d="M145.06 287.616C154.534 287.616 162.214 279.936 162.214 270.463C162.214 260.989 154.534 253.309 145.06 253.309C135.586 253.309 127.906 260.989 127.906 270.463C127.906 279.936 135.586 287.616 145.06 287.616Z" fill="white"/>
<path d="M194.458 287.616C203.932 287.616 211.612 279.936 211.612 270.463C211.612 260.989 203.932 253.309 194.458 253.309C184.984 253.309 177.304 260.989 177.304 270.463C177.304 279.936 184.984 287.616 194.458 287.616Z" fill="white"/>
<path d="M243.856 287.616C253.329 287.616 261.01 279.936 261.01 270.463C261.01 260.989 253.329 253.309 243.856 253.309C234.382 253.309 226.702 260.989 226.702 270.463C226.702 279.936 234.382 287.616 243.856 287.616Z" fill="white"/>
</g>
<g clip-path="url(#clip1)">
<path d="M226.973 389.531L237.495 404.575H232.434L224.762 393.069L217.062 404.575H212L222.522 389.71L213.079 376.15H218.176L224.751 386.505L226.973 389.531ZM226.962 389.508L228.217 387.725L226.962 389.508ZM225.982 384.63L231.337 376.15H236.398L228.229 387.736L225.982 384.63Z" fill="#37395B"/>
<path d="M242.847 387.9C242.847 387.261 242.847 386.674 242.9 386.111V385.903C243.064 383.384 243.551 381.675 244.366 380.806C245.386 379.725 247.615 379.184 251.052 379.184C254.489 379.184 256.712 379.646 257.721 380.571C258.677 381.422 259.181 383.211 259.251 385.903H263.521C263.259 382.164 262.463 379.618 261.134 378.264C259.472 376.576 255.977 375.734 250.647 375.738C245.756 375.738 242.472 376.709 240.794 378.649C239.117 380.59 238.286 384.396 238.301 390.068C238.301 396.205 239.136 400.232 240.806 402.149C242.475 404.067 245.975 405.026 251.304 405.026C255.891 405.026 259.099 404.435 260.929 403.254C262.759 402.073 263.674 400.005 263.674 397.052L263.644 396.017H259.31V396.908C259.31 398.849 258.8 400.113 257.779 400.7C256.759 401.286 254.54 401.568 251.122 401.545C247.529 401.545 245.242 400.932 244.26 399.704C243.279 398.477 242.788 395.622 242.788 391.138H263.644V388.889C263.644 388.55 263.644 388.21 263.644 387.882H242.847V387.9Z" fill="#37395B"/>
<path d="M281.666 379.184C284.37 379.184 286.2 379.61 287.15 380.45C288.1 381.29 288.575 382.935 288.575 385.374V385.903H292.845C292.845 381.963 292.094 379.282 290.652 377.878C289.209 376.475 286.382 375.738 282.241 375.738C277.103 375.738 273.889 377.196 272.599 380.11L272.476 380.018L272.599 376.152H268.494V385.903H272.84C273.362 381.411 276.3 379.184 281.666 379.184Z" fill="#37395B"/>
<path d="M272.718 387.902H268.472V404.58H272.718V387.902Z" fill="#37395B"/>
<path d="M292.821 387.902H288.574V404.58H292.821V387.902Z" fill="#37395B"/>
<path d="M303.504 382.046V367.86H324.208V364H298.836V385.907H323.012C323.116 384.606 323.324 383.315 323.633 382.046H303.504Z" fill="#37395B"/>
<path d="M303.497 387.902H298.829V404.58H303.497V387.902Z" fill="#37395B"/>
<path d="M347.44 390.37C347.44 395.421 346.991 398.547 346.091 399.747C345.192 400.948 342.846 401.548 339.053 401.548C335.292 401.548 332.963 400.948 332.068 399.747C331.173 398.547 330.723 395.421 330.719 390.37C330.719 389.484 330.719 388.644 330.76 387.902H326.315C326.279 388.685 326.262 389.502 326.262 390.37C326.262 396.476 327.059 400.44 328.655 402.261C330.25 404.083 333.724 404.996 339.077 405C344.43 405 347.906 404.087 349.505 402.261C351.104 400.436 351.902 396.472 351.898 390.37C351.898 389.502 351.898 388.685 351.851 387.902H347.388C347.429 388.667 347.44 389.467 347.44 390.37Z" fill="#37395B"/>
<path d="M332.094 380.985C332.99 379.788 335.318 379.188 339.079 379.184C342.841 379.18 345.187 379.781 346.117 380.985C346.704 381.779 347.115 383.424 347.29 385.903H351.724C351.416 382.283 350.677 379.806 349.507 378.471C347.912 376.653 344.436 375.742 339.079 375.738C333.723 375.734 330.257 376.645 328.681 378.471C327.508 379.806 326.769 382.283 326.464 385.903H330.898C331.097 383.424 331.496 381.779 332.094 380.985Z" fill="#37395B"/>
<path d="M360.138 387.902H355.892V404.58H360.138V387.902Z" fill="#37395B"/>
<path d="M367.236 378.946C370.47 378.946 372.084 380.404 372.081 383.318C372.081 383.577 372.051 384.083 371.993 384.831L371.864 385.901H376.045L376.116 383.6C376.116 378.208 373.447 375.514 368.11 375.518C364.251 375.518 361.482 376.86 359.805 379.545L359.717 379.458L360.139 376.185H355.899V385.936H360.221C360.65 381.27 362.978 378.946 367.236 378.946Z" fill="#37395B"/>
<path d="M401.932 378.471C400.336 376.653 396.862 375.742 391.509 375.738C386.157 375.734 382.69 376.645 381.111 378.471C379.938 379.806 379.197 382.283 378.888 385.903H383.328C383.527 383.424 383.914 381.779 384.501 380.985C385.404 379.788 387.734 379.188 391.492 379.184C395.249 379.18 397.595 379.781 398.53 380.985C399.425 382.185 399.875 385.313 399.879 390.368C399.883 395.422 399.433 398.548 398.53 399.745C397.631 400.945 395.285 401.545 391.492 401.545C387.699 401.545 385.369 400.945 384.501 399.745C383.605 398.548 383.156 395.422 383.152 390.368C383.152 389.482 383.152 388.642 383.193 387.9H378.747C378.718 388.682 378.7 389.499 378.7 390.368C378.7 396.473 379.498 400.437 381.093 402.259C382.688 404.08 386.155 404.993 391.492 404.997C396.845 404.997 400.319 404.084 401.914 402.259C403.509 400.433 404.309 396.469 404.313 390.368C404.313 384.266 403.519 380.3 401.932 378.471Z" fill="#37395B"/>
</g>
<defs>
<linearGradient id="paint0_linear" x1="270" y1="195" x2="194.458" y2="375.633" gradientUnits="userSpaceOnUse">
<stop stop-color="white" stop-opacity="0.35"/>
<stop offset="1" stop-color="white" stop-opacity="0"/>
</linearGradient>
<clipPath id="clip0">
<rect width="233" height="233" fill="white" transform="translate(108 143)"/>
</clipPath>
<clipPath id="clip1">
<rect x="212" y="364" width="201" height="41" fill="white"/>
</clipPath>
</defs>
</svg>
