<svg width="65" height="65" viewBox="0 0 65 65" fill="none" xmlns="http://www.w3.org/2000/svg">
<path d="M62.2751 0H2.71206C1.21531 0 0 1.21531 0 2.71206V62.2879C0 63.7847 1.21531 65 2.71206 65H62.2879C63.7847 65 65 63.7847 65 62.2879V2.71206C64.9872 1.21531 63.7719 0 62.2751 0Z" fill="#04283A"/>
<path d="M57.7594 14.4434H7.21521V57.7724H57.7594V14.4434Z" fill="white"/>
<path d="M42.536 9.79913C43.9632 9.79913 45.1202 8.64217 45.1202 7.21499C45.1202 5.78782 43.9632 4.63086 42.536 4.63086C41.1089 4.63086 39.9519 5.78782 39.9519 7.21499C39.9519 8.64217 41.1089 9.79913 42.536 9.79913Z" fill="white"/>
<path d="M49.8661 9.79913C51.2933 9.79913 52.4502 8.64217 52.4502 7.21499C52.4502 5.78782 51.2933 4.63086 49.8661 4.63086C48.4389 4.63086 47.282 5.78782 47.282 7.21499C47.282 8.64217 48.4389 9.79913 49.8661 9.79913Z" fill="#FF9E00"/>
<path d="M57.1837 9.79913C58.6109 9.79913 59.7679 8.64217 59.7679 7.21499C59.7679 5.78782 58.6109 4.63086 57.1837 4.63086C55.7566 4.63086 54.5996 5.78782 54.5996 7.21499C54.5996 8.64217 55.7566 9.79913 57.1837 9.79913Z" fill="#FF6043"/>
<path d="M48.4717 23.5513V31.2525C48.4717 41.8065 42.1904 51.3499 32.4935 55.5204C22.7966 51.3499 16.5154 41.8193 16.5154 31.2525V23.5513C22.2977 22.5662 27.773 20.2123 32.4807 16.7071L32.5063 16.6943L32.5319 16.7071C37.2141 20.2123 42.6894 22.5662 48.4717 23.5513Z" fill="#FF6043"/>
<path d="M44.8643 26.4806V31.2523C44.8643 32.813 44.7108 34.3353 44.4038 35.8193C43.035 42.5355 38.6854 48.3434 32.4938 51.516C26.3021 48.3306 21.9525 42.5227 20.5837 35.8065C20.2767 34.3225 20.1232 32.7874 20.1232 31.2395V26.4806C24.5111 25.3804 28.7071 23.551 32.4938 21.082C36.2804 23.551 40.4764 25.3804 44.8643 26.4806Z" fill="white"/>
<path d="M35.18 34.3107C35.18 32.6348 33.6449 31.3172 31.9051 31.6754C30.9072 31.88 30.0885 32.686 29.871 33.6838C29.6152 34.8352 30.0885 35.897 30.9328 36.4982V39.0312C30.9328 39.8883 31.6364 40.5919 32.4936 40.5919C33.3507 40.5919 34.0543 39.8883 34.0543 39.0312V36.4982C34.7323 36.0121 35.18 35.2189 35.18 34.3107Z" fill="#04283A"/>
</svg>
