<svg xmlns="http://www.w3.org/2000/svg" width="80" height="80" fill="none" viewBox="0 0 80 80"><path fill="#F2F2F2" d="M70.805 26.8687C71.1041 25.4359 71.2458 23.9401 71.2458 22.4129C71.2458 10.0373 61.2163 0.0078125 48.8408 0.0078125C41.0628 0.0078125 34.198 3.97554 30.183 10.0058C28.9707 9.70669 27.7268 9.54924 26.42 9.54924C17.4296 9.54924 10.1397 16.8391 10.1397 25.8295C10.1397 26.0657 10.1712 26.2861 10.1712 26.5065C4.28262 28.3802 0 33.8909 0 40.4251C0 48.1243 5.98307 54.438 13.5564 54.9891C13.9028 55.0206 14.2492 55.0206 14.6113 55.0206H65.4044C73.4659 55.0206 80 48.4865 80 40.4251C79.9843 34.2845 76.174 29.0257 70.805 26.8687Z"/><path fill="#FF6043" d="M54.2541 46.627L39.627 32L25 46.627H32.0065V66.5129H47.2318V46.627H54.2541Z"/></svg>