<svg xmlns="http://www.w3.org/2000/svg" width="123" height="123" fill="none" viewBox="0 0 123 123"><g clip-path="url(#clip0)"><path fill="#04283A" d="M68.4597 108.681L66.281 105.002L65.8695 104.3H34.3267L33.8909 105.002L31.7122 108.681L27.8632 115.145H72.3087L68.4597 108.681Z"/><path fill="#898CBB" d="M0 89.0244V99.8695C0 102.702 2.29974 105.002 5.13206 105.002H95.0642C97.8965 105.002 100.196 102.702 100.196 99.8695V89.0244H0Z"/><path fill="url(#paint0_linear)" d="M0 89.0244V99.8695C0 102.702 2.29974 105.002 5.13206 105.002H95.0642C97.8965 105.002 100.196 102.702 100.196 99.8695V89.0244H0Z"/><path fill="#37395B" d="M93.3454 22.9126H5.13206C2.29974 22.9126 0 25.1881 0 28.0205V89.0242H100.196V29.7392C100.196 25.9628 97.1218 22.9126 93.3454 22.9126Z"/><path fill="#FF6043" d="M92.1591 30.0298H8.03687V81.883H92.1591V30.0298Z"/><path fill="url(#paint1_linear)" d="M92.1591 30.0298H8.03687V81.883H92.1591V30.0298Z"/><path fill="#37395B" d="M74.076 115.169H26.096C22.0533 115.169 18.7853 118.437 18.7853 122.479H81.4109C81.4109 118.437 78.1187 115.169 74.076 115.169Z"/><path fill="#04283A" d="M50.086 101.08C52.3321 101.08 54.1529 99.2588 54.1529 97.0127C54.1529 94.7666 52.3321 92.9458 50.086 92.9458C47.8399 92.9458 46.019 94.7666 46.019 97.0127C46.019 99.2588 47.8399 101.08 50.086 101.08Z"/><path fill="#37395B" d="M117.844 0.520264H89.4964C86.6641 0.520264 84.3644 2.82001 84.3644 5.65232V55.3752C84.3644 58.2075 86.6641 60.5073 89.4964 60.5073H117.868C120.7 60.5073 123 58.2075 123 55.3752V5.65232C122.976 2.82001 120.676 0.520264 117.844 0.520264Z"/><path fill="#FF6043" d="M118.764 8.09741H88.6006V48.3066H118.764V8.09741Z"/><path fill="url(#paint2_linear)" d="M118.764 8.09741H88.6006V48.3066H118.764V8.09741Z"/><path fill="#04283A" d="M107.749 3.42529H99.591C99.1068 3.42529 98.6953 3.81262 98.6953 4.32098C98.6953 4.82935 99.0826 5.21667 99.591 5.21667H107.749C108.233 5.21667 108.645 4.82935 108.645 4.32098C108.645 3.81262 108.233 3.42529 107.749 3.42529Z"/><path fill="#04283A" d="M103.658 57.7718C105.53 57.7718 107.047 56.2545 107.047 54.3827C107.047 52.511 105.53 50.9937 103.658 50.9937C101.786 50.9937 100.269 52.511 100.269 54.3827C100.269 56.2545 101.786 57.7718 103.658 57.7718Z"/></g><defs><linearGradient id="paint0_linear" x1="67.54" x2="-66.208" y1="99.373" y2="151.057" gradientUnits="userSpaceOnUse"><stop stop-color="#37395B"/><stop offset="1" stop-color="#37395B" stop-opacity="0"/></linearGradient><linearGradient id="paint1_linear" x1="77.707" x2="-44.906" y1="19.003" y2="132.659" gradientUnits="userSpaceOnUse"><stop stop-color="#FA3B3B"/><stop offset="1" stop-color="#fff" stop-opacity="0"/></linearGradient><linearGradient id="paint2_linear" x1="129.391" x2="64.03" y1="-15.13" y2="73.713" gradientUnits="userSpaceOnUse"><stop offset=".119" stop-color="#FA3B3B"/><stop offset="1" stop-color="#fff" stop-opacity="0"/></linearGradient><clipPath id="clip0"><rect width="123" height="123" fill="#fff"/></clipPath></defs></svg>