<svg width="74" height="74" viewBox="0 0 74 74" fill="none" xmlns="http://www.w3.org/2000/svg">
<path d="M72.3117 10.0855L64.3593 18.0379L56.2026 16.4766L54.6559 8.31996L62.6083 0.367586C58.2892 -0.668412 53.5616 0.484318 50.1909 3.84037C47.3748 6.65653 46.1053 10.4211 46.368 14.1128L31.7327 28.7773L26.7132 33.7968L14.1353 46.3746C10.4582 46.112 6.67903 47.3815 3.86286 50.1976C0.477633 53.5537 -0.660505 58.2959 0.375492 62.615L8.32787 54.6626L16.4845 56.2239L18.0458 64.3806L10.0934 72.3329C14.4125 73.3689 19.1402 72.2162 22.5108 68.8602C25.327 66.044 26.5964 62.2794 26.3338 58.6023L33.3523 51.54L49.4759 35.4164L58.5665 26.3259C62.2435 26.5885 66.0227 25.3191 68.8389 22.5029C72.2095 19.1323 73.3623 14.4046 72.3117 10.0855Z" fill="#37395B"/>
<path d="M73.7419 58.8649L58.8585 73.7482C58.5229 74.0838 57.9684 74.0838 57.6182 73.7482L28.2893 44.4193C27.9537 44.0837 27.9537 43.5292 28.2893 43.179L43.1726 28.2956C43.5082 27.96 44.0627 27.96 44.4129 28.2956L73.7419 57.6246C74.0775 57.9602 74.0775 58.5147 73.7419 58.8649Z" fill="#FF6043"/>
<path d="M3.89221 0.00292969L0.0108643 3.88427L4.56342 10.7277L9.36403 14.3902L33.2212 38.2473L38.2552 33.2278L14.3835 9.37068L10.721 4.55548L3.89221 0.00292969Z" fill="#F2F2F2"/>
<path d="M57.297 66.1319C56.6258 66.8031 55.546 66.8031 54.8894 66.1319L35.9204 47.163C35.2492 46.4918 35.2492 45.412 35.9204 44.7554C36.5916 44.0842 37.6714 44.0842 38.328 44.7554L57.297 63.7243C57.9682 64.3809 57.9682 65.4607 57.297 66.1319Z" fill="#FF9E00"/>
<path d="M65.88 56.88C65.2088 57.5512 64.129 57.5512 63.4724 56.88L44.5034 37.911C43.8322 37.2398 43.8322 36.16 44.5034 35.5034C45.1746 34.8322 46.2544 34.8322 46.911 35.5034L65.88 54.4724C66.5512 55.129 66.5512 56.2088 65.88 56.88Z" fill="#FF9E00"/>
</svg>
