<svg width="70" height="70" viewBox="0 0 70 70" fill="none" xmlns="http://www.w3.org/2000/svg">
<path d="M66.9278 0H3.00334C1.39146 0 0.0964355 1.3088 0.0964355 2.92068V12.8951H69.8484V2.92068C69.8484 1.3088 68.5396 0 66.9278 0Z" fill="#37395B"/>
<path d="M0.137817 12.9502V52.4508C0.137817 54.145 1.44558 55.5205 3.0562 55.5205H66.9301C68.5407 55.5205 69.8485 54.145 69.8485 52.4508V12.9502H0.137817Z" fill="#F2F2F2"/>
<path d="M5.86891 8.10038C6.78196 8.10038 7.52213 7.36021 7.52213 6.44716C7.52213 5.53412 6.78196 4.79395 5.86891 4.79395C4.95587 4.79395 4.2157 5.53412 4.2157 6.44716C4.2157 7.36021 4.95587 8.10038 5.86891 8.10038Z" fill="#FF6043"/>
<path d="M11.8479 8.10038C12.761 8.10038 13.5011 7.36021 13.5011 6.44716C13.5011 5.53412 12.761 4.79395 11.8479 4.79395C10.9349 4.79395 10.1947 5.53412 10.1947 6.44716C10.1947 7.36021 10.9349 8.10038 11.8479 8.10038Z" fill="#FF9E00"/>
<path d="M17.8135 8.10038C18.7265 8.10038 19.4667 7.36021 19.4667 6.44716C19.4667 5.53412 18.7265 4.79395 17.8135 4.79395C16.9004 4.79395 16.1603 5.53412 16.1603 6.44716C16.1603 7.36021 16.9004 8.10038 17.8135 8.10038Z" fill="white"/>
<path d="M62.1472 4.79395H26.4652C25.556 4.79395 24.812 5.53789 24.812 6.44716C24.812 7.35643 25.556 8.10038 26.4652 8.10038H62.1472C63.0564 8.10038 63.8004 7.35643 63.8004 6.44716C63.8004 5.53789 63.0564 4.79395 62.1472 4.79395Z" fill="white"/>
<path d="M63.4445 46.751V46.9339C63.4445 47.7972 62.7421 48.4922 61.8862 48.4922H9.1373C8.27401 48.4922 7.57898 47.7898 7.57898 46.9339V46.751C7.57898 45.8877 8.28132 45.1926 9.1373 45.1926H61.8862C62.7421 45.1926 63.4445 45.895 63.4445 46.751Z" fill="#E0E0E0"/>
<path d="M63.4445 34.043V34.2259C63.4445 35.0892 62.7421 35.7842 61.8862 35.7842H9.1373C8.27401 35.7842 7.57898 35.0818 7.57898 34.2259V34.043C7.57898 33.1797 8.28132 32.4846 9.1373 32.4846H61.8862C62.7421 32.4846 63.4445 33.1797 63.4445 34.043Z" fill="#E0E0E0"/>
<path d="M63.4445 21.3271V21.51C63.4445 22.3733 62.7421 23.0684 61.8862 23.0684L9.1373 23.0684C8.27401 23.0684 7.57898 22.366 7.57898 21.51V21.3271C7.57898 20.4638 8.28132 19.7688 9.1373 19.7688L61.8862 19.7688C62.7421 19.7688 63.4445 20.4711 63.4445 21.3271Z" fill="#E0E0E0"/>
<path d="M34.9591 46.1642V47.1686C34.9591 48.9244 33.3982 50.3506 31.4763 50.3506H31.0735C29.1517 50.3506 27.5907 48.9244 27.5907 47.1686V46.1642C27.5907 44.4083 29.1517 42.9822 31.0735 42.9822H31.4763C33.3982 42.9822 34.9591 44.4006 34.9591 46.1642Z" fill="#FF6043"/>
<path d="M46.6666 33.3927V34.3971C46.6666 36.1529 45.1057 37.5791 43.1838 37.5791H42.781C40.8592 37.5791 39.2982 36.1529 39.2982 34.3971V33.3927C39.2982 31.6368 40.8592 30.2107 42.781 30.2107H43.1838C45.1057 30.2107 46.6666 31.6292 46.6666 33.3927Z" fill="#FF6043"/>
<path d="M24.3158 20.6202V21.6246C24.3158 23.3805 22.7548 24.8066 20.833 24.8066H20.4302C18.5084 24.8066 16.9474 23.3805 16.9474 21.6246V20.6202C16.9474 18.8644 18.5084 17.4382 20.4302 17.4382H20.833C22.7632 17.4382 24.3158 18.8644 24.3158 20.6202Z" fill="#FF6043"/>
</svg>
