<svg width="109" height="109" viewBox="0 0 109 109" fill="none" xmlns="http://www.w3.org/2000/svg">
<path d="M9.61262 56.0878H7.20947C7.20947 55.251 7.23093 54.4357 7.27384 53.5989L9.69845 53.7276C9.63408 54.5215 9.61262 55.2939 9.61262 56.0878Z" fill="#FF9E00"/>
<path d="M10.1704 49.05L7.76727 48.6637C8.02475 47.033 8.36806 45.4238 8.79719 43.8145L11.136 44.4368C10.7498 45.9817 10.4064 47.5265 10.1704 49.05ZM12.595 39.9952L10.3421 39.137C10.9429 37.5921 11.608 36.0901 12.359 34.6096L14.5261 35.7039C13.7966 37.0986 13.1529 38.5362 12.595 39.9952Z" fill="#FF9E00"/>
<path d="M98.8295 48.9856C98.5935 47.4407 98.2502 45.8958 97.8425 44.3939L100.181 43.7716C100.61 45.3594 100.954 46.9901 101.211 48.6208L98.8295 48.9856ZM96.3834 39.9309C95.8256 38.4718 95.1818 37.0342 94.4738 35.6395L96.6194 34.5452C97.3704 36.0043 98.057 37.5277 98.6364 39.0511L96.3834 39.9309ZM16.8649 31.6486L14.8265 30.3183C15.7277 28.945 16.6933 27.5933 17.7446 26.3059L19.6328 27.8293C18.6458 29.0523 17.7017 30.3397 16.8649 31.6486ZM92.1135 31.6057C91.2553 30.2968 90.3326 29.0309 89.3456 27.8078L91.2338 26.2844C92.2637 27.5504 93.2507 28.9021 94.1519 30.2754L92.1135 31.6057ZM22.7655 24.3533L21.049 22.6368C22.2076 21.4781 23.4521 20.3624 24.7181 19.3324L26.2415 21.2206C25.0399 22.2076 23.8598 23.259 22.7655 24.3533ZM86.1915 24.3318C85.0972 23.2376 83.9171 22.1647 82.6941 21.1992L84.2175 19.311C85.5049 20.3409 86.7279 21.4567 87.8866 22.6153L86.1915 24.3318ZM30.0608 18.4527L28.7305 16.4143C30.1037 15.5131 31.5413 14.6763 33.0218 13.9254L34.1161 16.0925C32.7214 16.8005 31.3482 17.5944 30.0608 18.4527ZM78.8962 18.4313C77.5874 17.573 76.2141 16.7791 74.8195 16.0925L75.9137 13.9254C77.3728 14.6763 78.8104 15.4917 80.2051 16.3929L78.8962 18.4313ZM38.4074 14.1828L37.5277 11.9299C39.0511 11.3505 40.6389 10.8356 42.2267 10.4065L42.849 12.7452C41.347 13.1529 39.845 13.625 38.4074 14.1828ZM70.5496 14.1614C69.0905 13.6035 67.5885 13.11 66.0866 12.7238L66.7088 10.385C68.2966 10.8141 69.8844 11.3291 71.4293 11.9084L70.5496 14.1614ZM47.4407 11.7582L47.0545 9.37653C48.6637 9.11905 50.3374 8.9474 51.9681 8.86157L52.0968 11.2862C50.5519 11.3505 48.9856 11.5222 47.4407 11.7582ZM61.4948 11.7582C59.95 11.5222 58.3836 11.3505 56.8173 11.2862L56.946 8.86157C58.5767 8.9474 60.2504 9.11905 61.8596 9.37653L61.4948 11.7582Z" fill="#FF9E00"/>
<path d="M101.791 56.0878H99.3659C99.3659 55.2939 99.3444 54.5001 99.3015 53.7276L101.726 53.5989C101.769 54.4357 101.791 55.251 101.791 56.0878Z" fill="#FF9E00"/>
<path d="M63.9623 0H45.0375V18.9248H63.9623V0Z" fill="#37395B"/>
<path d="M16.586 51.5818H0.235962V67.9318H16.586V51.5818Z" fill="#37395B"/>
<path d="M108.764 51.5818H92.4138V67.9318H108.764V51.5818Z" fill="#37395B"/>
<path d="M105.245 8.26099H63.9623V10.6856H105.245V8.26099Z" fill="#FF9E00"/>
<path d="M105.245 13.2176C103.164 13.2176 101.49 11.544 101.49 9.46268C101.49 7.38139 103.164 5.70776 105.245 5.70776C107.326 5.70776 109 7.38139 109 9.46268C109 11.544 107.326 13.2176 105.245 13.2176Z" fill="#FF9E00"/>
<path d="M45.0375 8.26099H3.75482V10.6856H45.0375V8.26099Z" fill="#FF9E00"/>
<path d="M3.75492 5.70776C5.83622 5.70776 7.50984 7.38139 7.50984 9.46268C7.50984 11.544 5.83622 13.2176 3.75492 13.2176C1.67362 13.2176 0 11.544 0 9.46268C0 7.38139 1.67362 5.70776 3.75492 5.70776Z" fill="#FF9E00"/>
<path d="M80.0978 62.2243C67.6529 50.5089 60.2289 33.7083 56.7958 24.3103H52.1826C48.7496 33.6869 41.3256 50.4875 28.8807 62.2243C28.8807 62.2243 40.8535 79.0249 39.9309 88.1225H69.0262C68.125 79.0249 80.0978 62.2243 80.0978 62.2243Z" fill="#EEEEEE"/>
<path d="M80.0978 62.2243C67.6529 50.5089 60.2289 33.7083 56.7958 24.3103H52.1826C48.7496 33.6869 41.3256 50.4875 28.8807 62.2243C28.8807 62.2243 40.8535 79.0249 39.9309 88.1225H69.0262C68.125 79.0249 80.0978 62.2243 80.0978 62.2243Z" fill="url(#paint0_linear)"/>
<path d="M55.9804 50.2944V24.3318H53.0408V50.3158C50.5089 50.981 48.6422 53.2554 48.6422 55.9804C48.6422 59.2204 51.2814 61.8595 54.5213 61.8595C57.7613 61.8595 60.4005 59.2204 60.4005 55.9804C60.379 53.234 58.4908 50.9595 55.9804 50.2944Z" fill="white"/>
<path d="M69.0262 88.1226H39.9739V109H69.0262V88.1226Z" fill="#FF6043"/>
<path d="M69.0262 88.1226H39.9739V109H69.0262V88.1226Z" fill="url(#paint1_linear)"/>
<path d="M69.0262 88.1226H39.9739V91.384H69.0262V88.1226Z" fill="#C60F36"/>
<defs>
<linearGradient id="paint0_linear" x1="78.86" y1="54.4996" x2="22.7085" y2="89.5943" gradientUnits="userSpaceOnUse">
<stop stop-color="#C5C5C5" stop-opacity="0.61"/>
<stop offset="1" stop-color="white" stop-opacity="0"/>
</linearGradient>
<linearGradient id="paint1_linear" x1="0.825787" y1="109" x2="66.0606" y2="101.155" gradientUnits="userSpaceOnUse">
<stop stop-color="white"/>
<stop offset="1" stop-color="white" stop-opacity="0.38"/>
</linearGradient>
</defs>
</svg>
