<svg xmlns="http://www.w3.org/2000/svg" width="32" height="22" fill="none" viewBox="0 0 32 22"><path fill="#37395B" fill-rule="evenodd" d="M31.3771 0H24.1234C23.7797 0 23.5009 0.271041 23.5009 0.60523V8.49923H21.1271V0.605466C21.1271 0.271277 20.8473 0 20.5021 0H0.624998C0.279784 0 0 0.271277 0 0.605466V14.9895C0 15.324 0.279784 15.595 0.624998 15.595H13.0759V18.1562L11.8774 20.7807C11.7919 20.9681 11.8098 21.1845 11.9252 21.3562C12.0405 21.5276 12.2375 21.6312 12.4489 21.6312H18.2177C18.5629 21.6312 18.8427 21.3602 18.8427 21.0258C18.8427 20.6913 18.5629 20.4203 18.2177 20.4203H13.4089L14.1079 18.8896H27.3278L28.027 20.4203H23.2179C22.8727 20.4203 22.5929 20.6913 22.5929 21.0258C22.5929 21.3602 22.8727 21.6312 23.2179 21.6312H28.9867C29.1981 21.6312 29.3951 21.5276 29.5106 21.3562C29.6259 21.1845 29.6439 20.9681 29.5585 20.7807L28.3598 18.1562V11.923H31.3773C31.7211 11.923 32.0001 11.6522 32.0001 11.318V0.60523C31.9999 0.271041 31.7211 0 31.3771 0V0ZM24.0946 11.9293H27.1098V17.6784H14.3259V9.71017H23.4696V11.3239C23.4696 11.6583 23.7494 11.9293 24.0946 11.9293ZM1.25 1.21093H19.8774V8.49923H13.7009C13.3557 8.49923 13.0759 8.77028 13.0759 9.1047V11.5538H1.25V1.21093ZM1.25 14.3841V12.7647H13.0759V14.3841H1.25ZM30.7545 10.7127H24.7462V1.21022H30.7545V10.7127Z" clip-rule="evenodd"/><path fill="#FF6043" fill-rule="evenodd" d="M21.4226 10.9401H16.5083C16.1631 10.9401 15.8833 11.2113 15.8833 11.5455C15.8833 11.88 16.1631 12.151 16.5083 12.151H21.4226C21.7676 12.151 22.0476 11.88 22.0476 11.5455C22.0476 11.2113 21.7676 10.9401 21.4226 10.9401Z" clip-rule="evenodd"/><path fill="#FF6043" fill-rule="evenodd" d="M21.4226 15.2377H16.5083C16.1631 15.2377 15.8833 15.5087 15.8833 15.8431C15.8833 16.1776 16.1631 16.4486 16.5083 16.4486H21.4226C21.7676 16.4486 22.0476 16.1776 22.0476 15.8431C22.0476 15.5087 21.7676 15.2377 21.4226 15.2377Z" clip-rule="evenodd"/><path fill="#FF6043" fill-rule="evenodd" d="M21.4226 13.0887H16.5083C16.1631 13.0887 15.8833 13.36 15.8833 13.6942C15.8833 14.0286 16.1631 14.2997 16.5083 14.2997H21.4226C21.7676 14.2997 22.0476 14.0286 22.0476 13.6942C22.0476 13.36 21.7676 13.0887 21.4226 13.0887Z" clip-rule="evenodd"/><path fill="#FF6043" fill-rule="evenodd" d="M26.2793 6.57031H29.1904C29.5354 6.57031 29.8154 6.29903 29.8154 5.96484C29.8154 5.63042 29.5354 5.35938 29.1904 5.35938H26.2793C25.9341 5.35938 25.6543 5.63042 25.6543 5.96484C25.6543 6.29927 25.9341 6.57031 26.2793 6.57031Z" clip-rule="evenodd"/><path fill="#FF6043" fill-rule="evenodd" d="M26.2793 8.87463H29.1904C29.5354 8.87463 29.8154 8.60359 29.8154 8.26917C29.8154 7.93497 29.5354 7.6637 29.1904 7.6637H26.2793C25.9341 7.6637 25.6543 7.93497 25.6543 8.26917C25.6543 8.60359 25.9341 8.87463 26.2793 8.87463Z" clip-rule="evenodd"/><path fill="#FF6043" fill-rule="evenodd" d="M26.2793 4.26575H29.1904C29.5354 4.26575 29.8154 3.99471 29.8154 3.66028C29.8154 3.32585 29.5354 3.05481 29.1904 3.05481H26.2793C25.9341 3.05481 25.6543 3.32585 25.6543 3.66028C25.6543 3.99471 25.9341 4.26575 26.2793 4.26575Z" clip-rule="evenodd"/><path fill="#FF6043" fill-rule="evenodd" d="M10.7656 5.77698H4.60107C4.25586 5.77698 3.97607 6.04802 3.97607 6.38245C3.97607 6.71664 4.25586 6.98792 4.60107 6.98792H10.7656C11.1108 6.98792 11.3906 6.71664 11.3906 6.38245C11.3906 6.04802 11.1108 5.77698 10.7656 5.77698Z" clip-rule="evenodd"/><path fill="#FF6043" fill-rule="evenodd" d="M10.7656 8.0813H4.60107C4.25586 8.0813 3.97607 8.35234 3.97607 8.68677C3.97607 9.02119 4.25586 9.29224 4.60107 9.29224H10.7656C11.1108 9.29224 11.3906 9.02119 11.3906 8.68677C11.3906 8.35234 11.1108 8.0813 10.7656 8.0813Z" clip-rule="evenodd"/><path fill="#FF6043" fill-rule="evenodd" d="M10.7656 3.47241H4.60107C4.25586 3.47241 3.97607 3.74345 3.97607 4.07788C3.97607 4.41231 4.25586 4.68335 4.60107 4.68335H10.7656C11.1108 4.68335 11.3906 4.41231 11.3906 4.07788C11.3906 3.74345 11.1108 3.47241 10.7656 3.47241Z" clip-rule="evenodd"/><path fill="#37395B" fill-rule="evenodd" d="M20.7178 20.4203C20.3735 20.4203 20.0928 20.6923 20.0928 21.0258C20.0928 21.3592 20.3735 21.6312 20.7178 21.6312C21.062 21.6312 21.3428 21.3592 21.3428 21.0258C21.3428 20.6923 21.062 20.4203 20.7178 20.4203Z" clip-rule="evenodd"/></svg>