<svg xmlns="http://www.w3.org/2000/svg" width="79" height="79" fill="none" viewBox="0 0 79 79"><g clip-path="url(#clip0)"><path fill="#F2F2F2" d="M69.6867 43.2704H41.5446V34.3613H37.4399V43.2704H9.29779V47.3751V56.2997H13.3869V47.3751H37.4399V56.2997H41.5446V47.3751H65.5975V56.2997H69.6867V43.2704Z"/><path fill="#FF6043" d="M53.3766 0H25.6077C23.7885 0 22.3115 1.47707 22.3115 3.2962V31.0651C22.3115 32.8843 23.7885 34.3613 25.6077 34.3613H53.3766C55.1957 34.3613 56.6728 32.8843 56.6728 31.0651V3.2962C56.6728 1.47707 55.1957 0 53.3766 0Z"/><path fill="#04283A" d="M19.3885 56.3008H3.2962C1.47707 56.3008 0 57.7778 0 59.597V75.7048C0 77.524 1.47707 79.001 3.2962 79.001H19.4041C21.2232 79.001 22.7003 77.524 22.7003 75.7048V59.597C22.6847 57.7778 21.2076 56.3008 19.3885 56.3008Z"/><path fill="#FF9E00" d="M75.6882 56.3008H59.5959C57.7768 56.3008 56.2997 57.7778 56.2997 59.597V75.7048C56.2997 77.524 57.7768 79.001 59.5959 79.001H75.7037C77.5228 79.001 78.9999 77.524 78.9999 75.7048V59.597C78.9844 57.7778 77.5073 56.3008 75.6882 56.3008Z"/><path fill="#F2F2F2" d="M47.5462 56.3008H31.4383C29.6192 56.3008 28.1421 57.7778 28.1421 59.597V75.7048C28.1421 77.524 29.6192 79.001 31.4383 79.001H47.5462C49.3653 79.001 50.8424 77.524 50.8424 75.7048V59.597C50.8424 57.7778 49.3653 56.3008 47.5462 56.3008Z"/></g><defs><clipPath id="clip0"><rect width="79" height="79" fill="#fff"/></clipPath></defs></svg>