<svg width="23" height="22" viewBox="0 0 23 22" fill="none" xmlns="http://www.w3.org/2000/svg">
<path d="M21.08 0.0742188H20.29C20.18 0.0742188 20.08 0.084126 19.98 0.104126C19.87 0.094126 19.77 0.0742188 19.66 0.0742188H4.31002H3.29002H2.06002C1.07002 0.0742188 0.27002 0.874136 0.27002 1.86414V3.01416V18.9941V20.1542C0.27002 21.1442 1.07002 21.9442 2.06002 21.9442H4.31002H11.36L11.37 14.1241H9.29002C9.02002 14.1241 8.80002 13.9142 8.80002 13.6442L8.79002 11.1241C8.79002 10.8541 9.01002 10.6442 9.28002 10.6442H11.36V8.21411C11.36 5.39411 13.13 3.85413 15.71 3.85413H17.83C18.1 3.85413 18.32 4.06411 18.32 4.33411V6.4541C18.32 6.7141 18.1 6.9342 17.83 6.9342H16.53C15.13 6.9342 14.85 7.58419 14.85 8.54419V10.6542H17.94C18.23 10.6542 18.46 10.9042 18.43 11.1942L18.12 13.7141C18.09 13.9541 17.88 14.1342 17.63 14.1342H14.86L14.85 21.9442H19.65C19.76 21.9442 19.86 21.9242 19.97 21.9142C20.07 21.9342 20.17 21.9442 20.28 21.9442H21.07C22.06 21.9442 22.86 21.1442 22.86 20.1542V1.86414C22.87 0.874136 22.07 0.0742188 21.08 0.0742188Z" fill="white"/>
</svg>
