<svg xmlns="http://www.w3.org/2000/svg" width="248" height="248" fill="none" viewBox="0 0 248 248"><path fill="#37395B" d="M228.379 68.6367H19.5727C13.862 68.6367 9.2251 73.2736 9.2251 78.9843V222.435H92.0545C92.0545 225.071 94.1533 227.169 96.789 227.169H151.114C153.749 227.169 155.848 225.071 155.848 222.435H238.726V78.9843C238.726 73.2736 234.089 68.6367 228.379 68.6367Z"/><path fill="#fff" d="M222.18 85.1826H25.7227V205.937H222.18V85.1826Z"/><path fill="url(#paint0_linear)" d="M222.18 85.1826H25.7227V205.937H222.18V85.1826Z"/><path fill="#04283A" d="M155.897 222.436C155.897 225.071 153.749 227.17 151.162 227.17H96.8376C94.2019 227.17 92.1031 225.022 92.1031 222.436H0V232.344C0 240.739 6.78449 247.524 15.1797 247.524H232.82C241.216 247.524 248 240.739 248 232.344V222.436H155.897Z"/><path fill="#FF9E00" d="M123.78 0.498744C99.2292 1.23088 79.0709 22.1701 79.2173 46.77C79.315 58.777 84.0007 69.7103 91.6149 77.8615C99.9125 86.696 105.037 98.0197 105.037 110.124V112.711H145.403V110.124C145.403 98.4102 149.844 87.0864 158.044 78.6912C166.196 70.3936 171.223 59.0699 171.223 46.5259C171.174 20.6082 149.844 -0.282205 123.78 0.498744Z"/><path fill="url(#paint1_linear)" d="M123.78 0.498744C99.2292 1.23088 79.0709 22.1701 79.2173 46.77C79.315 58.777 84.0007 69.7103 91.6149 77.8615C99.9125 86.696 105.037 98.0197 105.037 110.124V112.711H145.403V110.124C145.403 98.4102 149.844 87.0864 158.044 78.6912C166.196 70.3936 171.223 59.0699 171.223 46.5259C171.174 20.6082 149.844 -0.282205 123.78 0.498744Z"/><path fill="#FF6043" d="M144.769 133.114H105.672C105.331 133.114 105.038 132.821 105.038 132.48V112.614H145.403V132.48C145.354 132.821 145.11 133.114 144.769 133.114Z"/><path fill="#FF9E00" d="M115.434 133.114C115.434 133.456 115.483 133.749 115.483 134.042C115.971 138.727 119.924 142.388 124.708 142.388H125.635C128.222 142.388 130.516 141.363 132.175 139.655C133.591 138.19 134.616 136.238 134.811 134.042C134.86 133.749 134.86 133.456 134.86 133.114H115.434Z"/><path fill="url(#paint2_linear)" d="M115.434 133.114C115.434 133.456 115.483 133.749 115.483 134.042C115.971 138.727 119.924 142.388 124.708 142.388H125.635C128.222 142.388 130.516 141.363 132.175 139.655C133.591 138.19 134.616 136.238 134.811 134.042C134.86 133.749 134.86 133.456 134.86 133.114H115.434Z"/><path fill="#fff" d="M144.769 69.5641C143.695 68.4903 141.938 68.4903 140.864 69.5641L125.196 85.2319L109.528 69.5641C108.454 68.4903 106.697 68.4903 105.623 69.5641C104.55 70.6379 104.55 72.3951 105.623 73.4689L122.463 90.3081V112.663H127.978V90.3081L144.817 73.4689C145.842 72.3463 145.842 70.6379 144.769 69.5641Z"/><path fill="#263238" d="M186.424 175.166L190.112 184.068L186.424 185.602L182.714 176.631L176.622 181.356V156.252L194.2 173.999L186.424 175.166Z"/><path fill="#263238" d="M176.622 153.517C176.467 153.116 176.393 152.688 176.405 152.259C176.392 151.829 176.466 151.401 176.622 151C176.782 151.4 176.86 151.828 176.851 152.259C176.855 152.689 176.777 153.116 176.622 153.517Z"/><path fill="#263238" d="M174.447 154.422C173.656 154.06 173.023 153.426 172.66 152.637C173.058 152.806 173.416 153.056 173.714 153.369C174.022 153.671 174.271 154.028 174.447 154.422Z"/><path fill="#263238" d="M173.519 156.596C173.118 156.752 172.69 156.826 172.26 156.813C171.83 156.825 171.401 156.751 171 156.596C171.401 156.437 171.829 156.359 172.26 156.367C172.691 156.358 173.119 156.436 173.519 156.596Z"/><path fill="#263238" d="M174.447 158.77C174.273 159.161 174.024 159.515 173.714 159.811C173.417 160.128 173.058 160.381 172.66 160.555C172.834 160.159 173.083 159.802 173.393 159.502C173.693 159.191 174.051 158.942 174.447 158.77Z"/><path fill="#263238" d="M179.703 156.596C180.103 156.436 180.531 156.358 180.962 156.367C181.393 156.359 181.821 156.437 182.222 156.596C181.821 156.751 181.392 156.825 180.962 156.813C180.532 156.826 180.104 156.752 179.703 156.596Z"/><path fill="#263238" d="M178.798 154.422C178.974 154.028 179.222 153.671 179.531 153.369C179.83 153.058 180.188 152.809 180.584 152.637C180.222 153.426 179.588 154.06 178.798 154.422Z"/><defs><linearGradient id="paint0_linear" x1="291.5" x2="-207.628" y1="67.001" y2="363.349" gradientUnits="userSpaceOnUse"><stop stop-color="#FF6043"/><stop offset="1" stop-color="#fff" stop-opacity="0"/></linearGradient><linearGradient id="paint1_linear" x1="189.72" x2="78.822" y1="-19.84" y2="216.279" gradientUnits="userSpaceOnUse"><stop stop-color="#fff" stop-opacity="0"/><stop offset="1" stop-color="#fff"/></linearGradient><linearGradient id="paint2_linear" x1="142.6" x2="125.147" y1="116.561" y2="142.388" gradientUnits="userSpaceOnUse"><stop stop-color="#fff"/><stop offset="1" stop-color="#fff" stop-opacity="0"/></linearGradient></defs></svg>