<svg width="23" height="23" viewBox="0 0 23 23" fill="none" xmlns="http://www.w3.org/2000/svg">
<path d="M20.54 0.0742188H2.29002C1.18002 0.0742188 0.27002 0.964219 0.27002 2.07422V20.1542C0.27002 21.2542 1.17002 22.1542 2.29002 22.1542H20.54C21.65 22.1542 22.56 21.2642 22.56 20.1542V2.07422C22.56 0.964219 21.66 0.0742188 20.54 0.0742188ZM7.17003 19.1343C7.17003 19.4543 6.91003 19.7142 6.58003 19.7142H4.08003C3.76003 19.7142 3.49002 19.4543 3.49002 19.1343V8.76428C3.49002 8.44428 3.75003 8.1842 4.08003 8.1842H6.58003C6.90003 8.1842 7.17003 8.44428 7.17003 8.76428V19.1343ZM5.34003 7.20422C4.03003 7.20422 2.97003 6.15425 2.97003 4.85425C2.97003 3.55425 4.03003 2.50427 5.34003 2.50427C6.65003 2.50427 7.71002 3.55425 7.71002 4.85425C7.71002 6.15425 6.65003 7.20422 5.34003 7.20422ZM20.22 19.1742C20.22 19.4742 19.98 19.7042 19.68 19.7042H17C16.7 19.7042 16.46 19.4642 16.46 19.1742V14.3142C16.46 13.5842 16.67 11.1343 14.55 11.1343C12.9 11.1343 12.56 12.8142 12.5 13.5642V19.1742C12.5 19.4742 12.26 19.7042 11.96 19.7042H9.37003C9.07003 19.7042 8.83003 19.4642 8.83003 19.1742V8.71423C8.83003 8.41423 9.07003 8.1842 9.37003 8.1842H11.96C12.26 8.1842 12.5 8.42423 12.5 8.71423V9.61426C13.11 8.70426 14.02 8.00427 15.96 8.00427C20.25 8.00427 20.22 11.9742 20.22 14.1542V19.1742Z" fill="white"/>
</svg>
