<svg xmlns="http://www.w3.org/2000/svg" width="70" height="70" fill="none" viewBox="0 0 70 70"><path fill="#FF9E8C" d="M35 8.20312C27.0844 8.20312 20.6445 14.643 20.6445 22.5586C20.6445 27.4727 23.1227 31.9942 27.2736 34.6537C31.5123 37.3693 36.7154 37.658 41.5506 35.4334C42.5794 34.9601 43.0299 33.7422 42.5564 32.7132C42.0831 31.6844 40.8654 31.2339 39.8363 31.7073C36.3007 33.3339 32.5281 33.149 29.4863 31.2002C26.5181 29.2986 24.7461 26.068 24.7461 22.5586C24.7461 16.9046 29.346 12.3047 35 12.3047C40.654 12.3047 45.2539 16.9046 45.2539 22.5586C45.2539 23.6894 44.3339 24.6094 43.2031 24.6094C42.1698 24.6094 41.2046 23.8257 41.1526 22.5898C41.1525 22.5794 41.1523 22.569 41.1523 22.5586C41.1523 19.1662 38.3924 16.4062 35 16.4062C31.6076 16.4062 28.8477 19.1662 28.8477 22.5586C28.8477 25.951 31.6076 28.7109 35 28.7109C36.5745 28.7109 38.0121 28.1158 39.1014 27.1395C40.1907 28.1159 41.6285 28.7109 43.2031 28.7109C46.5955 28.7109 49.3555 25.951 49.3555 22.5586C49.3555 14.643 42.9156 8.20312 35 8.20312ZM37.0219 22.8875C36.8636 23.8622 36.0186 24.6094 35 24.6094C33.8692 24.6094 32.9492 23.6894 32.9492 22.5586C32.9492 21.4278 33.8692 20.5078 35 20.5078C36.0515 20.5078 36.9195 21.3035 37.0364 22.3241C37.0058 22.5105 37.0007 22.7001 37.0219 22.8875Z"/><path fill="#fff" d="M65.7616 26.9303C65.761 26.4 65.5475 25.8699 65.161 25.4834L57.5586 17.881V2.05078C57.5586 0.918203 56.6404 0 55.5078 0H14.4922C13.3596 0 12.4414 0.918203 12.4414 2.05078V17.881L4.83902 25.4834C4.83191 25.4905 4.8259 25.4985 4.81893 25.5057C4.43461 25.9016 4.23924 26.4229 4.23842 26.9303C4.23842 26.9317 4.23828 26.9329 4.23828 26.9343V63.8477C4.23828 67.2444 7.00219 70 10.3906 70H59.6094C63.0053 70 65.7617 67.2373 65.7617 63.8477V26.9343C65.7617 26.9329 65.7616 26.9317 65.7616 26.9303ZM57.5586 23.6815L60.8107 26.9336L57.5586 30.1857V23.6815ZM16.543 18.7312C16.543 18.7307 16.543 18.7302 16.543 18.7298V4.10156H53.457V18.7298C53.457 18.7302 53.457 18.7307 53.457 18.7312V34.2873L42.3537 45.3906H27.6463L16.543 34.2873V18.7312ZM12.4414 23.6815V30.1857L9.18928 26.9336L12.4414 23.6815ZM8.33984 62.9982V31.8846L23.8967 47.4414L8.33984 62.9982ZM11.2402 65.8984L27.6463 49.4922H42.3537L58.7598 65.8984H11.2402ZM61.6602 62.9982L46.1033 47.4414L61.6602 31.8846V62.9982Z"/></svg>