<svg xmlns="http://www.w3.org/2000/svg" width="70" height="70" fill="none" viewBox="0 0 70 70"><path fill="#fff" d="M34.8633 2.1875C15.3952 2.1875 0 16.125 0 32.9492C0 40.1163 2.83596 47.06 7.9975 52.5614C9.01879 56.7726 7.77889 61.235 4.7023 64.3115C3.41605 65.5978 4.32647 67.8125 6.15234 67.8125C11.9963 67.8125 17.6291 65.5225 21.8168 61.4864C25.9582 62.9631 30.3404 63.7109 34.8633 63.7109C54.3853 63.7109 70 49.7325 70 32.9492C70 16.1565 54.3745 2.1875 34.8633 2.1875ZM34.8633 59.6367C30.3897 59.6367 26.0768 58.7951 22.0443 57.1892C21.2522 56.8739 20.348 57.081 19.7725 57.7099C17.2955 60.4168 14.0753 62.3044 10.5677 63.172C12.5003 59.4684 12.9943 55.1026 11.8178 50.9664C11.7251 50.6402 11.5529 50.3422 11.3166 50.0989C6.66395 45.3065 4.07422 39.216 4.07422 32.9492C4.07422 18.2488 17.9013 6.26172 34.8633 6.26172C51.9761 6.26172 65.9258 18.2488 65.9258 32.9492C65.9258 47.6496 51.9761 59.6367 34.8633 59.6367Z"/><path fill="#FF9E8C" d="M18.457 26.7969C15.0646 26.7969 12.3047 29.5568 12.3047 32.9492C12.3047 36.3416 15.0646 39.1016 18.457 39.1016C21.8494 39.1016 24.6094 36.3416 24.6094 32.9492C24.6094 29.5568 21.8494 26.7969 18.457 26.7969ZM18.457 35C17.3262 35 16.4062 34.08 16.4062 32.9492C16.4062 31.8184 17.3262 30.8984 18.457 30.8984C19.5878 30.8984 20.5078 31.8184 20.5078 32.9492C20.5078 34.08 19.5878 35 18.457 35Z"/><path fill="#FF9E8C" d="M34.8633 26.7969C31.4709 26.7969 28.7109 29.5568 28.7109 32.9492C28.7109 36.3416 31.4709 39.1016 34.8633 39.1016C38.2557 39.1016 41.0156 36.3416 41.0156 32.9492C41.0156 29.5568 38.2557 26.7969 34.8633 26.7969ZM34.8633 35C33.7325 35 32.8125 34.08 32.8125 32.9492C32.8125 31.8184 33.7325 30.8984 34.8633 30.8984C35.9941 30.8984 36.9141 31.8184 36.9141 32.9492C36.9141 34.08 35.9941 35 34.8633 35Z"/><path fill="#FF9E8C" d="M51.543 26.7969C48.1506 26.7969 45.3906 29.5568 45.3906 32.9492C45.3906 36.3416 48.1506 39.1016 51.543 39.1016C54.9354 39.1016 57.6953 36.3416 57.6953 32.9492C57.6953 29.5568 54.9354 26.7969 51.543 26.7969ZM51.543 35C50.4122 35 49.4922 34.08 49.4922 32.9492C49.4922 31.8184 50.4122 30.8984 51.543 30.8984C52.6738 30.8984 53.5938 31.8184 53.5938 32.9492C53.5938 34.08 52.6738 35 51.543 35Z"/></svg>