<svg width="100" height="100" viewBox="0 0 100 100" fill="none" xmlns="http://www.w3.org/2000/svg">
<path d="M92.0882 27.676H7.89213C5.58944 27.676 3.71973 29.5457 3.71973 31.8484V89.6913H37.1187C37.1187 90.7541 37.965 91.6004 39.0277 91.6004H60.9329C61.9957 91.6004 62.8419 90.7541 62.8419 89.6913H96.2606V31.8484C96.2606 29.5457 94.3909 27.676 92.0882 27.676Z" fill="#37395B"/>
<path d="M89.5888 34.3476H10.3721V83.0388H89.5888V34.3476Z" fill="white"/>
<path d="M62.8616 89.6917C62.8616 90.7544 61.9957 91.6007 60.9526 91.6007H39.0474C37.9846 91.6007 37.1384 90.7348 37.1384 89.6917H0V93.6869C0 97.0721 2.73568 99.8078 6.12084 99.8078H93.8792C97.2643 99.8078 100 97.0721 100 93.6869V89.6917H62.8616Z" fill="#04283A"/>
<path d="M49.9116 0.201177C40.012 0.496395 31.8837 8.93961 31.9427 18.8589C31.9821 23.7005 33.8715 28.1091 36.9417 31.3958C40.2875 34.9581 42.354 39.5241 42.354 44.4051V45.4482H58.6304V44.4051C58.6304 39.6816 60.4214 35.1156 63.7278 31.7304C67.0145 28.3846 69.0417 23.8186 69.0417 18.7605C69.022 8.30982 60.4214 -0.113721 49.9116 0.201177Z" fill="#FF9E00"/>
<path d="M49.9116 0.201177C40.012 0.496395 31.8837 8.93961 31.9427 18.8589C31.9821 23.7005 33.8715 28.1091 36.9417 31.3958C40.2875 34.9581 42.354 39.5241 42.354 44.4051V45.4482H58.6304V44.4051C58.6304 39.6816 60.4214 35.1156 63.7278 31.7304C67.0145 28.3846 69.0417 23.8186 69.0417 18.7605C69.022 8.30982 60.4214 -0.113721 49.9116 0.201177Z" fill="url(#paint0_linear)"/>
<path d="M58.3745 53.6752H42.6099C42.4721 53.6752 42.354 53.5571 42.354 53.4193V45.4091H58.6303V53.4193C58.6106 53.5571 58.5122 53.6752 58.3745 53.6752Z" fill="#FF6043"/>
<path d="M46.5459 53.6751C46.5459 53.8129 46.5656 53.931 46.5656 54.0491C46.7624 55.9384 48.3566 57.4145 50.2853 57.4145H50.6593C51.7024 57.4145 52.6274 57.0012 53.2965 56.3124C53.8673 55.722 54.2806 54.9347 54.3593 54.0491C54.379 53.931 54.379 53.8129 54.379 53.6751H46.5459Z" fill="#FF9E00"/>
<path d="M46.5459 53.6751C46.5459 53.8129 46.5656 53.931 46.5656 54.0491C46.7624 55.9384 48.3566 57.4145 50.2853 57.4145H50.6593C51.7024 57.4145 52.6274 57.0012 53.2965 56.3124C53.8673 55.722 54.2806 54.9347 54.3593 54.0491C54.379 53.931 54.379 53.8129 54.379 53.6751H46.5459Z" fill="url(#paint1_linear)"/>
<path d="M58.3742 28.0499C57.9412 27.6169 57.2327 27.6169 56.7997 28.0499L50.482 34.3676L44.1644 28.0499C43.7314 27.6169 43.0229 27.6169 42.5899 28.0499C42.1569 28.4829 42.1569 29.1914 42.5899 29.6244L49.3799 36.4144V45.4284H51.6039V36.4144L58.3939 29.6244C58.8072 29.1718 58.8072 28.4829 58.3742 28.0499Z" fill="white"/>
<defs>
<linearGradient id="paint0_linear" x1="76.5001" y1="-7.99975" x2="44.5001" y2="49.5002" gradientUnits="userSpaceOnUse">
<stop stop-color="white"/>
<stop offset="1" stop-color="white" stop-opacity="0"/>
</linearGradient>
<linearGradient id="paint1_linea r" x1="57.5" y1="47.0003" x2="50.4624" y2="57.4145" gradientUnits="userSpaceOnUse">
<stop stop-color="white"/>
<stop offset="1" stop-color="white" stop-opacity="0"/>
</linearGradient>
</defs>
</svg>
