<svg xmlns="http://www.w3.org/2000/svg" width="111" height="111" fill="none" viewBox="0 0 111 111"><g clip-path="url(#clip0)"><path fill="#F2F2F2" d="M103.98 73.6284C98.5378 68.1865 90.9324 66.2633 83.9389 67.7932L43.005 26.8593C44.5349 19.8658 42.6117 12.2604 37.1698 6.81857C31.3346 0.983366 22.9861 -0.852428 15.5774 1.3549L29.1055 14.883L25.2809 25.6792L14.5065 29.4819L0.978461 15.9538C-1.22886 23.3626 0.585077 31.6892 6.44214 37.5463C11.884 42.9881 19.4894 44.9113 26.4829 43.3815L67.4167 84.3372C65.8869 91.3307 67.8101 98.9361 73.2519 104.378C79.0872 110.213 87.4356 112.049 94.8444 109.842L81.3163 96.3135L85.119 85.5173L95.9153 81.7146L109.443 95.2427C111.651 87.8121 109.837 79.4636 103.98 73.6284Z"/><path fill="url(#paint0_linear)" d="M103.98 73.6284C98.5378 68.1865 90.9324 66.2633 83.9389 67.7932L43.005 26.8593C44.5349 19.8658 42.6117 12.2604 37.1698 6.81857C31.3346 0.983366 22.9861 -0.852428 15.5774 1.3549L29.1055 14.883L25.2809 25.6792L14.5065 29.4819L0.978461 15.9538C-1.22886 23.3626 0.585077 31.6892 6.44214 37.5463C11.884 42.9881 19.4894 44.9113 26.4829 43.3815L67.4167 84.3372C65.8869 91.3307 67.8101 98.9361 73.2519 104.378C79.0872 110.213 87.4356 112.049 94.8444 109.842L81.3163 96.3135L85.119 85.5173L95.9153 81.7146L109.443 95.2427C111.651 87.8121 109.837 79.4636 103.98 73.6284Z"/><path fill="#F2705B" d="M27.3352 107.372L27.0292 107.416L26.8762 107.438L0.147949 111L3.6447 84.2065L3.66656 83.9879L3.68841 83.8131L66.9577 20.3908L69.471 17.8775L71.0446 16.304L94.6477 39.907L93.0741 41.4806L90.5827 43.9939L27.3352 107.372Z"/><path fill="#FF6043" d="M67.5916 19.7563L66.9578 20.3901L3.68848 83.8125L3.66663 83.9873L3.64478 84.2058L11.3158 91.8768L75.5249 27.6677L67.5916 19.7563Z"/><path fill="url(#paint1_linear)" d="M67.5916 19.7563L66.9578 20.3901L3.68848 83.8125L3.66663 83.9873L3.64478 84.2058L11.3158 91.8768L75.5249 27.6677L67.5916 19.7563Z"/><path fill="#FF6043" d="M83.349 35.5139L19.1399 99.723L26.8765 107.438L27.0294 107.416L27.3354 107.372L91.2822 43.4253L83.349 35.5139Z"/><path fill="url(#paint2_linear)" d="M83.349 35.5139L19.1399 99.723L26.8765 107.438L27.0294 107.416L27.3354 107.372L91.2822 43.4253L83.349 35.5139Z"/><path fill="#FF6043" d="M19.214 99.757L83.4225 35.5486L75.495 27.6211L11.2865 91.8296L19.214 99.757Z"/><path fill="#8E0A3D" d="M98.2538 36.3007L74.6508 12.6976L85.8841 1.44241C87.8073 -0.480803 90.9325 -0.480803 92.8557 1.44241L109.487 18.052C111.41 19.9752 111.41 23.1004 109.487 25.0236L98.2538 36.3007Z"/><path fill="#F2F2F2" d="M90.5829 43.9939L66.958 20.3909L74.629 12.698L98.2539 36.3011L90.5829 43.9939Z"/><path fill="#FF9E00" d="M27.0292 107.415L0.147949 111L3.66656 83.9872C5.74275 83.5501 7.99378 84.1401 9.61103 85.7574C11.272 87.4183 11.8402 89.7349 11.3376 91.8767C13.4575 91.374 15.7959 91.9423 17.4569 93.6032C19.1178 95.2642 19.686 97.5808 19.1834 99.7225C21.3033 99.2199 23.6417 99.7881 25.3027 101.449C26.8981 103.023 27.4882 105.317 27.0292 107.415Z"/><path fill="#04283A" d="M10.1574 109.667L0.147949 111L1.45923 100.859C3.36059 101.602 5.13082 102.717 6.6825 104.269C8.2779 105.842 9.4362 107.678 10.1574 109.667Z"/></g><defs><linearGradient id="paint0_linear" x1="57.478" x2="55.211" y1="-65.674" y2="110.746" gradientUnits="userSpaceOnUse"><stop stop-color="#C5C5C5" stop-opacity=".53"/><stop offset="1" stop-color="#fff" stop-opacity="0"/></linearGradient><linearGradient id="paint1_linear" x1="39.585" x2="39.585" y1="19.756" y2="91.877" gradientUnits="userSpaceOnUse"><stop stop-color="#FA3B3B"/><stop offset="1" stop-color="#FF6043" stop-opacity="0"/></linearGradient><linearGradient id="paint2_linear" x1="55.211" x2="55.211" y1="35.514" y2="107.438" gradientUnits="userSpaceOnUse"><stop stop-color="#FA3B3B"/><stop offset="1" stop-color="#FF6043" stop-opacity="0"/></linearGradient><clipPath id="clip0"><rect width="111" height="111" fill="#fff"/></clipPath></defs></svg>