<svg xmlns="http://www.w3.org/2000/svg" width="101" height="101" fill="none" viewBox="0 0 101 101"><path fill="#37395B" d="M100.991 61.9795V39.0205L90.7932 36.5357C90.2366 34.9256 89.6005 33.3751 88.8651 31.8644L94.3116 22.9193L78.0713 6.679L69.1262 12.1256C67.6155 11.3901 66.0451 10.754 64.4549 10.1974L61.9702 0H39.0111L36.5263 10.1974C34.9162 10.754 33.3657 11.3901 31.855 12.1256L22.9099 6.679L6.66962 22.9193L12.1162 31.8644C11.3807 33.3751 10.7446 34.9455 10.188 36.5357L0.010498 39.0205V61.9795L10.2079 64.4643C10.7645 66.0744 11.4006 67.6249 12.1361 69.1356L6.6895 78.0807L22.9298 94.321L31.8749 88.8744C33.3856 89.6099 34.956 90.246 36.5462 90.8026L39.031 101H61.99L64.4748 90.8026C66.0849 90.246 67.6354 89.6099 69.1461 88.8744L78.0912 94.321L94.3315 78.0807L88.8849 69.1356C89.6204 67.6249 90.2565 66.0545 90.8131 64.4643L100.991 61.9795Z"/><path fill="#C2EDFF" d="M81.1517 45.1627C81.0921 44.8446 81.0325 44.5266 80.9728 44.2284C78.4285 31.7053 68.3503 21.9452 55.6682 19.8183C54.7339 19.6592 53.7996 19.5598 52.8455 19.4803C52.0703 19.4207 51.295 19.4008 50.4999 19.4008C48.5519 19.4008 46.6436 19.5797 44.7949 19.9176C44.6955 19.9375 44.616 19.9574 44.5166 19.9773C36.7841 21.488 30.0852 25.8413 25.5729 31.9041C25.2151 32.3613 24.8971 32.8185 24.579 33.2955C21.2992 38.2054 19.3909 44.129 19.3909 50.49C19.3909 67.6645 33.3253 81.599 50.4999 81.599C67.6944 81.599 81.6089 67.6645 81.6089 50.49C81.6089 48.6612 81.4499 46.8921 81.1517 45.1627Z"/><path fill="url(#paint0_linear)" d="M81.1517 45.1627C81.0921 44.8446 81.0325 44.5266 80.9728 44.2284C78.4285 31.7053 68.3503 21.9452 55.6682 19.8183C54.7339 19.6592 53.7996 19.5598 52.8455 19.4803C52.0703 19.4207 51.295 19.4008 50.4999 19.4008C48.5519 19.4008 46.6436 19.5797 44.7949 19.9176C44.6955 19.9375 44.616 19.9574 44.5166 19.9773C36.7841 21.488 30.0852 25.8413 25.5729 31.9041C25.2151 32.3613 24.8971 32.8185 24.579 33.2955C21.2992 38.2054 19.3909 44.129 19.3909 50.49C19.3909 67.6645 33.3253 81.599 50.4999 81.599C67.6944 81.599 81.6089 67.6645 81.6089 50.49C81.6089 48.6612 81.4499 46.8921 81.1517 45.1627Z"/><path fill="#7CAA36" d="M48.8302 25.2648C48.7905 26.2587 47.3791 26.3184 46.4449 26.6762C45.7889 26.9346 45.2721 27.4713 44.7552 27.9682C43.5824 29.0814 42.2506 30.0355 40.8194 30.8108C39.3484 31.6059 37.2811 32.1227 36.1878 30.8505C39.7062 29.3994 42.3898 26.219 43.6023 22.6211C41.9127 23.5553 40.6206 25.0462 39.1298 26.2985C37.46 27.7098 35.5319 28.7832 33.9217 30.2542C32.3116 31.7252 30.9997 33.7527 31.0792 35.9194C31.0593 34.6671 30.304 33.4943 29.2504 32.8185C28.1969 32.1227 26.9247 31.8643 25.6724 31.8842C25.6326 31.8842 25.5929 31.8842 25.573 31.8842C30.0853 25.8015 36.7842 21.4482 44.5167 19.9574C44.6161 19.9375 44.6956 19.9176 44.795 19.8978C45.1727 21.488 46.1865 22.9192 47.5779 23.7938C48.1345 24.1715 48.87 24.589 48.8302 25.2648Z"/><path fill="#7CAA36" d="M55.6483 19.8185C56.4036 20.2558 57.159 20.713 57.6758 21.3888C57.815 21.5677 57.9541 21.8062 57.9143 22.0249C57.815 22.5815 56.9602 22.4622 56.4434 22.7008C55.5687 23.0983 55.8669 24.4898 56.6422 25.0464C57.4373 25.6029 58.451 25.6825 59.3058 26.1198C59.6437 26.2788 59.9618 26.5968 59.922 26.9546C59.9021 27.1534 59.763 27.3124 59.6239 27.4715C58.6101 28.6244 57.5764 29.7773 56.5626 30.9302C56.3042 31.2085 56.0259 31.5266 55.6681 31.6856C55.2109 31.9241 54.6742 31.9043 54.1375 31.8844C52.1497 31.8247 49.665 32.2621 49.1482 34.1703C49.0289 34.6474 49.0289 35.1841 48.691 35.5419C48.3928 35.8799 47.876 35.9594 47.6176 36.3569C47.2399 36.9533 47.7766 37.6887 47.876 38.4044C48.035 39.5175 46.723 40.5512 45.6894 40.1337C45.6496 38.9212 45.6099 37.7086 45.59 36.5159C45.59 36.3172 45.5701 36.0985 45.4707 35.9395C45.3515 35.7407 45.1129 35.6612 44.8744 35.6016C43.7215 35.2438 42.2903 35.0052 41.515 35.8997C40.7199 36.7942 41.1175 38.2056 41.7536 39.2194C42.3897 40.2133 43.2444 41.2071 43.2842 42.3998C43.304 42.9962 43.0059 43.6521 42.4493 43.7714C41.6144 43.9503 41.0578 42.8769 41.0181 42.0023C39.9248 44.2485 39.5471 46.8326 40.0043 49.3174C38.255 49.7547 36.5256 50.2119 34.7764 50.6293C34.1403 50.7883 33.4644 50.9871 33.047 51.5039C32.6494 52.0009 32.6097 52.6767 32.6296 53.293C32.6494 55.4398 33.206 57.5667 34.1999 59.4551C34.5577 60.0912 34.9553 60.7472 35.5516 61.1845C37.1816 62.4169 39.5272 61.7808 41.4951 62.3176C43.1848 62.7946 44.5166 64.1264 45.3713 65.6571C46.2062 67.1877 46.6435 68.917 47.0411 70.6265C47.22 71.4217 47.4188 72.2565 47.9952 72.833C48.6512 73.5089 49.6451 73.6878 50.5595 73.8269C52.1299 74.0853 53.8394 74.304 55.2308 73.5287C56.4235 72.8529 57.1789 71.5409 58.451 71.0639C59.3058 70.7458 60.2798 70.8452 61.1743 70.6464C62.0688 70.4476 63.0031 69.6724 62.8043 68.758C62.6254 67.9033 61.4725 67.287 61.7309 66.4522C61.9098 65.8757 62.6254 65.7167 63.182 65.5179C65.7463 64.6433 67.1178 61.264 65.8655 58.8588C65.6668 58.4811 65.4083 58.1034 65.3885 57.6661C65.2891 56.3542 67.1178 55.9168 68.0124 54.9428C68.8273 54.0682 68.8472 52.7364 68.9665 51.5636C69.0858 50.3709 69.543 49.0192 70.6959 48.6813C71.809 48.3433 72.9421 49.218 73.6179 50.1522C74.2938 51.1064 74.8106 52.2195 75.7846 52.8556C75.8045 50.8082 75.8443 48.721 75.8642 46.6736C75.8642 45.9381 75.9039 45.143 76.381 44.5665C77.1761 43.6124 78.6669 43.8509 79.8994 44.1093C80.2969 44.2087 80.7343 44.2684 81.1119 44.2286C78.4085 31.7055 68.3304 21.9255 55.6483 19.8185ZM61.7707 40.0145L61.8899 39.9747C62.2477 39.9747 62.5658 39.9946 62.9236 40.0145C62.7447 40.75 62.9633 41.565 63.4603 42.1414C63.679 42.3998 63.9572 42.5986 64.1759 42.857C64.7126 43.4732 64.8915 44.4075 64.5933 45.1629C63.9374 45.2225 63.2416 45.2623 62.5857 45.1032C61.9496 44.9442 61.3135 44.5268 61.0352 43.9304C60.8762 43.5527 60.8563 43.1353 60.8364 42.7179C60.7966 41.7041 60.896 40.5114 61.7707 40.0145ZM52.587 50.6889C51.5733 50.51 50.6986 49.8739 49.8041 49.377C48.4922 48.6813 47.0013 48.3036 45.5105 48.2837C44.9937 48.2638 44.457 48.3235 43.9401 48.1843C43.4233 48.0452 42.9462 47.7072 42.7872 47.2103C42.6083 46.5742 43.0456 45.8983 43.6022 45.5207C44.1389 45.143 44.7949 44.9442 45.3316 44.5665L45.431 43.5726C46.6237 44.7852 48.0946 45.7194 49.6849 46.3357C50.4402 46.6338 51.2552 46.8326 52.0503 46.9121C52.9051 46.9916 53.7598 46.932 54.5947 46.8724C54.873 46.8326 55.1513 46.8127 55.4296 46.8127C56.0061 46.773 56.5825 46.7133 57.159 46.6736C57.8348 46.6338 58.5703 46.5543 59.1269 46.1369C59.3456 46.9916 58.948 47.8861 58.3318 48.5024C57.7156 49.0987 56.9204 49.4963 56.1253 49.8541C55.0122 50.351 53.7996 50.8877 52.587 50.6889ZM64.5933 56.7716C64.5337 56.9704 64.4542 57.1493 64.2753 57.2487C64.156 57.3282 64.0169 57.3481 63.8579 57.3481C62.5459 57.527 61.0551 57.6661 60.0214 56.8312C59.5443 56.4536 59.2263 55.897 58.9082 55.3801C58.4908 54.6844 58.1131 53.9887 57.6957 53.3128C57.2782 52.6171 56.8608 51.8419 57.0596 51.0467C57.6758 50.9672 58.3318 51.007 58.948 51.1461L59.1269 51.3449C58.9082 51.8419 59.1468 52.4382 59.5245 52.8159C59.9021 53.1936 60.419 53.4122 60.9159 53.611C61.3334 53.7899 61.7707 53.9489 62.1881 54.1278C62.7844 54.3664 63.4007 54.6248 63.8976 55.0621C64.4144 55.4795 64.7524 56.1355 64.5933 56.7716ZM66.8793 50.2317C66.76 50.351 66.6209 50.4305 66.442 50.4703C65.2096 50.8877 63.6988 49.8938 63.5796 48.5819L63.7783 48.4229C64.6927 48.4229 65.6071 48.4229 66.5215 48.4229C66.6805 48.4229 66.8594 48.4229 66.9986 48.5222C67.1178 48.6415 67.1576 48.8204 67.1576 48.9993C67.1775 49.4366 67.1974 49.9336 66.8793 50.2317Z"/><defs><linearGradient id="paint0_linear" x1="19.48" x2="81.698" y1="19.48" y2="95.713" gradientUnits="userSpaceOnUse"><stop stop-color="#4A50AE" stop-opacity=".4"/><stop offset="1" stop-color="#fff" stop-opacity="0"/></linearGradient></defs></svg>