<svg width="70" height="70" viewBox="0 0 70 70" fill="none" xmlns="http://www.w3.org/2000/svg">
<path d="M64.7999 51.9175L56.1378 42.9549C56.1298 42.9466 56.1216 42.9382 56.1134 42.93C53.709 40.5257 49.8178 40.5254 47.4133 42.93L43.4586 46.8846C41.6373 48.706 38.6893 48.7062 36.8678 46.8846C36.867 46.8838 36.8661 46.8829 36.8653 46.8821L23.1124 33.4545C21.291 31.6331 21.2908 28.685 23.1124 26.8635L27.067 22.909C29.4657 20.5104 29.4657 16.6075 27.067 14.2089L18.3669 5.5088C15.9682 3.11035 12.0654 3.11035 9.66681 5.5088C9.66599 5.50962 6.76619 8.40956 6.76687 8.40874C6.76619 8.40956 6.50396 8.67164 6.50328 8.67247C-2.16577 17.3414 -2.16891 31.3732 6.50465 40.0468L30.2769 63.4937C38.9266 72.1435 52.9348 72.1757 61.6193 63.5242C61.6669 63.4803 64.7403 60.6494 64.7861 60.6036C67.1799 58.2095 67.1846 54.3172 64.7999 51.9175ZM12.5669 8.40874C13.3664 7.60921 14.6673 7.60921 15.4668 8.40874L24.1669 17.1088C24.9683 17.9104 24.9685 19.2073 24.1669 20.0089L22.717 21.4588L11.1168 9.85877L12.5669 8.40874ZM33.1754 60.5924L9.40322 37.1455C2.70428 30.4464 2.38655 19.8827 8.2716 12.8135L19.831 24.3729C16.8034 27.8102 16.9293 33.0714 20.2149 36.357L33.9703 49.7871C37.258 53.0722 42.5024 53.2074 45.9496 50.1662L57.508 61.7247C50.3691 67.6549 39.869 67.2859 33.1754 60.5924ZM61.9104 57.6788L60.5322 58.9488L48.8633 47.2798L50.3132 45.8299C51.1121 45.0312 52.4015 45.0288 53.203 45.8197C53.219 45.8362 61.8698 54.7872 61.886 54.8033C62.6775 55.5949 62.6856 56.8775 61.9104 57.6788Z" fill="white"/>
<path d="M35.1395 0.00292969C34.0071 0.00292969 33.0889 0.921131 33.0889 2.05357C33.0889 3.18601 34.0071 4.10421 35.1395 4.10421C52.1003 4.10421 65.8988 17.9028 65.8988 34.8635C65.8988 35.996 66.817 36.9142 67.9495 36.9142C69.0819 36.9142 70.0001 35.9961 70.0001 34.8635C70.0001 15.5959 54.4086 0.00292969 35.1395 0.00292969Z" fill="#FF9E8C"/>
<path d="M35.1395 8.20508C34.0071 8.20508 33.0889 9.12328 33.0889 10.2557C33.0889 11.3882 34.0071 12.3064 35.1395 12.3064C47.5773 12.3064 57.6964 22.4253 57.6964 34.8633C57.6964 35.9957 58.6146 36.9139 59.7471 36.9139C60.8795 36.9139 61.7977 35.9958 61.7977 34.8633C61.7977 20.164 49.8388 8.20508 35.1395 8.20508Z" fill="#FF9E8C"/>
<path d="M35.1395 16.4072C34.0071 16.4072 33.0889 17.3254 33.0889 18.4579C33.0889 19.5903 34.0071 20.5085 35.1395 20.5085C43.0545 20.5085 49.4939 26.9478 49.4939 34.8628C49.4939 35.9953 50.4121 36.9135 51.5445 36.9135C52.6769 36.9135 53.5951 35.9954 53.5951 34.8628C53.5951 24.6863 45.316 16.4072 35.1395 16.4072Z" fill="#FF9E8C"/>
<path d="M35.1395 24.6104C34.0071 24.6104 33.0889 25.5286 33.0889 26.661C33.0889 27.7934 34.0071 28.7116 35.1395 28.7116C38.5316 28.7116 41.2914 31.4713 41.2914 34.8635C41.2914 35.996 42.2096 36.9142 43.3421 36.9142C44.4745 36.9142 45.3927 35.9961 45.3927 34.8635C45.3926 29.21 40.7931 24.6104 35.1395 24.6104Z" fill="#FF9E8C"/>
</svg>
