<svg width="80" height="80" viewBox="0 0 80 80" fill="none" xmlns="http://www.w3.org/2000/svg">
<g clip-path="url(#clip0)">
<path d="M66.7879 0H13.2131C10.9927 0 9.18164 1.81102 9.18164 4.0315C9.18164 6.25197 10.9927 8.06299 13.2131 8.06299H66.7879C69.0084 8.06299 70.8194 6.25197 70.8194 4.0315C70.8194 1.81102 69.0084 0 66.7879 0Z" fill="#37395B"/>
<path d="M13.2131 71.9375H66.7879C69.0084 71.9375 70.8194 73.7485 70.8194 75.969C70.8194 78.1895 69.0084 80.0005 66.7879 80.0005H13.2131C10.9927 80.0005 9.18164 78.1895 9.18164 75.969C9.18164 73.7328 10.9927 71.9375 13.2131 71.9375Z" fill="#37395B"/>
<path d="M62.63 13.0546V8.0625H17.3701V13.0546C17.3701 24.1885 24.189 34.346 35.0552 39.9838C24.189 45.6373 17.3701 55.7948 17.3701 66.9286V71.9208H62.63V66.9286C62.63 55.7948 55.8111 45.6373 44.9607 39.9995C55.8268 34.346 62.63 24.1885 62.63 13.0546Z" fill="#F2F2F2"/>
<path d="M24.5825 64.8189C25.4487 56.6614 31.2282 49.4016 39.9998 45.4961C48.7557 49.4016 54.551 56.6614 55.4172 64.8189H24.5825Z" fill="#FF6043"/>
<path d="M24.5825 64.8189C25.4487 56.6614 31.2282 49.4016 39.9998 45.4961C48.7557 49.4016 54.551 56.6614 55.4172 64.8189H24.5825Z" fill="url(#paint0_linear)"/>
</g>
<defs>
<linearGradient id="paint0_linear" x1="40" y1="40.5" x2="39.9998" y2="64.8189" gradientUnits="userSpaceOnUse">
<stop stop-color="#E24E32"/>
<stop offset="1" stop-color="#FF6245" stop-opacity="0"/>
</linearGradient>
<clipPath id="clip0">
<rect width="80" height="80" fill="white"/>
</clipPath>
</defs>
</svg>
