<svg xmlns="http://www.w3.org/2000/svg" width="291" height="291" fill="none" viewBox="0 0 291 291"><g clip-path="url(#clip0)" opacity=".3"><path fill="#FF6043" d="M199.651 218.669L218.686 199.635L198.638 179.588L179.604 198.622L199.651 218.669Z"/><path fill="#FF6043" d="M195.209 33.4629C150.649 -11.1543 78.0811 -11.1543 33.4639 33.4629C-11.096 78.0229 -11.096 150.59 33.4639 195.208C78.0239 239.768 150.591 239.768 195.209 195.208C239.826 150.648 239.768 78.0229 195.209 33.4629Z"/><path fill="#37395B" d="M282.323 240.397L246.24 204.314C234.67 192.744 215.941 192.744 204.372 204.314C192.802 215.883 192.802 234.612 204.372 246.182L240.455 282.265C252.024 293.835 270.753 293.835 282.323 282.265C293.835 270.753 293.835 251.967 282.323 240.397Z"/><path fill="#37395B" d="M282.323 282.323C270.753 293.893 252.024 293.893 240.455 282.323L282.323 240.455C293.835 251.967 293.835 270.754 282.323 282.323Z"/><path fill="#fff" d="M178.14 178.141C142.973 213.308 85.6978 213.365 50.5309 178.141C15.364 142.974 15.364 85.6989 50.5309 50.4748C85.6978 15.3079 142.973 15.3079 178.14 50.4748C213.306 85.6989 213.306 142.917 178.14 178.141Z"/><path fill="#04283A" d="M88.2178 145.437L56.6021 113.821L88.2178 82.2051L96.1218 90.109L72.41 113.821L96.1218 137.533L88.2178 145.437Z"/><path fill="#04283A" d="M140.452 145.437L132.491 137.533L156.203 113.821L132.491 90.109L140.452 82.2051L172.068 113.821L140.452 145.437Z"/><path fill="#04283A" d="M99.5753 149.097L110.445 151.898L129.1 79.5273L118.231 76.7255L99.5753 149.097Z"/></g><defs><clipPath id="clip0"><rect width="291" height="291" fill="#fff"/></clipPath></defs></svg>