<svg width="68" height="68" viewBox="0 0 68 68" fill="none" xmlns="http://www.w3.org/2000/svg">
<path d="M61.9898 12.0205V25.5134C61.9898 43.9992 50.9866 60.7047 34 68C17.0134 60.7047 6.01025 43.9992 6.01025 25.5134V12.0205C16.1433 10.2937 25.7276 6.17087 33.9599 0.0267717L34 0L34.0402 0.0267717C42.2725 6.18425 51.8567 10.2937 61.9898 12.0205Z" fill="#04283A"/>
<path d="M54.8551 33.5185C55.3906 30.9217 55.6583 28.2445 55.6583 25.5138V17.1477C47.9882 15.2201 40.6394 12.0209 34 7.69727V33.5185H54.8551Z" fill="#FF6043"/>
<path d="M54.8551 33.5186H34V61.013C44.8559 55.4445 52.4591 45.2847 54.8551 33.5186Z" fill="#F2F2F2"/>
<path d="M33.9999 7.69727C27.3605 12.0075 20.0117 15.2201 12.3282 17.1477V25.5138C12.3282 28.2445 12.6093 30.9217 13.1314 33.5185H33.9999V7.69727Z" fill="#F2F2F2"/>
<path d="M13.1449 33.5186C15.541 45.2847 23.1575 55.4445 34 61.013V33.5186H13.1449Z" fill="#FF6043"/>
</svg>
