<svg xmlns="http://www.w3.org/2000/svg" width="40" height="40" fill="none" viewBox="0 0 40 40"><path fill="#04283A" fill-rule="evenodd" d="M39.2185 15.4635H36.9383C36.5424 13.9812 35.9541 12.5625 35.1835 11.2319L36.7973 9.61817C37.1024 9.31299 37.1024 8.81831 36.7973 8.51313L31.4866 3.2025C31.1815 2.89763 30.6871 2.89732 30.3816 3.2025L28.7678 4.81626C27.4367 4.04569 26.0182 3.45732 24.5366 3.06151V0.781245C24.5366 0.349729 24.1866 0 23.7554 0H16.2444C15.8132 0 15.4632 0.349729 15.4632 0.781245V3.06151C13.9812 3.45732 12.5625 4.04569 11.2319 4.81626L9.61817 3.2025C9.31299 2.89763 8.81831 2.89763 8.51313 3.2025L3.2025 8.51313C2.89732 8.81831 2.89732 9.31299 3.2025 9.61817L4.81626 11.2319C4.04539 12.5637 3.45701 13.9822 3.06151 15.4635H0.781245C0.349729 15.4635 0 15.8132 0 16.2447V23.7554C0 24.1866 0.349729 24.5366 0.781245 24.5366H3.06151C3.45762 26.0185 4.046 27.4373 4.81626 28.7678L3.2025 30.3816C2.89763 30.6868 2.89763 31.1815 3.2025 31.4866L8.51344 36.7973C8.65992 36.9438 8.85859 37.0262 9.0658 37.0262C9.27302 37.0262 9.47169 36.9438 9.61817 36.7973L11.2319 35.1835C12.5637 35.9544 13.9822 36.5428 15.4635 36.9383V39.2185C15.4635 39.65 15.8132 39.9998 16.2447 39.9998H16.8749C17.3064 39.9998 17.6561 39.65 17.6561 39.2185C17.6561 38.8386 17.3852 38.5221 17.026 38.4519V36.3273C17.026 35.9629 16.7742 35.6471 16.419 35.5659C14.6862 35.1689 13.0404 34.4865 11.5267 33.5371C11.2185 33.3436 10.8169 33.3888 10.5593 33.6464L9.0658 35.1402L4.8599 30.934L6.35342 29.4404C6.61098 29.1829 6.65646 28.7816 6.46267 28.4727C5.51388 26.9609 4.83151 25.3148 4.43387 23.5805C4.35239 23.2256 4.03654 22.9738 3.67246 22.9738H1.56249V17.0257H3.67246C4.03684 17.0257 4.3527 16.7739 4.43387 16.4187C4.8309 14.6862 5.51327 13.0401 6.46267 11.5267C6.65646 11.2182 6.61098 10.8166 6.35342 10.559L4.8599 9.0655L9.0658 4.85959L10.5593 6.35311C10.8172 6.61068 11.2185 6.65585 11.527 6.46267C13.0392 5.51388 14.685 4.83121 16.4193 4.43387C16.7742 4.35239 17.026 4.03654 17.026 3.67216V1.56249H22.9741V3.67246C22.9741 4.03654 23.2259 4.35239 23.5808 4.43387C25.3145 4.83121 26.9606 5.51388 28.473 6.46267C28.7816 6.65615 29.1829 6.61098 29.4407 6.35342L30.9343 4.85959L35.1405 9.0658L33.6467 10.5593C33.3891 10.8169 33.3436 11.2185 33.5374 11.527C34.4862 13.0389 35.1686 14.685 35.5662 16.4193C35.6477 16.7742 35.9635 17.026 36.3276 17.026H38.4373V22.9741H36.3273C35.9632 22.9741 35.6474 23.2259 35.5659 23.5811C35.1692 25.3139 34.4865 26.9597 33.5371 28.473C33.3436 28.7816 33.3891 29.1832 33.6464 29.4407L35.1402 30.9343L30.9343 35.1402L29.4404 33.6467C29.1829 33.3891 28.7813 33.3436 28.4727 33.5374C26.9606 34.4862 25.3148 35.1686 23.5808 35.5659C23.2256 35.6474 22.9738 35.9632 22.9738 36.3276V38.4519C22.6146 38.5224 22.3436 38.8389 22.3436 39.2188C22.3436 39.65 22.6933 40.0001 23.1249 40.0001H23.7551C24.1866 40.0001 24.5363 39.65 24.5363 39.2188V36.9386C26.0185 36.5428 27.437 35.9544 28.7678 35.1838L30.3816 36.7976C30.6868 37.1024 31.1815 37.1024 31.4866 36.7976L36.7973 31.4869C37.1024 31.1818 37.1024 30.6871 36.7973 30.3819L35.1835 28.7681C35.9544 27.4364 36.5428 26.0179 36.9383 24.5366H39.2185C39.65 24.5366 39.9998 24.1869 39.9998 23.7554V16.2447C39.9998 15.8132 39.65 15.4635 39.2185 15.4635Z" clip-rule="evenodd"/><path fill="#FF6043" fill-rule="evenodd" d="M11.5656 24.3475C10.9006 24.3475 10.2954 23.9813 9.98566 23.392C9.78485 23.0099 9.31244 22.8631 8.93066 23.0639C8.54858 23.2644 8.40179 23.7368 8.6026 24.1186C9.18304 25.2236 10.3183 25.91 11.5656 25.91C13.4103 25.91 14.9109 24.4091 14.9109 22.5643C14.9109 20.7198 13.4103 19.219 11.5656 19.219C10.5823 19.219 9.78271 18.4194 9.78271 17.4362C9.78271 16.4532 10.5823 15.6533 11.5656 15.6533C12.1405 15.6533 12.6834 15.9332 13.0179 16.4016C13.2687 16.7529 13.7564 16.8344 14.1077 16.5835C14.4589 16.3329 14.5404 15.845 14.2896 15.4937C13.6624 14.6151 12.644 14.0908 11.5656 14.0908C9.72076 14.0908 8.22021 15.5914 8.22021 17.4362C8.22021 19.2806 9.72076 20.7815 11.5656 20.7815C12.5485 20.7815 13.3484 21.5814 13.3484 22.5643C13.3484 23.5476 12.5485 24.3475 11.5656 24.3475Z" clip-rule="evenodd"/><path fill="#FF6043" fill-rule="evenodd" d="M28.822 25.6042C30.4529 25.6042 31.7801 24.2773 31.7801 22.6462V17.3526C31.7801 15.7214 30.4529 14.3945 28.822 14.3945H27.3627C25.7315 14.3945 24.4043 15.7214 24.4043 17.3526V22.6462C24.4043 24.2773 25.7315 25.6042 27.3627 25.6042H28.822ZM25.9668 22.6462V17.3526C25.9668 16.5829 26.593 15.957 27.3627 15.957H28.822C29.5917 15.957 30.2176 16.5829 30.2176 17.3526V22.6462C30.2176 23.4158 29.5914 24.0417 28.822 24.0417H27.3627C26.593 24.0417 25.9668 23.4158 25.9668 22.6462Z" clip-rule="evenodd"/><path fill="#FF6043" fill-rule="evenodd" d="M23.1073 24.823C23.1073 24.3918 22.7576 24.0417 22.326 24.0417H18.2837V20.7806H20.817C21.2485 20.7806 21.5982 20.4309 21.5982 19.9994C21.5982 19.5679 21.2485 19.2181 20.817 19.2181H18.2837V15.957H22.326C22.7576 15.957 23.1073 15.607 23.1073 15.1758C23.1073 14.7443 22.7576 14.3945 22.326 14.3945H17.5024C17.0709 14.3945 16.7212 14.7443 16.7212 15.1758V24.823C16.7212 25.2545 17.0709 25.6042 17.5024 25.6042H22.326C22.7576 25.6042 23.1073 25.2545 23.1073 24.823Z" clip-rule="evenodd"/><path fill="#04283A" fill-rule="evenodd" d="M20 38.4375C19.5697 38.4375 19.2188 38.7885 19.2188 39.2188C19.2188 39.649 19.5697 40 20 40C20.4303 40 20.7812 39.649 20.7812 39.2188C20.7812 38.7885 20.4303 38.4375 20 38.4375Z" clip-rule="evenodd"/></svg>