<svg width="110" height="111" viewBox="0 0 110 111" fill="none" xmlns="http://www.w3.org/2000/svg">
<path d="M75.47 82.7035L82.662 75.5115L75.0796 67.9291L67.8876 75.1211L75.47 82.7035Z" fill="#04283A"/>
<path d="M73.784 12.6412C56.9291 -4.21374 29.4962 -4.21374 12.6412 12.6412C-4.21374 29.4962 -4.21374 56.9291 12.6412 73.784C29.4962 90.639 56.9291 90.639 73.784 73.784C90.639 56.9578 90.639 29.5252 73.784 12.6412Z" fill="#37395B"/>
<path d="M106.709 90.901L93.0797 77.2717C88.7206 72.9127 81.6299 72.9127 77.2418 77.2717C72.8828 81.6308 72.8828 88.7215 77.2418 93.1096L90.8711 106.739C95.2301 111.098 102.321 111.098 106.709 106.739C111.097 102.38 111.097 95.2891 106.709 90.901Z" fill="#FF6043"/>
<path d="M106.709 90.901L93.0797 77.2717C88.7206 72.9127 81.6299 72.9127 77.2418 77.2717C72.8828 81.6308 72.8828 88.7215 77.2418 93.1096L90.8711 106.739C95.2301 111.098 102.321 111.098 106.709 106.739C111.097 102.38 111.097 95.2891 106.709 90.901Z" fill="url(#paint0_linear)"/>
<path d="M64.834 64.8628C52.9193 76.7775 33.5071 76.7775 21.5633 64.8628C9.64858 52.9481 9.64858 33.5358 21.5633 21.592C33.478 9.67733 52.8903 9.67733 64.834 21.592C76.7487 33.5361 76.7487 52.9193 64.834 64.8628Z" fill="white"/>
<path d="M64.834 64.8628C52.9193 76.7775 33.5071 76.7775 21.5633 64.8628C9.64858 52.9481 9.64858 33.5358 21.5633 21.592C33.478 9.67733 52.8903 9.67733 64.834 21.592C76.7487 33.5361 76.7487 52.9193 64.834 64.8628Z" fill="url(#paint1_linear)"/>
<path d="M29.8648 49.4055C33.352 49.4055 35.0433 47.6619 35.0433 45.6219C35.0433 41.1408 27.9468 42.6926 27.9468 40.4433C27.9468 39.6761 28.5919 39.0484 30.2658 39.0484C31.3468 39.0484 32.515 39.3623 33.6484 40.0074L34.5202 37.8628C33.3869 37.1479 31.8176 36.7817 30.2832 36.7817C26.8134 36.7817 25.1396 38.5079 25.1396 40.5828C25.1396 45.1162 32.2361 43.547 32.2361 45.8311C32.2361 46.5809 31.5561 47.1388 29.8822 47.1388C28.4176 47.1388 26.8832 46.6157 25.8544 45.866L24.8954 47.9932C25.9765 48.8301 27.9293 49.4055 29.8648 49.4055Z" fill="#FF6043"/>
<path d="M39.7806 46.9296V44.1049H45.4474V41.908H39.7806V39.2577H46.1971V36.991H36.9734V49.1963H46.4238V46.9296H39.7806Z" fill="#FF6043"/>
<path d="M54.5481 49.4055C58.384 49.4055 61.2261 46.7378 61.2261 43.0936C61.2261 39.4495 58.384 36.7817 54.5481 36.7817C50.6947 36.7817 47.87 39.4669 47.87 43.0936C47.87 46.7203 50.6947 49.4055 54.5481 49.4055ZM54.5481 46.9993C52.3686 46.9993 50.7296 45.4126 50.7296 43.0936C50.7296 40.7746 52.3686 39.1879 54.5481 39.1879C56.7276 39.1879 58.3666 40.7746 58.3666 43.0936C58.3666 45.4126 56.7276 46.9993 54.5481 46.9993Z" fill="#FF6043"/>
<defs>
<linearGradient id="paint0_linear" x1="105.924" y1="75.0593" x2="77.7359" y2="165.873" gradientUnits="userSpaceOnUse">
<stop stop-color="#FF6043"/>
<stop offset="1" stop-color="white" stop-opacity="0"/>
</linearGradient>
<linearGradient id="paint1_linear" x1="73.6683" y1="12.5799" x2="12.6417" y2="82.7605" gradientUnits="userSpaceOnUse">
<stop offset="0.0973494" stop-color="#D6D6D6" stop-opacity="0.63"/>
<stop offset="1" stop-color="white" stop-opacity="0"/>
</linearGradient>
</defs>
</svg>
