<svg xmlns="http://www.w3.org/2000/svg" width="36" height="40" fill="none" viewBox="0 0 36 40"><path fill="#04283A" fill-rule="evenodd" d="M33.3018 8.97705C34.5811 8.97705 35.6218 7.9364 35.6218 6.6571V2.31995C35.6218 1.04065 34.5811 0 33.3018 0H2.664C1.3847 0 0.34375 1.04065 0.34375 2.31995V6.6571C0.34375 7.9364 1.3847 8.97705 2.664 8.97705H6.7442V11.0519H2.664C1.3847 11.0519 0.34375 12.0926 0.34375 13.3719V17.709C0.34375 18.9883 1.3847 20.029 2.664 20.029H6.7442V22.1039H2.664C1.3847 22.1039 0.34375 23.1448 0.34375 24.4241V28.761C0.34375 30.0403 1.3847 31.0812 2.664 31.0812H17.2017V34.5203H13.5411C13.1096 34.5203 12.7598 34.87 12.7598 35.3015V36.4789H1.125C0.693481 36.4789 0.34375 36.8286 0.34375 37.2601C0.34375 37.6917 0.693481 38.0414 1.125 38.0414H12.7598V39.2188C12.7598 39.6503 13.1096 40 13.5411 40H14.8579C15.2894 40 15.6392 39.6503 15.6392 39.2188C15.6392 38.7872 15.2894 38.4375 14.8579 38.4375H14.3223V36.0828H21.6432V38.4375H21.1079C20.6764 38.4375 20.3267 38.7872 20.3267 39.2188C20.3267 39.6503 20.6764 40 21.1079 40H22.4244C22.856 40 23.2057 39.6503 23.2057 39.2188V38.0414H34.8405C35.272 38.0414 35.6218 37.6917 35.6218 37.2601C35.6218 36.8286 35.272 36.4789 34.8405 36.4789H23.2057V35.3015C23.2057 34.8703 22.856 34.5203 22.4244 34.5203H18.7642V31.0812H33.3018C34.5811 31.0812 35.6218 30.0403 35.6218 28.761V24.4241C35.6218 23.1448 34.5811 22.1039 33.3018 22.1039H29.2216V20.029H33.3018C34.5811 20.029 35.6218 18.9883 35.6218 17.709V13.3722C35.6218 12.0929 34.5811 11.0519 33.3018 11.0519H29.2216V8.97705H33.3018ZM1.90625 6.6571V2.31995C1.90625 1.90247 2.24622 1.5625 2.664 1.5625H33.3018C33.7196 1.5625 34.0593 1.90247 34.0593 2.31995V6.6571C34.0593 7.07489 33.7196 7.41455 33.3018 7.41455H2.664C2.24622 7.41455 1.90625 7.07489 1.90625 6.6571ZM34.0593 24.4241V28.761C34.0593 29.1788 33.7196 29.5187 33.3018 29.5187H2.664C2.24622 29.5187 1.90625 29.1788 1.90625 28.761V24.4241C1.90625 24.0063 2.24622 23.6664 2.664 23.6664H33.3018C33.7196 23.6664 34.0593 24.0063 34.0593 24.4241ZM27.6591 22.1039H8.3067V20.029H27.6591V22.1039ZM34.0593 13.3719V17.709C34.0593 18.1268 33.7196 18.4665 33.3018 18.4665H2.664C2.24622 18.4665 1.90625 18.1268 1.90625 17.709V13.3719C1.90625 12.9544 2.24622 12.6144 2.664 12.6144H33.3018C33.7196 12.6144 34.0593 12.9544 34.0593 13.3719ZM27.6591 11.0519H8.3067V8.97705H27.6591V11.0519Z" clip-rule="evenodd"/><path fill="#04283A" fill-rule="evenodd" d="M29.2139 5.26953H30.4684C30.9 5.26953 31.2497 4.9198 31.2497 4.48828C31.2497 4.05676 30.9 3.70703 30.4684 3.70703H29.2139C28.7827 3.70703 28.4326 4.05676 28.4326 4.48828C28.4326 4.9198 28.7827 5.26953 29.2139 5.26953Z" clip-rule="evenodd"/><path fill="#04283A" fill-rule="evenodd" d="M20.5874 5.26953H21.842C22.2735 5.26953 22.6232 4.9198 22.6232 4.48828C22.6232 4.05676 22.2735 3.70703 21.842 3.70703H20.5874C20.1559 3.70703 19.8062 4.05676 19.8062 4.48828C19.8062 4.9198 20.1559 5.26953 20.5874 5.26953Z" clip-rule="evenodd"/><path fill="#04283A" fill-rule="evenodd" d="M18.0352 4.48828C18.0352 4.05676 17.6855 3.70703 17.254 3.70703H5.49707C5.06555 3.70703 4.71582 4.05676 4.71582 4.48828C4.71582 4.9198 5.06555 5.26953 5.49707 5.26953H17.254C17.6855 5.26953 18.0352 4.9198 18.0352 4.48828Z" clip-rule="evenodd"/><path fill="#04283A" fill-rule="evenodd" d="M24.9004 5.26953H26.155C26.5865 5.26953 26.9362 4.9198 26.9362 4.48828C26.9362 4.05676 26.5865 3.70703 26.155 3.70703H24.9004C24.4689 3.70703 24.1191 4.05676 24.1191 4.48828C24.1191 4.9198 24.4689 5.26953 24.9004 5.26953Z" clip-rule="evenodd"/><path fill="#FF6043" fill-rule="evenodd" d="M21.842 14.7588H20.5874C20.1559 14.7588 19.8062 15.1085 19.8062 15.54C19.8062 15.9716 20.1559 16.3213 20.5874 16.3213H21.842C22.2735 16.3213 22.6232 15.9716 22.6232 15.54C22.6232 15.1085 22.2735 14.7588 21.842 14.7588Z" clip-rule="evenodd"/><path fill="#FF6043" fill-rule="evenodd" d="M17.254 14.7588H5.49707C5.06555 14.7588 4.71582 15.1085 4.71582 15.54C4.71582 15.9716 5.06555 16.3213 5.49707 16.3213H17.254C17.6855 16.3213 18.0352 15.9716 18.0352 15.54C18.0352 15.1085 17.6855 14.7588 17.254 14.7588Z" clip-rule="evenodd"/><path fill="#FF6043" fill-rule="evenodd" d="M29.2139 16.3213H30.4684C30.9 16.3213 31.2497 15.9716 31.2497 15.54C31.2497 15.1085 30.9 14.7588 30.4684 14.7588H29.2139C28.7827 14.7588 28.4326 15.1085 28.4326 15.54C28.4326 15.9716 28.7827 16.3213 29.2139 16.3213Z" clip-rule="evenodd"/><path fill="#FF6043" fill-rule="evenodd" d="M26.155 14.7588H24.9004C24.4689 14.7588 24.1191 15.1085 24.1191 15.54C24.1191 15.9716 24.4689 16.3213 24.9004 16.3213H26.155C26.5865 16.3213 26.9362 15.9716 26.9362 15.54C26.9362 15.1085 26.5865 14.7588 26.155 14.7588Z" clip-rule="evenodd"/><path fill="#04283A" fill-rule="evenodd" d="M29.2139 27.374H30.4684C30.9 27.374 31.2497 27.0243 31.2497 26.5928C31.2497 26.1613 30.9 25.8115 30.4684 25.8115H29.2139C28.7827 25.8115 28.4326 26.1613 28.4326 26.5928C28.4326 27.0243 28.7827 27.374 29.2139 27.374Z" clip-rule="evenodd"/><path fill="#04283A" fill-rule="evenodd" d="M21.842 25.8115H20.5874C20.1559 25.8115 19.8062 26.1613 19.8062 26.5928C19.8062 27.0243 20.1559 27.374 20.5874 27.374H21.842C22.2735 27.374 22.6232 27.0243 22.6232 26.5928C22.6232 26.1613 22.2735 25.8115 21.842 25.8115Z" clip-rule="evenodd"/><path fill="#04283A" fill-rule="evenodd" d="M26.155 25.8115H24.9004C24.4689 25.8115 24.1191 26.1613 24.1191 26.5928C24.1191 27.0243 24.4689 27.374 24.9004 27.374H26.155C26.5865 27.374 26.9362 27.0243 26.9362 26.5928C26.9362 26.1613 26.5865 25.8115 26.155 25.8115Z" clip-rule="evenodd"/><path fill="#04283A" fill-rule="evenodd" d="M17.254 25.8115H5.49707C5.06555 25.8115 4.71582 26.1613 4.71582 26.5928C4.71582 27.0243 5.06555 27.374 5.49707 27.374H17.254C17.6855 27.374 18.0352 27.0243 18.0352 26.5928C18.0352 26.1613 17.6855 25.8115 17.254 25.8115Z" clip-rule="evenodd"/><path fill="#04283A" fill-rule="evenodd" d="M17.9829 38.4375C17.5526 38.4375 17.2017 38.7885 17.2017 39.2188C17.2017 39.649 17.5526 40 17.9829 40C18.4129 40 18.7642 39.649 18.7642 39.2188C18.7642 38.7885 18.4129 38.4375 17.9829 38.4375Z" clip-rule="evenodd"/></svg>