<svg width="364" height="364" viewBox="0 0 364 364" fill="none" xmlns="http://www.w3.org/2000/svg">
<path d="M259.049 65.4694V22.6881C259.049 11.9786 250.368 3.2959 239.658 3.2959H19.3915C8.68195 3.2959 0 11.9779 0 22.6881V65.4694C0 76.1789 8.68195 84.8609 19.3915 84.8609C8.68195 84.8609 0 93.5428 0 104.253V147.034C0 157.744 8.68195 166.426 19.3915 166.426C8.68195 166.426 0 175.108 0 185.817V228.599C0 239.308 8.68195 247.99 19.3915 247.99C8.68195 247.991 0 256.673 0 267.382V310.164C0 320.873 8.68195 329.556 19.3915 329.556H239.657C250.367 329.556 259.049 320.874 259.049 310.164V267.382C259.049 256.673 250.367 247.991 239.657 247.991C250.367 247.991 259.049 239.309 259.049 228.599V185.818C259.049 175.109 250.367 166.427 239.657 166.427C250.367 166.427 259.049 157.745 259.049 147.035V104.254C259.049 93.5443 250.367 84.8616 239.657 84.8616C250.368 84.8609 259.049 76.1789 259.049 65.4694Z" fill="#605F6D"/>
<path d="M239.658 166.426H19.3915C8.68195 166.426 0 157.744 0 147.034V104.253C0 93.5433 8.68195 84.8613 19.3915 84.8613H239.657C250.367 84.8613 259.049 93.5433 259.049 104.253V147.034C259.05 157.744 250.368 166.426 239.658 166.426Z" fill="#04283A"/>
<path d="M239.658 166.426H19.3915C8.68195 166.426 0 157.744 0 147.034V104.253C0 93.5433 8.68195 84.8613 19.3915 84.8613H239.657C250.367 84.8613 259.049 93.5433 259.049 104.253V147.034C259.05 157.744 250.368 166.426 239.658 166.426Z" fill="url(#paint0_linear)"/>
<path d="M239.658 247.991H19.3915C8.68195 247.991 0 239.309 0 228.6V185.818C0 175.109 8.68195 166.427 19.3915 166.427H239.657C250.367 166.427 259.049 175.109 259.049 185.818V228.6C259.05 239.309 250.368 247.991 239.658 247.991Z" fill="#37395B"/>
<path d="M239.658 247.991H19.3915C8.68195 247.991 0 239.309 0 228.6V185.818C0 175.109 8.68195 166.427 19.3915 166.427H239.657C250.367 166.427 259.049 175.109 259.049 185.818V228.6C259.05 239.309 250.368 247.991 239.658 247.991Z" fill="url(#paint1_linear)"/>
<path d="M239.658 84.8609H19.3915C8.68195 84.8609 0 76.1789 0 65.4694V22.6881C0 11.9779 8.68195 3.2959 19.3915 3.2959H239.657C250.367 3.2959 259.049 11.9779 259.049 22.6874V65.4687C259.05 76.1789 250.368 84.8609 239.658 84.8609Z" fill="#37395B"/>
<path d="M239.658 84.8609H19.3915C8.68195 84.8609 0 76.1789 0 65.4694V22.6881C0 11.9779 8.68195 3.2959 19.3915 3.2959H239.657C250.367 3.2959 259.049 11.9779 259.049 22.6874V65.4687C259.05 76.1789 250.368 84.8609 239.658 84.8609Z" fill="url(#paint2_linear)"/>
<path d="M239.658 329.555H19.3915C8.68195 329.555 0 320.874 0 310.164V267.383C0 256.673 8.68195 247.991 19.3915 247.991H239.657C250.367 247.991 259.049 256.673 259.049 267.383V310.164C259.05 320.874 250.368 329.555 239.658 329.555Z" fill="#04283A"/>
<path d="M239.658 329.555H19.3915C8.68195 329.555 0 320.874 0 310.164V267.383C0 256.673 8.68195 247.991 19.3915 247.991H239.657C250.367 247.991 259.049 256.673 259.049 267.383V310.164C259.05 320.874 250.368 329.555 239.658 329.555Z" fill="url(#paint3_linear)"/>
<path d="M239.658 166.426H194.031C204.74 166.426 213.423 175.108 213.423 185.818V228.599C213.423 239.309 204.741 247.991 194.031 247.991H239.658C250.367 247.991 259.049 239.309 259.049 228.599V185.818C259.049 175.108 250.367 166.426 239.658 166.426Z" fill="#3C3B44"/>
<path d="M239.658 247.991H194.031C204.74 247.991 213.423 256.673 213.423 267.383V310.165C213.423 320.874 204.741 329.556 194.031 329.556H239.658C250.367 329.556 259.049 320.874 259.049 310.165V267.383C259.049 256.673 250.367 247.991 239.658 247.991Z" fill="#53515E"/>
<path d="M109.164 50.075H30.3676C27.0546 50.075 24.3701 47.3905 24.3701 44.0775C24.3701 40.7646 27.0546 38.0801 30.3676 38.0801H109.164C112.477 38.0801 115.162 40.7646 115.162 44.0775C115.162 47.3905 112.477 50.075 109.164 50.075Z" fill="#FF6043"/>
<path d="M227.692 50.076C231.004 50.076 233.689 47.3908 233.689 44.0785C233.689 40.7662 231.004 38.0811 227.692 38.0811C224.379 38.0811 221.694 40.7662 221.694 44.0785C221.694 47.3908 224.379 50.076 227.692 50.076Z" fill="#FF6043"/>
<path d="M202.326 50.076C205.638 50.076 208.323 47.3908 208.323 44.0785C208.323 40.7662 205.638 38.0811 202.326 38.0811C199.013 38.0811 196.328 40.7662 196.328 44.0785C196.328 47.3908 199.013 50.076 202.326 50.076Z" fill="#FF6B5C"/>
<path d="M176.952 50.076C180.264 50.076 182.95 47.3908 182.95 44.0785C182.95 40.7662 180.264 38.0811 176.952 38.0811C173.64 38.0811 170.955 40.7662 170.955 44.0785C170.955 47.3908 173.64 50.076 176.952 50.076Z" fill="#FFDC64"/>
<path d="M109.164 131.64H30.3676C27.0546 131.64 24.3701 128.956 24.3701 125.643C24.3701 122.33 27.0546 119.646 30.3676 119.646H109.164C112.477 119.646 115.162 122.33 115.162 125.643C115.162 128.956 112.477 131.64 109.164 131.64Z" fill="#FF6043"/>
<path d="M227.692 131.642C231.004 131.642 233.689 128.957 233.689 125.645C233.689 122.333 231.004 119.647 227.692 119.647C224.379 119.647 221.694 122.333 221.694 125.645C221.694 128.957 224.379 131.642 227.692 131.642Z" fill="#FFDC64"/>
<path d="M202.326 131.642C205.638 131.642 208.323 128.957 208.323 125.645C208.323 122.333 205.638 119.647 202.326 119.647C199.013 119.647 196.328 122.333 196.328 125.645C196.328 128.957 199.013 131.642 202.326 131.642Z" fill="#FF6043"/>
<path d="M176.952 131.642C180.264 131.642 182.95 128.957 182.95 125.645C182.95 122.333 180.264 119.647 176.952 119.647C173.64 119.647 170.955 122.333 170.955 125.645C170.955 128.957 173.64 131.642 176.952 131.642Z" fill="#C60F36"/>
<path d="M109.164 213.205H30.3676C27.0546 213.205 24.3701 210.52 24.3701 207.207C24.3701 203.894 27.0546 201.21 30.3676 201.21H109.164C112.477 201.21 115.162 203.894 115.162 207.207C115.162 210.52 112.477 213.205 109.164 213.205Z" fill="#FF6043"/>
<path d="M227.692 213.208C231.004 213.208 233.689 210.523 233.689 207.21C233.689 203.898 231.004 201.213 227.692 201.213C224.379 201.213 221.694 203.898 221.694 207.21C221.694 210.523 224.379 213.208 227.692 213.208Z" fill="#FFDC64"/>
<path d="M202.326 213.208C205.638 213.208 208.323 210.523 208.323 207.21C208.323 203.898 205.638 201.213 202.326 201.213C199.013 201.213 196.328 203.898 196.328 207.21C196.328 210.523 199.013 213.208 202.326 213.208Z" fill="#86E56E"/>
<path d="M176.952 213.208C180.264 213.208 182.95 210.523 182.95 207.21C182.95 203.898 180.264 201.213 176.952 201.213C173.64 201.213 170.955 203.898 170.955 207.21C170.955 210.523 173.64 213.208 176.952 213.208Z" fill="#86E56E"/>
<path d="M109.164 294.77H30.3676C27.0546 294.77 24.3701 292.086 24.3701 288.773C24.3701 285.46 27.0546 282.775 30.3676 282.775H109.164C112.477 282.775 115.162 285.46 115.162 288.773C115.162 292.086 112.477 294.77 109.164 294.77Z" fill="#FF6043"/>
<path d="M227.692 294.773C231.004 294.773 233.689 292.088 233.689 288.776C233.689 285.463 231.004 282.778 227.692 282.778C224.379 282.778 221.694 285.463 221.694 288.776C221.694 292.088 224.379 294.773 227.692 294.773Z" fill="#FFDC64"/>
<path d="M202.326 294.773C205.638 294.773 208.323 292.088 208.323 288.776C208.323 285.463 205.638 282.778 202.326 282.778C199.013 282.778 196.328 285.463 196.328 288.776C196.328 292.088 199.013 294.773 202.326 294.773Z" fill="#FF6B5C"/>
<path d="M176.952 294.773C180.264 294.773 182.95 292.088 182.95 288.776C182.95 285.463 180.264 282.778 176.952 282.778C173.64 282.778 170.955 285.463 170.955 288.776C170.955 292.088 173.64 294.773 176.952 294.773Z" fill="#FF6B5C"/>
<path d="M338.066 355.704H180.033C168.472 355.704 159.1 346.332 159.1 334.771V172.758C159.1 161.197 168.472 151.824 180.033 151.824H338.066C349.627 151.824 358.999 161.197 358.999 172.758V334.771C358.999 346.332 349.627 355.704 338.066 355.704Z" fill="#F2F2F2" stroke="#FF6043" stroke-width="10"/>
<path d="M206.028 303.903H315.991C320.594 303.903 323.494 298.947 321.24 294.934L265.702 196.071C263.39 191.956 257.457 191.981 255.18 196.117L200.755 294.98C198.547 298.992 201.449 303.903 206.028 303.903Z" fill="#6ECD55"/>
<path d="M268.719 277.734C267.128 277.734 265.603 277.102 264.477 275.978L248.484 259.985C246.142 257.643 246.142 253.845 248.484 251.503C250.826 249.162 254.624 249.162 256.966 251.503L268.718 263.255L312.387 219.584C314.73 217.243 318.527 217.243 320.869 219.584C323.211 221.926 323.211 225.724 320.869 228.066L272.959 275.978C271.835 277.102 270.31 277.734 268.719 277.734Z" fill="white"/>
<defs>
<linearGradient id="paint0_linear" x1="129.524" y1="84.8613" x2="129.524" y2="166.426" gradientUnits="userSpaceOnUse">
<stop stop-color="white" stop-opacity="0.11"/>
<stop offset="1" stop-color="white" stop-opacity="0"/>
</linearGradient>
<linearGradient id="paint1_linear" x1="129.524" y1="166.427" x2="129.524" y2="247.991" gradientUnits="userSpaceOnUse">
<stop stop-color="white" stop-opacity="0.12"/>
<stop offset="1" stop-color="white" stop-opacity="0"/>
</linearGradient>
<linearGradient id="paint2_linear" x1="129.524" y1="3.2959" x2="129.524" y2="84.8609" gradientUnits="userSpaceOnUse">
<stop stop-color="white" stop-opacity="0.12"/>
<stop offset="1" stop-color="white" stop-opacity="0"/>
</linearGradient>
<linearGradient id="paint3_linear" x1="129.524" y1="247.991" x2="129.524" y2="329.555" gradientUnits="userSpaceOnUse">
<stop stop-color="white" stop-opacity="0.11"/>
<stop offset="1" stop-color="white" stop-opacity="0"/>
</linearGradient>
</defs>
</svg>
