<svg xmlns="http://www.w3.org/2000/svg" width="31" height="31" fill="none" viewBox="0 0 31 31"><path fill="#37395B" fill-rule="evenodd" d="M30.3944 11.9842H28.6274C28.3204 10.8355 27.8644 9.73593 27.2672 8.70474L28.5181 7.45408C28.7544 7.21757 28.7544 6.83419 28.5181 6.59768L24.4021 2.48193C24.1656 2.24542 23.7825 2.24542 23.5457 2.48193L22.2951 3.7326C21.2637 3.13541 20.1644 2.67942 19.0159 2.37267V0.605465C19.0159 0.27104 18.7446 0 18.4104 0H12.5897C12.2552 0 11.9842 0.27104 11.9842 0.605465V2.37267C10.8355 2.67942 9.73593 3.13541 8.70475 3.7326L7.45408 2.48193C7.21757 2.24542 6.83443 2.24542 6.59792 2.48193L2.48193 6.59768C2.24542 6.83419 2.24542 7.21757 2.48193 7.45408L3.73284 8.70474C3.13517 9.73664 2.67918 10.8362 2.37267 11.9842H0.605465C0.271277 11.9842 0 12.2552 0 12.5897V18.4104C0 18.7448 0.271277 19.0159 0.605465 19.0159H2.37267C2.67942 20.1644 3.13565 21.2639 3.7326 22.2951L2.48193 23.546C2.24542 23.7822 2.24542 24.1656 2.48193 24.4021L6.59792 28.5181C6.83443 28.7544 7.21757 28.7544 7.45408 28.5181L8.70475 27.2672C9.73687 27.8649 10.8359 28.3209 11.9842 28.6274V30.3944C11.9842 30.7288 12.2552 30.9998 12.5897 30.9998H13.0781C13.4125 30.9998 13.6835 30.7288 13.6835 30.3944C13.6835 30.0999 13.4735 29.8546 13.1951 29.8002V28.1537C13.1951 27.8713 13 27.6265 12.7249 27.5636C11.3818 27.2559 10.1061 26.727 8.93345 25.9913C8.6941 25.8413 8.38309 25.8763 8.18348 26.0759L7.026 27.2334L3.76642 23.9738L4.9239 22.8163C5.12351 22.6167 5.15875 22.3055 5.00857 22.0664C4.27326 20.8947 3.74442 19.619 3.43625 18.2749C3.3731 17.9998 3.12832 17.8047 2.84616 17.8047H1.21093V13.1949H2.84616C3.12855 13.1949 3.37334 12.9998 3.43625 12.7245C3.74395 11.3816 4.27302 10.1058 5.00857 8.93298C5.15875 8.69387 5.12351 8.38286 4.9239 8.18324L3.76642 7.02553L7.026 3.76595L8.18348 4.92366C8.38333 5.12328 8.69434 5.15828 8.93345 5.00833C10.1054 4.27302 11.3809 3.74419 12.7249 3.43602C13.0002 3.37287 13.1951 3.12808 13.1951 2.84592V1.21093H17.8049V2.84616C17.8049 3.12832 18.0001 3.37334 18.2751 3.43625C19.619 3.74419 20.8945 4.27326 22.0666 5.00857C22.306 5.15852 22.617 5.12351 22.8166 4.9239L23.9741 3.76618L27.2339 7.02576L26.0762 8.18348C25.8765 8.38309 25.8413 8.69434 25.9915 8.93345C26.7268 10.1051 27.2559 11.3809 27.5638 12.7249C27.627 13 27.8717 13.1951 28.1539 13.1951H29.7889V17.8049H28.1539C27.8715 17.8049 27.6267 18.0001 27.5636 18.2754C27.2561 19.6183 26.727 20.894 25.9913 22.0666C25.8413 22.3057 25.8765 22.617 26.0759 22.8166L27.2336 23.9741L23.9741 27.2336L22.8163 26.0762C22.6167 25.8765 22.3057 25.8415 22.0666 25.9915C20.8947 26.7268 19.619 27.2556 18.2749 27.5638C17.9998 27.6267 17.8047 27.8717 17.8047 28.1539V29.8002C17.5263 29.8549 17.3163 30.1001 17.3163 30.3946C17.3163 30.729 17.5873 31.0001 17.9218 31.0001H18.4102C18.7446 31.0001 19.0156 30.729 19.0156 30.3946V28.6274C20.1644 28.3206 21.2639 27.8646 22.2951 27.2675L23.5457 28.5181C23.7823 28.7546 24.1656 28.7546 24.4021 28.5181L28.5179 24.4021C28.7544 24.1659 28.7544 23.7825 28.5179 23.546L27.2672 22.2953C27.8649 21.2634 28.3206 20.1639 28.6274 19.0159H30.3944C30.7288 19.0159 30.9998 18.7448 30.9998 18.4104V12.5897C30.9998 12.2552 30.7288 11.9842 30.3944 11.9842Z" clip-rule="evenodd"/><path fill="#FF6043" fill-rule="evenodd" d="M25.383 15.4999C25.383 10.0504 20.9494 5.61707 15.5002 5.61707C10.0508 5.61707 5.61719 10.0504 5.61719 15.4999C5.61719 20.9493 10.0508 25.3827 15.5002 25.3827C20.9494 25.3827 25.383 20.9493 25.383 15.4999ZM14.3059 24.0892C14.2945 24.079 14.2831 24.0691 14.2708 24.0599C13.01 23.1065 12.098 21.782 11.5401 20.1C12.5628 19.6781 13.6732 19.4309 14.8465 19.3682V24.1471C14.6646 24.1337 14.4844 24.114 14.3059 24.0892ZM14.2708 6.93987C14.2831 6.93064 14.2943 6.92071 14.3056 6.91077C14.4844 6.88594 14.6646 6.86607 14.8465 6.85259V11.6315C13.6732 11.5688 12.5628 11.3219 11.5401 10.8997C12.098 9.21769 13.01 7.89324 14.2708 6.93987ZM16.6248 6.93987C17.8864 7.89395 18.7986 9.21935 19.3565 10.9028C18.3357 11.3233 17.2249 11.5695 16.0489 11.6317V6.84597C16.2247 6.85709 16.399 6.87293 16.5716 6.89422C16.5884 6.9103 16.6059 6.92567 16.6248 6.93987ZM16.6246 24.0599C16.6057 24.0741 16.5882 24.0897 16.5714 24.1058C16.3987 24.127 16.2244 24.1429 16.0489 24.154V19.3682C17.2249 19.4304 18.3357 19.6764 19.3565 20.0969C18.7986 21.7804 17.8861 23.106 16.6246 24.0599ZM16.0489 18.1703V16.098H20.0031C19.9724 17.1207 19.8624 18.0658 19.6734 18.9326C18.5493 18.4886 17.3327 18.2316 16.0489 18.1703ZM16.0489 14.9017V12.8294C17.3325 12.7684 18.5493 12.5111 19.6732 12.0672C19.8624 12.934 19.9724 13.8793 20.0031 14.9017H16.0489ZM14.8465 12.8292V14.9017H10.8923C10.923 13.8781 11.0333 12.9316 11.2229 12.0639C12.3487 12.5094 13.5653 12.7677 14.8465 12.8292ZM14.8465 16.098V18.1705C13.5653 18.2318 12.3487 18.4903 11.2229 18.9356C11.0333 18.0681 10.923 17.1216 10.8923 16.098H14.8465ZM18.9256 23.466C19.5661 22.6503 20.0741 21.7052 20.4464 20.6319C20.8976 20.8916 21.3262 21.1901 21.7301 21.5257C20.9378 22.3447 19.9861 23.0081 18.9256 23.466ZM24.151 14.9017H21.206C21.172 13.688 21.0329 12.5697 20.7895 11.5487C21.3952 11.2223 21.9674 10.8349 22.5021 10.3901C23.4408 11.6731 24.0361 13.2225 24.151 14.9017ZM21.206 16.098H24.151C24.0361 17.7772 23.441 19.3266 22.5021 20.6097C21.9676 20.1648 21.3955 19.7774 20.7895 19.451C21.0329 18.43 21.172 17.3118 21.206 16.098ZM21.7301 9.47407C21.3262 9.80968 20.8976 10.1082 20.4466 10.3678C20.0743 9.29456 19.5663 8.34946 18.9258 7.53398C19.9863 7.99162 20.9378 8.65527 21.7301 9.47407ZM11.9131 7.6054C11.2996 8.40362 10.8114 9.32388 10.4503 10.3645C10.0215 10.1176 9.61231 9.83593 9.22467 9.52066C9.98576 8.72244 10.8973 8.06873 11.9131 7.6054ZM6.84917 16.098H9.68941C9.72347 17.3132 9.86301 18.4326 10.1069 19.4545C9.52646 19.7672 8.9761 20.1352 8.45933 20.5564C7.54285 19.2838 6.96246 17.754 6.84917 16.098ZM9.68941 14.9017H6.84917C6.96269 13.2457 7.54285 11.7159 8.45933 10.4433C8.9761 10.8645 9.52646 11.2325 10.1069 11.5452C9.86301 12.5671 9.72347 13.6865 9.68941 14.9017ZM9.22467 21.4791C9.61208 21.1638 10.0212 20.8821 10.45 20.6352C10.8114 21.6758 11.2996 22.5963 11.9131 23.3946C10.8973 22.931 9.98576 22.2775 9.22467 21.4791Z" clip-rule="evenodd"/><path fill="#37395B" fill-rule="evenodd" d="M15.5 29.7889C15.1668 29.7889 14.8945 30.0609 14.8945 30.3944C14.8945 30.7279 15.1668 30.9999 15.5 30.9999C15.8335 30.9999 16.1055 30.7279 16.1055 30.3944C16.1055 30.0609 15.8335 29.7889 15.5 29.7889Z" clip-rule="evenodd"/></svg>