<svg width="75" height="75" viewBox="0 0 75 75" fill="none" xmlns="http://www.w3.org/2000/svg">
<path d="M58.4167 41.8406L54.8882 38.312C64.4699 28.7303 64.4699 13.125 54.8882 3.54331L58.4167 0C69.962 11.5305 69.962 30.31 58.4167 41.8406Z" fill="#F2F2F2"/>
<path d="M16.576 41.8406C10.9953 36.2598 7.92445 28.8337 7.92445 20.9203C7.92445 13.0069 10.9953 5.58071 16.576 0L20.1046 3.52854C15.4687 8.16437 12.9146 14.3356 12.9146 20.9203C12.9146 27.4902 15.4687 33.6762 20.1046 38.312L16.576 41.8406Z" fill="#F2F2F2"/>
<path d="M52.9835 36.4078L49.455 32.8792C52.6439 29.6902 54.3861 25.453 54.3861 20.9353C54.3861 16.4176 52.6292 12.1804 49.455 8.99143L52.9835 5.46289C57.1173 9.59675 59.391 15.0889 59.391 20.9353C59.3762 26.7818 57.1026 32.2739 52.9835 36.4078Z" fill="#FF9E00"/>
<path d="M22.0238 36.4078C17.89 32.2739 15.6164 26.7818 15.6164 20.9353C15.6164 15.0889 17.89 9.58198 22.0238 5.46289L25.5524 8.99143C22.3634 12.1804 20.6065 16.4176 20.6065 20.9353C20.6065 25.453 22.3634 29.6902 25.5376 32.8792L22.0238 36.4078Z" fill="#FF9E00"/>
<path d="M47.0779 11.3386C44.5238 8.78451 41.1133 7.36719 37.4962 7.36719C33.8791 7.36719 30.4686 8.76975 27.9145 11.3386C22.6291 16.6241 22.6291 25.2314 27.9145 30.5168C30.4686 33.0709 33.8791 34.4883 37.4962 34.4883C41.1281 34.4883 44.5238 33.0857 47.0779 30.5168C52.3633 25.2166 52.3633 16.6241 47.0779 11.3386Z" fill="#FF6043"/>
<path d="M43.6674 34.8421L43.2983 33.1738C41.5119 34.0301 39.5483 34.4878 37.5109 34.4878C35.4735 34.4878 33.5099 34.0301 31.7235 33.1738L31.3544 34.8421L22.3042 74.9996H52.7324L43.6674 34.8421Z" fill="#FF6043"/>
<path d="M43.6674 34.8421L43.2983 33.1738C41.5119 34.0301 39.5483 34.4878 37.5109 34.4878C35.4735 34.4878 33.5099 34.0301 31.7235 33.1738L31.3544 34.8421L22.3042 74.9996H52.7324L43.6674 34.8421Z" fill="url(#paint0_linear)"/>
<defs>
<linearGradient id="paint0_linear" x1="-25.763" y1="21.5547" x2="65.551" y2="78.9858" gradientUnits="userSpaceOnUse">
<stop stop-color="white"/>
<stop offset="0.706339" stop-color="white" stop-opacity="0"/>
</linearGradient>
</defs>
</svg>
