<svg xmlns="http://www.w3.org/2000/svg" width="79" height="79" fill="none" viewBox="0 0 79 79"><path fill="#37395B" d="M65.5611 20.9047C65.4367 18.059 63.6329 15.4466 60.7872 14.4359C58.2681 13.534 55.5779 14.1404 53.6808 15.7732C51.3016 5.77446 41.7228 -1.09869 31.2576 0.145319C20.6835 1.42043 12.9395 10.5017 13.1417 20.9358C5.77092 21.5889 0.00183105 27.7623 0.00183105 35.2886C0.00183105 43.2502 6.45513 49.7191 14.4323 49.7191H25.8306H53.1677H64.5659C72.5275 49.7191 78.9964 43.2658 78.9964 35.2886C78.9964 27.669 73.0718 21.4179 65.5611 20.9047Z"/><path fill="#FF6043" d="M66.1997 56.0175V48.569L60.8504 47.8537C60.2906 45.1169 59.2021 42.5822 57.7249 40.3274L61.0059 36.0512L55.7345 30.7797L51.4582 34.0607C49.2034 32.5835 46.6687 31.495 43.9319 30.9352L43.2166 25.5859H35.7681L35.0528 30.9352C32.316 31.495 29.7813 32.5835 27.5266 34.0607L23.2503 30.7797L17.9788 36.0512L21.2599 40.3274C19.7826 42.5822 18.6941 45.1324 18.1343 47.8537L12.7851 48.569V56.0175L18.1343 56.7328C18.6941 59.4696 19.7826 62.0043 21.2599 64.259L17.9788 68.5509L23.2503 73.8223L27.5266 70.5413C29.7813 72.0185 32.3315 73.0915 35.0528 73.6668L35.7681 79.0005H43.2322L43.9475 73.6513C46.6843 73.0759 49.219 72.003 51.4737 70.5257L55.7656 73.8068L61.037 68.5353L57.756 64.2435C59.2332 61.9887 60.3217 59.4541 60.8815 56.7172L66.1997 56.0175ZM39.6401 66.2183C31.9583 66.2183 25.7227 59.9828 25.7227 52.301C25.7227 44.6193 31.9583 38.3837 39.6401 38.3837C47.3219 38.3837 53.5574 44.6193 53.5574 52.301C53.573 59.9828 47.3374 66.2183 39.6401 66.2183Z"/></svg>