<svg xmlns="http://www.w3.org/2000/svg" width="100" height="100" fill="none" viewBox="0 0 100 100"><path fill="#FF6043" d="M54.2714 5.90527H45.728V19.7635H54.2714V5.90527Z"/><path fill="#FF6043" d="M63.8385 0H36.1613C33.7991 0 31.8896 1.90945 31.8896 4.27165C31.8896 6.63386 33.7991 8.54331 36.1613 8.54331H63.8385C66.2007 8.54331 68.1101 6.63386 68.1101 4.27165C68.1101 1.90945 66.2007 0 63.8385 0Z"/><path fill="#04283A" d="M49.9997 99.9993C74.0697 99.9993 93.5824 80.4867 93.5824 56.4167C93.5824 32.3466 74.0697 12.834 49.9997 12.834C25.9296 12.834 6.41699 32.3466 6.41699 56.4167C6.41699 80.4867 25.9296 99.9993 49.9997 99.9993Z"/><path fill="#F2F2F2" d="M49.9998 24.1738C32.2242 24.1738 17.7754 38.6423 17.7754 56.3982C17.7754 56.91 17.7951 57.4219 17.8148 57.9337V58.0518C17.8148 58.0911 17.8148 58.1305 17.8344 58.1699C18.7596 75.1384 32.8344 88.6423 50.0195 88.6423C67.2439 88.6423 81.3581 75.0793 82.2242 58.0715C82.2242 58.0518 82.2242 58.0518 82.2242 58.0518V57.9337C82.2636 57.4219 82.2636 56.91 82.2636 56.3982C82.2439 38.6423 67.7754 24.1738 49.9998 24.1738Z"/><path fill="url(#paint0_linear)" d="M49.9998 24.1738C32.2242 24.1738 17.7754 38.6423 17.7754 56.3982C17.7754 56.91 17.7951 57.4219 17.8148 57.9337V58.0518C17.8148 58.0911 17.8148 58.1305 17.8344 58.1699C18.7596 75.1384 32.8344 88.6423 50.0195 88.6423C67.2439 88.6423 81.3581 75.0793 82.2242 58.0715C82.2242 58.0518 82.2242 58.0518 82.2242 58.0518V57.9337C82.2636 57.4219 82.2636 56.91 82.2636 56.3982C82.2439 38.6423 67.7754 24.1738 49.9998 24.1738Z"/><path fill="#FF6043" d="M67.4409 38.9766L49.1929 49.8033C49.5669 49.7246 49.9606 49.6852 50.3543 49.6852C53.8582 49.6852 56.7322 52.5396 56.7322 56.0632C56.7322 56.4569 56.6929 56.8506 56.6141 57.2246L67.4409 38.9766Z"/><path fill="url(#paint1_linear)" d="M67.4409 38.9766L49.1929 49.8033C49.5669 49.7246 49.9606 49.6852 50.3543 49.6852C53.8582 49.6852 56.7322 52.5396 56.7322 56.0632C56.7322 56.4569 56.6929 56.8506 56.6141 57.2246L67.4409 38.9766Z"/><path fill="#FF9E00" d="M50.3542 62.4211C46.8503 62.4211 43.9959 59.5667 43.9959 56.0628C43.9959 55.6691 44.0353 55.2754 44.114 54.9014L33.2676 73.1494L51.5156 62.3029C51.1219 62.3817 50.7479 62.4211 50.3542 62.4211Z"/><path fill="url(#paint2_linear)" d="M50.3542 62.4211C46.8503 62.4211 43.9959 59.5667 43.9959 56.0628C43.9959 55.6691 44.0353 55.2754 44.114 54.9014L33.2676 73.1494L51.5156 62.3029C51.1219 62.3817 50.7479 62.4211 50.3542 62.4211Z"/><path fill="#04283A" d="M50.3546 63.3274C46.3585 63.3274 43.0908 60.0793 43.0908 56.0636C43.0908 52.0675 46.3389 48.7998 50.3546 48.7998C54.3507 48.7998 57.6184 52.0478 57.6184 56.0636C57.6184 60.0597 54.3507 63.3274 50.3546 63.3274Z"/><path fill="#F6F7F7" d="M50.3542 60.2163C48.0708 60.2163 46.2007 58.3462 46.2007 56.0627C46.2007 53.7793 48.0708 51.9092 50.3542 51.9092C52.6377 51.9092 54.5078 53.7793 54.5078 56.0627C54.5078 58.3462 52.6377 60.2163 50.3542 60.2163Z"/><defs><linearGradient id="paint0_linear" x1="50.02" x2="50.02" y1="24.174" y2="88.642" gradientUnits="userSpaceOnUse"><stop stop-color="#fff"/><stop offset="1" stop-color="#fff" stop-opacity="0"/></linearGradient><linearGradient id="paint1_linear" x1="56" x2="69" y1="51.5" y2="42.5" gradientUnits="userSpaceOnUse"><stop stop-color="#F84B2B"/><stop offset="1" stop-color="#FF4928" stop-opacity="0"/></linearGradient><linearGradient id="paint2_linear" x1="45" x2="34.5" y1="58.999" y2="72.999" gradientUnits="userSpaceOnUse"><stop stop-color="#FF8C13"/><stop offset="1" stop-color="#fff" stop-opacity="0"/></linearGradient></defs></svg>