<svg width="40" height="36" viewBox="0 0 40 36" fill="none" xmlns="http://www.w3.org/2000/svg">
<path fill-rule="evenodd" clip-rule="evenodd" d="M39.2188 0.421875H0.78125C0.349731 0.421875 0 0.771606 0 1.20312V34.7743C0 35.2055 0.349731 35.5555 0.78125 35.5555H16.875C17.3065 35.5555 17.6562 35.2055 17.6562 34.7743C17.6562 34.3428 17.3065 33.993 16.875 33.993H1.5625V7.86084H38.4375V33.9927H23.125C22.6935 33.9927 22.3438 34.3425 22.3438 34.774C22.3438 35.2055 22.6935 35.5552 23.125 35.5552H39.2188C39.6503 35.5552 40 35.2055 40 34.774V1.20312C40 0.771606 39.6503 0.421875 39.2188 0.421875ZM1.5625 6.29834V1.98438H38.4375V6.29865H1.5625V6.29834Z" fill="#04283A"/>
<path fill-rule="evenodd" clip-rule="evenodd" d="M32.6494 3.36035H31.4473C31.0157 3.36035 30.666 3.71039 30.666 4.1416C30.666 4.57312 31.0157 4.92285 31.4473 4.92285H32.6494C33.0809 4.92285 33.4306 4.57312 33.4306 4.1416C33.4306 3.71039 33.0809 3.36035 32.6494 3.36035Z" fill="#04283A"/>
<path fill-rule="evenodd" clip-rule="evenodd" d="M36.2441 3.36035H35.042C34.6105 3.36035 34.2607 3.71039 34.2607 4.1416C34.2607 4.57312 34.6105 4.92285 35.042 4.92285H36.2441C36.6756 4.92285 37.0253 4.57312 37.0253 4.1416C37.0253 3.71039 36.6756 3.36035 36.2441 3.36035Z" fill="#FF6043"/>
<path fill-rule="evenodd" clip-rule="evenodd" d="M29.0544 3.36035H27.8521C27.4205 3.36035 27.0708 3.71039 27.0708 4.1416C27.0708 4.57312 27.4205 4.92285 27.8521 4.92285H29.0544C29.486 4.92285 29.8357 4.57312 29.8357 4.1416C29.8357 3.71039 29.486 3.36035 29.0544 3.36035Z" fill="#04283A"/>
<path fill-rule="evenodd" clip-rule="evenodd" d="M26.5259 23.1592V30.7126C26.5259 31.1441 26.8759 31.4938 27.3071 31.4938H34.8608C35.2924 31.4938 35.6421 31.1441 35.6421 30.7126V23.1592C35.6421 22.7277 35.2924 22.3779 34.8608 22.3779H27.3071C26.8759 22.3779 26.5259 22.7277 26.5259 23.1592ZM28.0884 23.9404H34.0796V29.9313H28.0884V23.9404Z" fill="#04283A"/>
<path fill-rule="evenodd" clip-rule="evenodd" d="M3.72803 30.7126C3.72803 31.1441 4.07776 31.4938 4.50928 31.4938H12.0627C12.4942 31.4938 12.8439 31.1441 12.8439 30.7126V23.1592C12.8439 22.7277 12.4942 22.3779 12.0627 22.3779H4.50928C4.07776 22.3779 3.72803 22.7277 3.72803 23.1592V30.7126ZM5.29053 23.9404H11.2814V29.9313H5.29053V23.9404Z" fill="#04283A"/>
<path fill-rule="evenodd" clip-rule="evenodd" d="M15.9082 31.4938H23.4616C23.8931 31.4938 24.2429 31.1441 24.2429 30.7126V23.1592C24.2429 22.7277 23.8931 22.3779 23.4616 22.3779H15.9082C15.4767 22.3779 15.127 22.7277 15.127 23.1592V30.7126C15.127 31.1441 15.4767 31.4938 15.9082 31.4938ZM16.6895 23.9404H22.6804V29.9313H16.6895V23.9404Z" fill="#04283A"/>
<path fill-rule="evenodd" clip-rule="evenodd" d="M15.4429 11.6895H16.6428C17.0743 11.6895 17.4241 11.3397 17.4241 10.9082C17.4241 10.477 17.0743 10.127 16.6428 10.127H15.4429C15.0114 10.127 14.6616 10.477 14.6616 10.9082C14.6616 11.3397 15.0114 11.6895 15.4429 11.6895Z" fill="#FF6043"/>
<path fill-rule="evenodd" clip-rule="evenodd" d="M13.7817 19.2871C13.7817 18.8559 13.4319 18.5059 13.0004 18.5059H11.8008C11.3693 18.5059 11.0195 18.8559 11.0195 19.2871C11.0195 19.7186 11.3693 20.0684 11.8008 20.0684H13.0004C13.4319 20.0684 13.7817 19.7186 13.7817 19.2871Z" fill="#FF6043"/>
<path fill-rule="evenodd" clip-rule="evenodd" d="M15.4429 20.0684H16.6428C17.0743 20.0684 17.4241 19.7186 17.4241 19.2871C17.4241 18.8559 17.0743 18.5059 16.6428 18.5059H15.4429C15.0114 18.5059 14.6616 18.8559 14.6616 19.2871C14.6616 19.7186 15.0114 20.0684 15.4429 20.0684Z" fill="#FF6043"/>
<path fill-rule="evenodd" clip-rule="evenodd" d="M13.0004 10.127H11.8008C11.3693 10.127 11.0195 10.477 11.0195 10.9082C11.0195 11.3397 11.3693 11.6895 11.8008 11.6895H13.0004C13.4319 11.6895 13.7817 11.3397 13.7817 10.9082C13.7817 10.477 13.4319 10.127 13.0004 10.127Z" fill="#FF6043"/>
<path fill-rule="evenodd" clip-rule="evenodd" d="M19.085 11.6895H20.2846C20.7161 11.6895 21.0659 11.3397 21.0659 10.9082C21.0659 10.477 20.7161 10.127 20.2846 10.127H19.085C18.6534 10.127 18.3037 10.477 18.3037 10.9082C18.3037 11.3397 18.6534 11.6895 19.085 11.6895Z" fill="#FF6043"/>
<path fill-rule="evenodd" clip-rule="evenodd" d="M19.085 20.0684H20.2846C20.7161 20.0684 21.0659 19.7186 21.0659 19.2871C21.0659 18.8559 20.7161 18.5059 20.2846 18.5059H19.085C18.6534 18.5059 18.3037 18.8559 18.3037 19.2871C18.3037 19.7186 18.6534 20.0684 19.085 20.0684Z" fill="#FF6043"/>
<path fill-rule="evenodd" clip-rule="evenodd" d="M22.7275 20.0684H23.9272C24.3587 20.0684 24.7084 19.7186 24.7084 19.2871C24.7084 18.8559 24.3587 18.5059 23.9272 18.5059H22.7275C22.296 18.5059 21.9463 18.8559 21.9463 19.2871C21.9463 19.7186 22.296 20.0684 22.7275 20.0684Z" fill="#FF6043"/>
<path fill-rule="evenodd" clip-rule="evenodd" d="M22.7275 11.6895H23.9272C24.3587 11.6895 24.7084 11.3397 24.7084 10.9082C24.7084 10.477 24.3587 10.127 23.9272 10.127H22.7275C22.296 10.127 21.9463 10.477 21.9463 10.9082C21.9463 11.3397 22.296 11.6895 22.7275 11.6895Z" fill="#FF6043"/>
<path fill-rule="evenodd" clip-rule="evenodd" d="M8.15869 11.6895H9.35834C9.78986 11.6895 10.1396 11.3397 10.1396 10.9082C10.1396 10.477 9.78986 10.127 9.35834 10.127H8.15869C7.72717 10.127 7.37744 10.477 7.37744 10.9082C7.37744 11.3397 7.72717 11.6895 8.15869 11.6895Z" fill="#FF6043"/>
<path fill-rule="evenodd" clip-rule="evenodd" d="M26.3691 11.6895H27.5691C28.0003 11.6895 28.3503 11.3397 28.3503 10.9082C28.3503 10.477 28.0003 10.127 27.5691 10.127H26.3691C25.9376 10.127 25.5879 10.477 25.5879 10.9082C25.5879 11.3397 25.9376 11.6895 26.3691 11.6895Z" fill="#FF6043"/>
<path fill-rule="evenodd" clip-rule="evenodd" d="M3.72803 15.623C3.72803 16.0545 4.07776 16.4042 4.50928 16.4042C4.9408 16.4042 5.29053 16.0545 5.29053 15.623V14.5723C5.29053 14.1407 4.9408 13.791 4.50928 13.791C4.07776 13.791 3.72803 14.1407 3.72803 14.5723V15.623Z" fill="#FF6043"/>
<path fill-rule="evenodd" clip-rule="evenodd" d="M3.72803 19.287C3.72803 19.7186 4.07776 20.0683 4.50928 20.0683H5.71625C6.14777 20.0683 6.4975 19.7186 6.4975 19.287C6.4975 18.8558 6.14777 18.5058 5.71625 18.5058H5.29053V18.0801C5.29053 17.6489 4.9408 17.2988 4.50928 17.2988C4.07776 17.2988 3.72803 17.6489 3.72803 18.0801V19.287Z" fill="#FF6043"/>
<path fill-rule="evenodd" clip-rule="evenodd" d="M4.50928 12.8967C4.9408 12.8967 5.29053 12.5467 5.29053 12.1155V11.6895H5.71625C6.14777 11.6895 6.4975 11.3397 6.4975 10.9082C6.4975 10.477 6.14777 10.127 5.71625 10.127H4.50928C4.07776 10.127 3.72803 10.477 3.72803 10.9082V12.1155C3.72803 12.5467 4.07776 12.8967 4.50928 12.8967Z" fill="#FF6043"/>
<path fill-rule="evenodd" clip-rule="evenodd" d="M26.3691 20.0684H27.5691C28.0003 20.0684 28.3503 19.7186 28.3503 19.2871C28.3503 18.8559 28.0003 18.5059 27.5691 18.5059H26.3691C25.9376 18.5059 25.5879 18.8559 25.5879 19.2871C25.5879 19.7186 25.9376 20.0684 26.3691 20.0684Z" fill="#FF6043"/>
<path fill-rule="evenodd" clip-rule="evenodd" d="M30.0117 11.6895H31.2114C31.6429 11.6895 31.9926 11.3397 31.9926 10.9082C31.9926 10.477 31.6429 10.127 31.2114 10.127H30.0117C29.5802 10.127 29.2305 10.477 29.2305 10.9082C29.2305 11.3397 29.5802 11.6895 30.0117 11.6895Z" fill="#FF6043"/>
<path fill-rule="evenodd" clip-rule="evenodd" d="M8.15869 20.0684H9.35834C9.78986 20.0684 10.1396 19.7186 10.1396 19.2871C10.1396 18.8559 9.78986 18.5059 9.35834 18.5059H8.15869C7.72717 18.5059 7.37744 18.8559 7.37744 19.2871C7.37744 19.7186 7.72717 20.0684 8.15869 20.0684Z" fill="#FF6043"/>
<path fill-rule="evenodd" clip-rule="evenodd" d="M30.0117 20.0684H31.2114C31.6429 20.0684 31.9926 19.7186 31.9926 19.2871C31.9926 18.8559 31.6429 18.5059 31.2114 18.5059H30.0117C29.5802 18.5059 29.2305 18.8559 29.2305 19.2871C29.2305 19.7186 29.5802 20.0684 30.0117 20.0684Z" fill="#FF6043"/>
<path fill-rule="evenodd" clip-rule="evenodd" d="M35.642 10.9082C35.642 10.477 35.2923 10.127 34.8608 10.127H33.6538C33.2223 10.127 32.8726 10.477 32.8726 10.9082C32.8726 11.3397 33.2223 11.6895 33.6538 11.6895H34.0795V12.1155C34.0795 12.5467 34.4293 12.8967 34.8608 12.8967C35.2923 12.8967 35.642 12.5467 35.642 12.1155V10.9082Z" fill="#FF6043"/>
<path fill-rule="evenodd" clip-rule="evenodd" d="M34.8608 13.791C34.4293 13.791 34.0796 14.1407 34.0796 14.5723V15.623C34.0796 16.0545 34.4293 16.4042 34.8608 16.4042C35.2924 16.4042 35.6421 16.0545 35.6421 15.623V14.5723C35.6421 14.1407 35.2924 13.791 34.8608 13.791Z" fill="#FF6043"/>
<path fill-rule="evenodd" clip-rule="evenodd" d="M33.6538 20.0683H34.8608C35.2923 20.0683 35.642 19.7186 35.642 19.287V18.0801C35.642 17.6489 35.2923 17.2988 34.8608 17.2988C34.4293 17.2988 34.0795 17.6489 34.0795 18.0801V18.5058H33.6538C33.2223 18.5058 32.8726 18.8558 32.8726 19.287C32.8726 19.7186 33.2223 20.0683 33.6538 20.0683Z" fill="#FF6043"/>
<path fill-rule="evenodd" clip-rule="evenodd" d="M20 33.9932C19.5697 33.9932 19.2188 34.3441 19.2188 34.7744C19.2188 35.2047 19.5697 35.5557 20 35.5557C20.4303 35.5557 20.7812 35.2047 20.7812 34.7744C20.7812 34.3441 20.4303 33.9932 20 33.9932Z" fill="#04283A"/>
</svg>
