<svg width="110" height="110" viewBox="0 0 110 110" fill="none" xmlns="http://www.w3.org/2000/svg">
<path d="M105.389 0H4.58965C2.05668 0 0 2.05668 0 4.58965V105.41C0 107.943 2.05668 110 4.58965 110H105.41C107.943 110 110 107.943 110 105.41V4.58965C109.978 2.05668 107.922 0 105.389 0Z" fill="#37395B"/>
<path d="M101 22H8V98H101V22Z" fill="white"/>
<path d="M40.3326 16.735C42.425 16.735 44.1212 15.0387 44.1212 12.9463C44.1212 10.8539 42.425 9.15771 40.3326 9.15771C38.2402 9.15771 36.5439 10.8539 36.5439 12.9463C36.5439 15.0387 38.2402 16.735 40.3326 16.735Z" fill="#FF9E00"/>
<path d="M28.1656 16.735C30.258 16.735 31.9542 15.0387 31.9542 12.9463C31.9542 10.8539 30.258 9.15771 28.1656 9.15771C26.0732 9.15771 24.377 10.8539 24.377 12.9463C24.377 15.0387 26.0732 16.735 28.1656 16.735Z" fill="#FF6043"/>
<path d="M16.0201 16.735C18.1125 16.735 19.8087 15.0387 19.8087 12.9463C19.8087 10.8539 18.1125 9.15771 16.0201 9.15771C13.9277 9.15771 12.2314 10.8539 12.2314 12.9463C12.2314 15.0387 13.9277 16.735 16.0201 16.735Z" fill="#C60F36"/>
<path d="M49.7497 30.7852H17.1025V65.3157H49.7497V30.7852Z" fill="#FF6043"/>
<path d="M49.7497 30.7852H17.1025V65.3157H49.7497V30.7852Z" fill="url(#paint0_linear)"/>
<path d="M92.875 74.9277H17.1025V92.875H92.875V74.9277Z" fill="#FF6043"/>
<path d="M92.875 74.9277H17.1025V92.875H92.875V74.9277Z" fill="url(#paint1_linear)"/>
<path d="M92.8745 59.6006H54.9883V65.316H92.8745V59.6006Z" fill="#FF6043"/>
<path d="M92.8745 59.6006H54.9883V65.316H92.8745V59.6006Z" fill="url(#paint2_linear)"/>
<path d="M92.8745 45.2041H54.9883V50.9195H92.8745V45.2041Z" fill="#FF6043"/>
<path d="M92.8745 45.2041H54.9883V50.9195H92.8745V45.2041Z" fill="url(#paint3_linear)"/>
<path d="M92.8745 30.8066H54.9883V36.522H92.8745V30.8066Z" fill="#FF6043"/>
<path d="M92.8745 30.8066H54.9883V36.522H92.8745V30.8066Z" fill="url(#paint4_linear)"/>
<defs>
<linearGradient id="paint0_linear" x1="33.4261" y1="30.7852" x2="33.4261" y2="65.3157" gradientUnits="userSpaceOnUse">
<stop stop-color="#FE8888"/>
<stop offset="1" stop-color="white" stop-opacity="0"/>
</linearGradient>
<linearGradient id="paint1_linear" x1="54.9888" y1="74.9277" x2="54.9888" y2="92.875" gradientUnits="userSpaceOnUse">
<stop stop-color="#FE8888"/>
<stop offset="1" stop-color="white" stop-opacity="0"/>
</linearGradient>
<linearGradient id="paint2_linear" x1="73.9314" y1="59.6006" x2="73.9314" y2="65.316" gradientUnits="userSpaceOnUse">
<stop stop-color="#FE8888"/>
<stop offset="1" stop-color="white" stop-opacity="0"/>
</linearGradient>
<linearGradient id="paint3_linear" x1="73.9314" y1="45.2041" x2="73.9314" y2="50.9195" gradientUnits="userSpaceOnUse">
<stop stop-color="#FE8888"/>
<stop offset="1" stop-color="white" stop-opacity="0"/>
</linearGradient>
<linearGradient id="paint4_linear" x1="73.9314" y1="30.8066" x2="73.9314" y2="36.522" gradientUnits="userSpaceOnUse">
<stop stop-color="#FE8888"/>
<stop offset="1" stop-color="white" stop-opacity="0"/>
</linearGradient>
</defs>
</svg>
