<svg xmlns="http://www.w3.org/2000/svg" width="110" height="110" fill="none" viewBox="0 0 110 110"><path fill="#37395B" d="M105.389 0H4.58965C2.05668 0 0 2.05668 0 4.58965V105.41C0 107.943 2.05668 110 4.58965 110H105.41C107.943 110 110 107.943 110 105.41V4.58965C109.978 2.05668 107.922 0 105.389 0Z"/><path fill="#fff" d="M101 22H8V98H101V22Z"/><path fill="#FF9E00" d="M40.3326 16.7351C42.425 16.7351 44.1212 15.0388 44.1212 12.9464C44.1212 10.854 42.425 9.15781 40.3326 9.15781C38.2402 9.15781 36.5439 10.854 36.5439 12.9464C36.5439 15.0388 38.2402 16.7351 40.3326 16.7351Z"/><path fill="#FF6043" d="M28.1656 16.7351C30.258 16.7351 31.9542 15.0388 31.9542 12.9464C31.9542 10.854 30.258 9.15781 28.1656 9.15781C26.0732 9.15781 24.377 10.854 24.377 12.9464C24.377 15.0388 26.0732 16.7351 28.1656 16.7351Z"/><path fill="#C60F36" d="M16.0206 16.7351C18.113 16.7351 19.8092 15.0388 19.8092 12.9464C19.8092 10.854 18.113 9.15781 16.0206 9.15781C13.9282 9.15781 12.2319 10.854 12.2319 12.9464C12.2319 15.0388 13.9282 16.7351 16.0206 16.7351Z"/><path fill="#FF6043" fill-rule="evenodd" d="M49.7501 30.7852H17.103V65.3157H49.7501V30.7852ZM92.8755 74.9277H17.103V92.875H92.8755V74.9277ZM54.9893 59.6006H92.8755V65.316H54.9893V59.6006ZM92.8755 45.2041H54.9893V50.9195H92.8755V45.2041ZM54.9893 30.8066H92.8755V36.522H54.9893V30.8066Z" clip-rule="evenodd"/><path fill="url(#paint0_linear)" fill-rule="evenodd" d="M49.7501 30.7852H17.103V65.3157H49.7501V30.7852ZM92.8755 74.9277H17.103V92.875H92.8755V74.9277ZM54.9893 59.6006H92.8755V65.316H54.9893V59.6006ZM92.8755 45.2041H54.9893V50.9195H92.8755V45.2041ZM54.9893 30.8066H92.8755V36.522H54.9893V30.8066Z" clip-rule="evenodd"/><defs><linearGradient id="paint0_linear" x1="103" x2="49" y1="20.5" y2="77" gradientUnits="userSpaceOnUse"><stop stop-color="#FE8888"/><stop offset="1" stop-color="#fff" stop-opacity="0"/></linearGradient></defs></svg>