<svg width="57" height="57" viewBox="0 0 57 57" fill="none" xmlns="http://www.w3.org/2000/svg">
<path d="M54.4984 0H2.44567C1.13313 0 0.0786133 1.06573 0.0786133 2.37827V10.5003H56.8767V2.37827C56.8767 1.06573 55.811 0 54.4984 0Z" fill="#37395B"/>
<path d="M0.112183 10.5449V42.7097C0.112183 44.0892 1.17708 45.2094 2.48858 45.2094H54.5002C55.8117 45.2094 56.8766 44.0892 56.8766 42.7097V10.5449H0.112183Z" fill="#F2F2F2"/>
<path d="M4.77905 6.59668C5.52253 6.59668 6.12524 5.99397 6.12524 5.25049C6.12524 4.50701 5.52253 3.9043 4.77905 3.9043C4.03557 3.9043 3.43286 4.50701 3.43286 5.25049C3.43286 5.99397 4.03557 6.59668 4.77905 6.59668Z" fill="#FF6043"/>
<path d="M9.64758 6.59668C10.3911 6.59668 10.9938 5.99397 10.9938 5.25049C10.9938 4.50701 10.3911 3.9043 9.64758 3.9043C8.9041 3.9043 8.30139 4.50701 8.30139 5.25049C8.30139 5.99397 8.9041 6.59668 9.64758 6.59668Z" fill="#FF9E00"/>
<path d="M14.5052 6.59668C15.2487 6.59668 15.8514 5.99397 15.8514 5.25049C15.8514 4.50701 15.2487 3.9043 14.5052 3.9043C13.7618 3.9043 13.1591 4.50701 13.1591 5.25049C13.1591 5.99397 13.7618 6.59668 14.5052 6.59668Z" fill="white"/>
<path d="M50.6056 3.9043H21.5503C20.8099 3.9043 20.2041 4.51008 20.2041 5.25049C20.2041 5.9909 20.8099 6.59668 21.5503 6.59668H50.6056C51.346 6.59668 51.9518 5.9909 51.9518 5.25049C51.9518 4.51008 51.346 3.9043 50.6056 3.9043Z" fill="white"/>
<path d="M33.3406 26.127C27.2267 26.127 22.2794 31.0742 22.2794 37.1882C22.2794 43.3021 27.2267 48.2494 33.3406 48.2494C39.4546 48.2494 44.4019 43.3021 44.4019 37.1882C44.3906 31.0742 39.4434 26.127 33.3406 26.127ZM33.3406 44.3679C29.3806 44.3679 26.1609 41.1482 26.1609 37.1882C26.1609 33.2281 29.3806 30.0085 33.3406 30.0085C37.3007 30.0085 40.5203 33.2281 40.5203 37.1882C40.5203 41.1482 37.3007 44.3679 33.3406 44.3679Z" fill="#FF9E00"/>
<path d="M49.4614 34.0136C49.0351 31.8373 48.1825 29.8068 46.9821 28.0343L48.9678 24.8147L45.7033 21.5501L42.4836 23.5358C40.7111 22.3354 38.6806 21.4828 36.5043 21.0565L35.6293 17.377H31.0186L30.1435 21.0565C27.9672 21.4828 25.9367 22.3354 24.1642 23.5358L20.9445 21.5501L17.68 24.8147L19.6657 28.0343C18.4653 29.8068 17.6127 31.8373 17.1864 34.0136L13.5068 34.8887V39.4882L17.1864 40.3632C17.6127 42.5395 18.4653 44.57 19.6657 46.3425L17.68 49.5622L20.9445 52.8267L24.1642 50.841C25.9367 52.0302 27.9672 52.894 30.1435 53.3203L31.0186 56.9999H35.6293L36.5043 53.3203C38.6806 52.894 40.7111 52.0414 42.4836 50.841L45.7033 52.8267L48.9678 49.5622L46.9821 46.3425C48.1713 44.57 49.0351 42.5395 49.4614 40.3632L53.141 39.4882V34.8887L49.4614 34.0136ZM33.3407 48.2496C27.2268 48.2496 22.2795 43.3024 22.2795 37.1884C22.2795 31.0745 27.2268 26.1272 33.3407 26.1272C39.4547 26.1272 44.4019 31.0745 44.4019 37.1884C44.3907 43.3024 39.4435 48.2496 33.3407 48.2496Z" fill="#FF6043"/>
</svg>
