<svg xmlns="http://www.w3.org/2000/svg" width="57" height="57" fill="none" viewBox="0 0 57 57"><path fill="#37395B" d="M54.4984 0H2.44567C1.13313 0 0.0786133 1.06573 0.0786133 2.37827V10.5003H56.8767V2.37827C56.8767 1.06573 55.811 0 54.4984 0Z"/><path fill="#F2F2F2" d="M0.112183 10.5449V42.7097C0.112183 44.0892 1.17708 45.2094 2.48858 45.2094H54.5002C55.8117 45.2094 56.8766 44.0892 56.8766 42.7097V10.5449H0.112183Z"/><path fill="#FF6043" d="M4.77905 6.59668C5.52253 6.59668 6.12524 5.99397 6.12524 5.25049C6.12524 4.50701 5.52253 3.9043 4.77905 3.9043C4.03557 3.9043 3.43286 4.50701 3.43286 5.25049C3.43286 5.99397 4.03557 6.59668 4.77905 6.59668Z"/><path fill="#FF9E00" d="M9.64758 6.59668C10.3911 6.59668 10.9938 5.99397 10.9938 5.25049C10.9938 4.50701 10.3911 3.9043 9.64758 3.9043C8.9041 3.9043 8.30139 4.50701 8.30139 5.25049C8.30139 5.99397 8.9041 6.59668 9.64758 6.59668Z"/><path fill="#fff" d="M14.5052 6.59668C15.2487 6.59668 15.8514 5.99397 15.8514 5.25049C15.8514 4.50701 15.2487 3.9043 14.5052 3.9043C13.7618 3.9043 13.1591 4.50701 13.1591 5.25049C13.1591 5.99397 13.7618 6.59668 14.5052 6.59668Z"/><path fill="#fff" d="M50.6056 3.9043H21.5503C20.8099 3.9043 20.2041 4.51008 20.2041 5.25049C20.2041 5.9909 20.8099 6.59668 21.5503 6.59668H50.6056C51.346 6.59668 51.9518 5.9909 51.9518 5.25049C51.9518 4.51008 51.346 3.9043 50.6056 3.9043Z"/><g clip-path="url(#clip0)"><path fill="#37395B" d="M56.2705 28.3613L52.8316 31.8002L49.3044 31.125L48.6356 27.5978L52.0745 24.159C50.2068 23.711 48.1624 24.2094 46.7048 25.6607C45.487 26.8785 44.938 28.5064 45.0516 30.1028L38.7228 36.4442L36.5522 38.6148L31.1132 44.0539C29.5231 43.9403 27.8888 44.4893 26.671 45.7071C25.2071 47.1583 24.715 49.209 25.163 51.0768L28.6018 47.6379L32.129 48.313L32.8042 51.8402L29.3653 55.2791C31.233 55.7271 33.2774 55.2286 34.735 53.7774C35.9528 52.5596 36.5018 50.9316 36.3882 49.3415L39.4232 46.2876L46.3956 39.3152L50.3266 35.3842C51.9167 35.4977 53.551 34.9488 54.7688 33.731C56.2263 32.2734 56.7248 30.229 56.2705 28.3613Z"/><path fill="#FF6043" d="M56.8888 49.4549L50.4527 55.891C50.3076 56.0361 50.0678 56.0361 49.9164 55.891L37.2336 43.2082C37.0885 43.063 37.0885 42.8233 37.2336 42.6718L43.6696 36.2358C43.8148 36.0907 44.0545 36.0907 44.206 36.2358L56.8888 48.9186C57.0339 49.0637 57.0339 49.3035 56.8888 49.4549Z"/><path fill="#fff" d="M26.6833 24.001L25.0049 25.6794L26.9736 28.6387L29.0495 30.2225L39.3661 40.5391L41.543 38.3685L31.2201 28.0519L29.6363 25.9696L26.6833 24.001Z"/><path fill="#FF9E00" d="M49.7769 52.5973C49.4867 52.8876 49.0197 52.8876 48.7358 52.5973L40.533 44.3946C40.2427 44.1043 40.2427 43.6374 40.533 43.3534C40.8233 43.0632 41.2902 43.0632 41.5741 43.3534L49.7769 51.5562C50.0672 51.8402 50.0672 52.3071 49.7769 52.5973Z"/><path fill="#FF9E00" d="M53.4885 48.5964C53.1982 48.8866 52.7313 48.8866 52.4473 48.5964L44.2445 40.3936C43.9543 40.1033 43.9543 39.6364 44.2445 39.3525C44.5348 39.0622 45.0017 39.0622 45.2857 39.3525L53.4885 47.5553C53.7787 47.8392 53.7787 48.3061 53.4885 48.5964Z"/></g><defs><clipPath id="clip0"><rect width="32" height="32" fill="#fff" transform="translate(25 24)"/></clipPath></defs></svg>