<svg width="31" height="29" viewBox="0 0 31 29" fill="none" xmlns="http://www.w3.org/2000/svg">
<path fill-rule="evenodd" clip-rule="evenodd" d="M30.3945 0.631348H4.25507C3.92088 0.631348 3.6496 0.902389 3.6496 1.23682V8.11646H0.605469C0.271042 8.11646 0 8.3875 0 8.72192V27.6549C0 27.9893 0.271042 28.2604 0.605469 28.2604H26.7449C27.0791 28.2604 27.3504 27.9893 27.3504 27.6549V25.4769H30.3945C30.729 25.4769 31 25.2056 31 24.8714V1.23682C31 0.902389 30.729 0.631348 30.3945 0.631348V0.631348ZM4.86054 1.84229H29.7891V4.62768H4.86054V1.84229ZM1.21094 9.32739H26.1392V12.1128H1.21094V9.32739ZM26.1395 27.0494H1.21094V13.3237H26.1395V27.0494ZM29.7891 24.2659H27.3504V8.72192C27.3504 8.3875 27.0791 8.11646 26.7449 8.11646H4.86054V5.83862H29.7891V24.2659Z" fill="#37395B"/>
<path fill-rule="evenodd" clip-rule="evenodd" d="M21.5792 10.1147H20.3032C19.9688 10.1147 19.6978 10.3858 19.6978 10.7202C19.6978 11.0544 19.9688 11.3257 20.3032 11.3257H21.5792C21.9134 11.3257 22.1847 11.0544 22.1847 10.7202C22.1847 10.3858 21.9136 10.1147 21.5792 10.1147Z" fill="#37395B"/>
<path fill-rule="evenodd" clip-rule="evenodd" d="M24.7223 10.1147H23.4463C23.1121 10.1147 22.8408 10.3858 22.8408 10.7202C22.8408 11.0544 23.1121 11.3257 23.4463 11.3257H24.7223C25.0567 11.3257 25.3277 11.0544 25.3277 10.7202C25.3277 10.3858 25.0567 10.1147 24.7223 10.1147Z" fill="#37395B"/>
<path fill-rule="evenodd" clip-rule="evenodd" d="M18.4359 10.1147H17.1602C16.8257 10.1147 16.5547 10.3858 16.5547 10.7202C16.5547 11.0544 16.8257 11.3257 17.1602 11.3257H18.4359C18.7703 11.3257 19.0414 11.0544 19.0414 10.7202C19.0414 10.3858 18.7703 10.1147 18.4359 10.1147Z" fill="#37395B"/>
<path fill-rule="evenodd" clip-rule="evenodd" d="M22.0858 2.62964H20.8101C20.4756 2.62964 20.2046 2.90068 20.2046 3.23511C20.2046 3.5693 20.4756 3.84058 20.8101 3.84058H22.0858C22.4202 3.84058 22.6913 3.5693 22.6913 3.23511C22.6913 2.90068 22.4202 2.62964 22.0858 2.62964Z" fill="#FF6043"/>
<path fill-rule="evenodd" clip-rule="evenodd" d="M25.2289 2.62964H23.9531C23.6187 2.62964 23.3477 2.90068 23.3477 3.23511C23.3477 3.5693 23.6187 3.84058 23.9531 3.84058H25.2289C25.5633 3.84058 25.8343 3.5693 25.8343 3.23511C25.8343 2.90068 25.5633 2.62964 25.2289 2.62964Z" fill="#FF6043"/>
<path fill-rule="evenodd" clip-rule="evenodd" d="M28.3717 2.62964H27.0957C26.7613 2.62964 26.4902 2.90068 26.4902 3.23511C26.4902 3.5693 26.7613 3.84058 27.0957 3.84058H28.3717C28.7059 3.84058 28.9771 3.5693 28.9771 3.23511C28.9771 2.90068 28.7059 2.62964 28.3717 2.62964Z" fill="#FF6043"/>
<path fill-rule="evenodd" clip-rule="evenodd" d="M11.2531 19.5811H5.02902L5.37882 19.2313C5.61533 18.9948 5.61533 18.6116 5.37882 18.3751C5.14255 18.1386 4.75916 18.1386 4.52265 18.3751L3.1393 19.7585C2.90279 19.995 2.90279 20.3784 3.1393 20.6149L4.52265 21.9983C4.64091 22.1165 4.79582 22.1756 4.95074 22.1756C5.10565 22.1756 5.2608 22.1165 5.37882 21.9983C5.61533 21.7617 5.61533 21.3784 5.37882 21.1418L5.02902 20.792H11.2531C11.5875 20.792 11.8585 20.521 11.8585 20.1866C11.8585 19.8521 11.5875 19.5811 11.2531 19.5811Z" fill="#FF6043"/>
<path fill-rule="evenodd" clip-rule="evenodd" d="M22.8276 18.3751C22.5913 18.1386 22.2079 18.1386 21.9714 18.3751C21.7349 18.6114 21.7349 18.9948 21.9714 19.2313L22.3212 19.5811H16.0972C15.763 19.5811 15.4917 19.8521 15.4917 20.1866C15.4917 20.521 15.7627 20.792 16.0972 20.792H22.3212L21.9714 21.1418C21.7349 21.3784 21.7349 21.7617 21.9714 21.9983C22.0897 22.1165 22.2446 22.1756 22.3995 22.1756C22.5544 22.1756 22.7093 22.1165 22.8276 21.9983L24.2112 20.6149C24.4474 20.3784 24.4474 19.995 24.2112 19.7585L22.8276 18.3751Z" fill="#FF6043"/>
<path fill-rule="evenodd" clip-rule="evenodd" d="M13.6753 19.5811C13.3418 19.5811 13.0698 19.853 13.0698 20.1865C13.0698 20.52 13.3418 20.792 13.6753 20.792C14.0088 20.792 14.2808 20.52 14.2808 20.1865C14.2808 19.853 14.0088 19.5811 13.6753 19.5811Z" fill="#FF6043"/>
</svg>
