<svg xmlns="http://www.w3.org/2000/svg" width="74" height="74" fill="none" viewBox="0 0 74 74"><g clip-path="url(#clip0)"><path fill="#04283A" d="M27.0792 61.1651C24.0782 60.1891 23.4227 54.5804 20.9316 52.7594C19.3145 51.5795 16.4592 51.6086 14.1284 51.1133L13.2397 52.6138L6.23259 64.3992L18.8629 61.5293L22.4029 73.9848L29.0022 62.8696L30.2696 60.7281C29.1479 61.2234 28.0553 61.4856 27.0792 61.1651Z"/><path fill="#04283A" d="M59.8714 51.1289C57.5405 51.6242 54.6852 51.5951 53.0536 52.7751C50.5625 54.5961 49.907 60.2047 46.906 61.1807C45.9299 61.5012 44.8519 61.239 43.7302 60.7437L44.9976 62.8852L51.5968 74.0005L55.1223 61.5449L67.7526 64.4148L60.76 52.6294L59.8714 51.1289Z"/><path fill="#FF6043" d="M63.0035 22.2112C62.0274 19.2102 64.7808 14.3008 62.9598 11.7952C61.1242 9.27492 55.5884 10.3821 53.0682 8.54652C50.5771 6.72554 49.9215 1.11691 46.9206 0.140859C44.0216 -0.806053 40.2048 3.33122 36.9998 3.33122C33.7949 3.33122 29.9781 -0.791485 27.0791 0.140859C24.0781 1.11691 23.4226 6.72554 20.9315 8.54652C18.4112 10.3821 12.8754 9.27492 11.0399 11.7952C9.2189 14.2863 11.9722 19.2102 10.9962 22.2112C10.0638 25.0956 4.90681 27.4556 4.90681 30.6606C4.90681 33.8655 10.0493 36.2109 10.9962 39.1099C11.9722 42.1109 9.2189 47.0203 11.0399 49.526C12.8754 52.0462 18.4112 50.939 20.9315 52.7746C23.4226 54.5956 24.0781 60.2042 27.0791 61.1803C29.9781 62.1126 33.7949 57.9753 36.9998 57.9753C40.2048 57.9753 44.0216 62.098 46.9206 61.1657C49.9215 60.1896 50.5771 54.581 53.0682 52.76C55.5884 50.9245 61.1242 52.0316 62.9598 49.5114C64.7808 47.0203 62.0274 42.0963 63.0035 39.0954C63.9358 36.2109 69.0929 33.8509 69.0929 30.646C69.0929 27.4411 63.9358 25.0956 63.0035 22.2112Z"/><circle cx="37.11" cy="31.11" r="16.11" fill="#FFF9F9"/><path fill="#37395B" fill-rule="evenodd" d="M46.6543 25.8523C47.2676 26.9254 47.9827 28.304 47.9827 30.2948C47.9827 31.5887 47.5161 33.0774 46.8833 35.0966L46.8833 35.0967L46.8833 35.0967L46.7563 35.5021L45.1496 40.8712L39.3284 23.5553C40.2976 23.5044 41.172 23.4017 41.172 23.4017C42.0398 23.299 41.9377 22.0237 41.0687 22.0748C41.0687 22.0748 38.4603 22.2793 36.7758 22.2793C35.193 22.2793 32.5328 22.0748 32.5328 22.0748C31.6647 22.0237 31.563 23.3508 32.431 23.4017C32.431 23.4017 33.2528 23.5044 34.1202 23.5553L36.6299 30.4315L33.1047 41.0039L27.2387 23.5559C28.2098 23.505 29.0824 23.4023 29.0824 23.4023C29.9498 23.2997 29.8474 22.0243 28.9791 22.0755C28.9791 22.0755 26.371 22.2799 24.6861 22.2799C24.3836 22.2799 24.0274 22.2719 23.6495 22.2606C26.5298 17.8873 31.4808 15 37.1083 15C41.302 15 45.1202 16.603 47.986 19.2286C47.9614 19.2272 47.9369 19.2252 47.9124 19.2231C47.8679 19.2194 47.8234 19.2157 47.7773 19.2157C46.1954 19.2157 45.0724 20.5941 45.0724 22.0748C45.0724 23.2991 45.7239 24.3503 46.466 25.5477C46.5282 25.6481 46.5911 25.7496 46.6543 25.8523ZM30.0785 45.6047C24.7054 42.9935 21 37.4834 21 31.1074C21 28.7721 21.5008 26.5551 22.3946 24.5518L30.0785 45.6047ZM37.3909 32.5179L32.5579 46.5618C34.0009 46.986 35.527 47.2181 37.1083 47.2181C38.9841 47.2181 40.783 46.8938 42.4575 46.305C42.4143 46.236 42.3751 46.1627 42.3429 46.083L37.3909 32.5179ZM51.3511 25.036C51.3511 24.4435 51.3118 23.8927 51.2426 23.3796C52.5008 25.6741 53.2162 28.3076 53.2159 31.1082C53.2159 37.0508 49.9948 42.2391 45.2059 45.0317L50.1263 30.8057C51.0458 28.5081 51.3511 26.6706 51.3511 25.036Z" clip-rule="evenodd"/></g><defs><clipPath id="clip0"><rect width="74" height="74" fill="#fff"/></clipPath></defs></svg>