<svg xmlns="http://www.w3.org/2000/svg" width="37" height="36" fill="none" viewBox="0 0 37 36"><path fill="#4A50AE" d="M2.55853 17.9996C2.55853 24.1117 6.11056 29.3938 11.2613 31.8969L3.89543 11.7153C3.03864 13.6357 2.55853 15.761 2.55853 17.9996Z"/><path fill="#4A50AE" d="M28.4246 17.2204C28.4246 15.312 27.7391 13.9904 27.1512 12.9617C26.3685 11.6898 25.6348 10.6126 25.6348 9.34064C25.6348 7.92118 26.7113 6.59986 28.2278 6.59986C28.2962 6.59986 28.3612 6.60838 28.4279 6.6122C25.6806 4.09531 22.0205 2.55861 18.0004 2.55861C12.6058 2.55861 7.85963 5.32643 5.09857 9.5187C5.46086 9.52957 5.80228 9.53721 6.09228 9.53721C7.70743 9.53721 10.2076 9.34123 10.2076 9.34123C11.04 9.29216 11.1381 10.5148 10.3066 10.6132C10.3066 10.6132 9.47008 10.7116 8.53924 10.7604L14.1624 27.4863L17.5417 17.3514L15.1359 10.7598C14.3044 10.711 13.5166 10.6126 13.5166 10.6126C12.6845 10.5638 12.7821 9.29157 13.6142 9.34064C13.6142 9.34064 16.1643 9.53662 17.6816 9.53662C19.2964 9.53662 21.7969 9.34064 21.7969 9.34064C22.6298 9.29157 22.7277 10.5142 21.8959 10.6126C21.8959 10.6126 21.0576 10.711 20.1285 10.7598L25.7088 27.3591L27.249 22.2122C27.9166 20.0764 28.4246 18.5423 28.4246 17.2204Z"/><path fill="#4A50AE" d="M18.2711 19.3503L13.6381 32.813C15.0214 33.2196 16.4843 33.4421 18.0002 33.4421C19.7984 33.4421 21.5228 33.1312 23.128 32.5668C23.0865 32.5007 23.0489 32.4304 23.0181 32.354L18.2711 19.3503Z"/><path fill="#4A50AE" d="M31.5494 10.5911C31.6158 11.0829 31.6534 11.6109 31.6534 12.1789C31.6534 13.7459 31.3608 15.5073 30.4793 17.7098L25.7626 31.3471C30.3533 28.67 33.4411 23.6965 33.4411 17.9998C33.4414 15.3152 32.7556 12.7906 31.5494 10.5911Z"/><path fill="#4A50AE" d="M0 17.9996C0 8.07456 8.07515 0 18.0002 0C27.925 0 36.001 8.07456 36.0013 17.9996C36.0013 23.0814 33.8845 27.6778 30.4866 30.9539C30.3092 31.125 30.0228 31.0965 29.8771 30.8977C29.7528 30.7281 29.7758 30.4926 29.927 30.3465C33.1606 27.2214 35.1742 22.8412 35.1742 17.9996C35.1742 8.52969 27.4698 0.82535 18.0002 0.82535C8.52999 0.82535 0.82535 8.52969 0.82535 17.9996C0.82535 27.3318 8.30688 34.9496 17.5865 35.1702C17.8142 35.1756 18.0002 35.3598 18.0002 35.5876C18.0002 35.8154 17.8142 36.0006 17.5864 35.9954C7.85167 35.7748 0 27.7875 0 17.9996Z"/></svg>