<svg xmlns="http://www.w3.org/2000/svg" width="41" height="40" fill="none" viewBox="0 0 41 40"><g opacity=".7"><path fill="#fff" d="M2.84277 19.9991C2.84277 26.7903 6.78946 32.6593 12.5125 35.4405L4.32821 13.0166C3.37622 15.1504 2.84277 17.5118 2.84277 19.9991Z"/><path fill="#fff" d="M31.5828 19.1336C31.5828 17.0132 30.8211 15.5447 30.1679 14.4017C29.2982 12.9885 28.483 11.7916 28.483 10.3783C28.483 8.80117 29.6791 7.33303 31.364 7.33303C31.4401 7.33303 31.5123 7.3425 31.5864 7.34674C28.5339 4.55021 24.4671 2.84277 20.0003 2.84277C14.0063 2.84277 8.73287 5.91811 5.66504 10.5762C6.06758 10.5883 6.44693 10.5967 6.76916 10.5967C8.56376 10.5967 11.3417 10.379 11.3417 10.379C12.2666 10.3245 12.3756 11.6829 11.4517 11.7923C11.4517 11.7923 10.5222 11.9016 9.48799 11.9558L15.736 30.5401L19.4907 19.2792L16.8176 11.9552C15.8937 11.901 15.0184 11.7916 15.0184 11.7916C14.0938 11.7374 14.2022 10.3238 15.1268 10.3783C15.1268 10.3783 17.9602 10.5961 19.6461 10.5961C21.4404 10.5961 24.2186 10.3783 24.2186 10.3783C25.1442 10.3238 25.2529 11.6823 24.3286 11.7916C24.3286 11.7916 23.3972 11.901 22.3649 11.9552L28.5652 30.3987L30.2766 24.68C31.0183 22.3069 31.5828 20.6024 31.5828 19.1336Z"/><path fill="#fff" d="M20.3011 21.5L15.1533 36.4585C16.6903 36.9103 18.3158 37.1575 20.0001 37.1575C21.9981 37.1575 23.9141 36.8121 25.6976 36.1849C25.6516 36.1115 25.6098 36.0334 25.5755 35.9486L20.3011 21.5Z"/><path fill="#fff" d="M35.0548 11.7676C35.1286 12.3141 35.1704 12.9008 35.1704 13.5318C35.1704 15.2729 34.8452 17.2301 33.8658 19.6773L28.625 34.8297C33.7258 31.8552 37.1566 26.3291 37.1566 19.9995C37.157 17.0166 36.395 14.2115 35.0548 11.7676Z"/><path fill="#fff" d="M20.0002 0C8.97236 0 0 8.9717 0 19.9995C0 31.0286 8.97236 40 20.0002 40C31.0276 40 40.0013 31.0286 40.0013 19.9995C40.001 8.9717 31.0276 0 20.0002 0ZM20.0002 39.0833C9.47806 39.0833 0.917052 30.5223 0.917052 19.9995C0.917052 9.4774 9.47773 0.917052 20.0002 0.917052C30.5219 0.917052 39.0823 9.4774 39.0823 19.9995C39.0823 30.5223 30.5219 39.0833 20.0002 39.0833Z"/></g></svg>