<svg xmlns="http://www.w3.org/2000/svg" width="29" height="29" fill="none" viewBox="0 0 29 29"><path stroke="#FF6043" stroke-width="1.4" d="M8.28186 23.7904C5.48023 21.7723 3.65703 18.4827 3.65703 14.7681C3.65703 13.828 3.77461 12.916 3.995 12.0449L8.28186 23.7904Z"/><path stroke="#FF6043" stroke-width="1.4" d="M17.3474 9.8623C17.367 9.8605 17.386 9.85872 17.4046 9.85697C17.5326 9.84491 17.638 9.83402 17.7118 9.8261L17.7978 9.81666L17.821 9.81402L17.8274 9.81328L17.8291 9.81308L17.8297 9.81301L17.8299 9.81299L17.8299 9.81298L17.7484 9.11775L17.83 9.81298L17.8306 9.8129C18.1723 9.77248 18.4641 9.60531 18.6566 9.34591C18.8405 9.09815 18.9071 8.80326 18.8859 8.5339C18.8646 8.26472 18.7525 7.98234 18.5286 7.7665C18.2937 7.54004 17.9754 7.42577 17.6315 7.44602L17.6315 7.44589L17.6179 7.44695L17.6179 7.44695L17.6179 7.44696L17.6177 7.44697L17.6168 7.44704L17.613 7.44734L17.5973 7.44855L17.5357 7.45321C17.4819 7.45725 17.4033 7.46303 17.3051 7.46998C17.1085 7.48389 16.8335 7.50245 16.5205 7.52099C15.8906 7.55831 15.1207 7.59472 14.5248 7.59472C13.9667 7.59472 13.2065 7.55837 12.5753 7.52099C12.262 7.50243 11.9845 7.48387 11.7853 7.46994C11.6858 7.46298 11.6059 7.45719 11.5511 7.45315L11.4884 7.44848L11.4723 7.44726L11.4684 7.44696L11.4675 7.44689L11.4672 7.44687L11.4672 7.44687L11.4672 7.44676L11.4548 7.44603C11.1013 7.42519 10.7806 7.54911 10.549 7.78073C10.3297 7.99993 10.2214 8.28297 10.201 8.5497C10.1805 8.81603 10.2442 9.11573 10.4344 9.36711C10.6314 9.6274 10.9289 9.78774 11.2718 9.81476L11.2825 9.81605L11.3631 9.82551C11.432 9.83345 11.5302 9.84436 11.6487 9.85644C11.7715 9.86898 11.9172 9.88289 12.0754 9.89609L13.6764 14.2828L11.8302 19.8199L8.48269 9.8628C8.50241 9.86098 8.52165 9.85919 8.54039 9.85742C8.66829 9.84535 8.77356 9.83446 8.84727 9.82654L8.9332 9.81709L8.95642 9.81445L8.96274 9.81371L8.96453 9.81351L8.96507 9.81344L8.96526 9.81342L8.96533 9.81341L8.88358 9.1182L8.96539 9.81341L8.96587 9.81335C9.30753 9.7729 9.59934 9.60565 9.79181 9.34619C9.97564 9.09839 10.0421 8.80353 10.0208 8.53427C9.99955 8.26519 9.88746 7.98288 9.66371 7.76705C9.42894 7.54059 9.11062 7.4262 8.76665 7.44648L8.76664 7.44634L8.75315 7.4474L8.75314 7.4474L8.75312 7.4474L8.75293 7.44742L8.75202 7.44749L8.74817 7.44779L8.73251 7.449L8.67095 7.45366C8.61711 7.4577 8.53855 7.46348 8.44031 7.47043C8.24375 7.48434 7.96883 7.5029 7.65581 7.52144C7.2335 7.54646 6.74826 7.57107 6.29467 7.58458C8.33329 5.18111 11.3726 3.65715 14.7686 3.65715C17.1797 3.65715 19.4099 4.42469 21.2307 5.72908C20.405 6.23854 19.9083 7.18912 19.9083 8.14481C19.9083 9.25354 20.4969 10.1975 21.0205 11.0373C21.0698 11.1164 21.1185 11.1945 21.1661 11.2718C21.5965 12.0256 22.0423 12.9039 22.0423 14.1721C22.0423 15.0097 21.7319 16.0015 21.2444 17.5595C21.2216 17.6323 21.1985 17.7063 21.1749 17.7816L21.1749 17.7816L21.1725 17.7897L20.6262 19.6152L17.3474 9.8623Z"/><path stroke="#FF6043" d="M18.0213 25.603C16.9909 25.9123 15.8996 26.0802 14.7683 26.0802C13.841 26.0802 12.9407 25.9666 12.0786 25.7556L14.9894 17.2974L18.0213 25.603Z"/><path stroke="#FF6043" stroke-width="1.4" d="M22.0876 23.1249L21.6614 24.3572C24.6392 22.2126 26.5794 18.7176 26.5794 14.7682C26.5796 13.3805 26.3401 12.0487 25.9 10.8118C25.8731 11.3665 25.7992 11.9494 25.6629 12.5739M22.0876 23.1249C24.4122 21.0878 25.8794 18.0994 25.8794 14.7682V14.7682C25.8795 14.0167 25.805 13.283 25.6629 12.5739M22.0876 23.1249L24.9701 14.7908M22.0876 23.1249C21.7655 23.4072 21.4269 23.6712 21.0735 23.9153L24.314 14.5464M25.6629 12.5739C25.5487 12.0042 25.3909 11.4503 25.1931 10.9158C25.1269 11.9635 24.8781 13.1369 24.314 14.5464M25.6629 12.5739C25.5136 13.2573 25.2895 13.9905 24.9701 14.7908M24.9701 14.7908C24.968 14.7961 24.9659 14.8013 24.9638 14.8065L24.314 14.5464M24.9701 14.7908L24.9755 14.7752L24.314 14.5464"/><path fill="#37395B" stroke="#37395B" stroke-width=".4" d="M14.7686 0.8C7.06633 0.8 0.8 7.06587 0.8 14.7681C0.8 22.364 6.89292 28.562 14.4475 28.7333C14.7361 28.7398 14.9686 28.5057 14.9686 28.2214C14.9686 27.9347 14.7358 27.7088 14.4569 27.7021C7.46708 27.536 1.83132 21.7976 1.83132 14.7681C1.83132 7.63493 7.63514 1.83132 14.7686 1.83132C21.9016 1.83132 27.7052 7.63492 27.7052 14.7681C27.7052 18.4149 26.1887 21.7141 23.7526 24.0686C23.5669 24.248 23.5363 24.5398 23.6921 24.7523C23.873 24.9992 24.233 25.0383 24.4584 24.821C27.0948 22.2791 28.7378 18.712 28.7378 14.7681C28.7376 7.06586 22.4706 0.8 14.7686 0.8Z"/></svg>