<svg width="40" height="40" viewBox="0 0 40 40" fill="none" xmlns="http://www.w3.org/2000/svg">
<path fill-rule="evenodd" clip-rule="evenodd" d="M39.2185 15.4635H36.9386C36.5424 13.9812 35.9541 12.5625 35.1835 11.2319L36.7976 9.61817C37.1024 9.31299 37.1024 8.81831 36.7976 8.51313L31.4866 3.2025C31.1815 2.89732 30.6871 2.89732 30.3816 3.2025L28.7678 4.81626C27.437 4.04569 26.0185 3.45732 24.5366 3.06151V0.781245C24.5366 0.349729 24.1866 0 23.7554 0H16.2447C15.8132 0 15.4635 0.349729 15.4635 0.781245V3.06151C13.9812 3.45732 12.5625 4.04569 11.2319 4.81626L9.61817 3.2025C9.31299 2.89732 8.81861 2.89732 8.51344 3.2025L3.2025 8.51313C2.89732 8.81831 2.89732 9.31299 3.2025 9.61817L4.81656 11.2319C4.04539 12.5634 3.45701 13.9822 3.06151 15.4635H0.781245C0.350035 15.4635 0 15.8132 0 16.2447V23.7554C0 24.1869 0.350035 24.5366 0.781245 24.5366H3.06151C3.45732 26.0185 4.046 27.4373 4.81626 28.7678L3.2025 30.3819C2.89732 30.6868 2.89732 31.1815 3.2025 31.4866L8.51344 36.7976C8.81861 37.1024 9.31299 37.1024 9.61817 36.7976L11.2319 35.1835C12.5637 35.9547 13.9819 36.5431 15.4635 36.9386V39.2185C15.4635 39.65 15.8132 39.9998 16.2447 39.9998H16.8749C17.3064 39.9998 17.6561 39.65 17.6561 39.2185C17.6561 38.8386 17.3852 38.5221 17.026 38.4519V36.3273C17.026 35.9629 16.7742 35.6471 16.4193 35.5659C14.6862 35.1689 13.0401 34.4865 11.527 33.5371C11.2182 33.3436 10.8169 33.3888 10.5593 33.6464L9.0658 35.1399L4.8599 30.934L6.35342 29.4404C6.61098 29.1829 6.65646 28.7813 6.46267 28.4727C5.51388 26.9609 4.83151 25.3148 4.43387 23.5805C4.35239 23.2256 4.03654 22.9738 3.67246 22.9738H1.56249V17.0257H3.67246C4.03684 17.0257 4.3527 16.7739 4.43387 16.4187C4.8309 14.6859 5.51358 13.0398 6.46267 11.5264C6.65646 11.2179 6.61098 10.8166 6.35342 10.559L4.8599 9.06519L9.0658 4.85929L10.5593 6.35311C10.8172 6.61068 11.2185 6.65585 11.527 6.46236C13.0392 5.51358 14.685 4.83121 16.4193 4.43357C16.7745 4.35209 17.026 4.03623 17.026 3.67216V1.56249H22.9741V3.67246C22.9741 4.03654 23.2259 4.3527 23.5808 4.43387C25.3148 4.83121 26.9606 5.51388 28.473 6.46267C28.7819 6.65615 29.1832 6.61098 29.4407 6.35342L30.9343 4.85959L35.1405 9.0655L33.6467 10.5593C33.3891 10.8169 33.3436 11.2185 33.5374 11.527C34.4862 13.0389 35.1689 14.685 35.5662 16.4193C35.6477 16.7742 35.9635 17.026 36.3276 17.026H38.4373V22.9741H36.3276C35.9632 22.9741 35.6474 23.2259 35.5659 23.5811C35.1692 25.3139 34.4865 26.96 33.5371 28.473C33.3436 28.7816 33.3891 29.1832 33.6464 29.4407L35.1402 30.9343L30.9343 35.1402L29.4404 33.6467C29.1829 33.3891 28.7816 33.3439 28.473 33.5374C26.9609 34.4862 25.3148 35.1686 23.5805 35.5662C23.2256 35.6474 22.9738 35.9635 22.9738 36.3276V38.4519C22.6146 38.5224 22.3436 38.8389 22.3436 39.2188C22.3436 39.6503 22.6933 40.0001 23.1249 40.0001H23.7551C24.1866 40.0001 24.5363 39.6503 24.5363 39.2188V36.9386C26.0185 36.5428 27.4373 35.9544 28.7678 35.1838L30.3816 36.7976C30.6868 37.1027 31.1815 37.1027 31.4866 36.7976L36.7973 31.4866C37.1024 31.1818 37.1024 30.6871 36.7973 30.3819L35.1835 28.7681C35.9547 27.4367 36.5428 26.0179 36.9386 24.5366H39.2185C39.65 24.5366 39.9998 24.1869 39.9998 23.7554V16.2447C39.9998 15.8132 39.65 15.4635 39.2185 15.4635Z" fill="#37395B"/>
<path fill-rule="evenodd" clip-rule="evenodd" d="M32.7524 20C32.7524 12.9685 27.0316 7.24805 20.0004 7.24805C12.9688 7.24805 7.24805 12.9685 7.24805 20C7.24805 27.0316 12.9688 32.752 20.0004 32.752C27.0316 32.752 32.7524 27.0316 32.7524 20ZM18.4592 31.0831C18.4446 31.0699 18.4299 31.0571 18.4141 31.0452C16.7872 29.8151 15.6104 28.1061 14.8905 25.9357C16.2101 25.3913 17.6429 25.0723 19.1569 24.9915V31.1578C18.9222 31.1404 18.6896 31.1151 18.4592 31.0831ZM18.4141 8.95489C18.4299 8.94298 18.4443 8.93017 18.4589 8.91735C18.6896 8.88531 18.9222 8.85967 19.1569 8.84228V15.0086C17.6429 14.9278 16.2101 14.6091 14.8905 14.0644C15.6104 11.894 16.7872 10.185 18.4141 8.95489ZM21.4515 8.95489C23.0793 10.186 24.2563 11.8962 24.9762 14.0684C23.6591 14.611 22.2257 14.9287 20.7084 15.0089V8.83373C20.9351 8.84807 21.16 8.86852 21.3828 8.89599C21.4045 8.91674 21.427 8.93657 21.4515 8.95489ZM21.4511 31.0452C21.4267 31.0635 21.4042 31.0837 21.3825 31.1044C21.1597 31.1319 20.9348 31.1523 20.7084 31.1667V24.9915C22.2257 25.0717 23.6591 25.3891 24.9762 25.9317C24.2563 28.1039 23.0789 29.8144 21.4511 31.0452ZM20.7084 23.4458V20.7718H25.8106C25.7709 22.0914 25.629 23.3109 25.3851 24.4293C23.9347 23.8565 22.3648 23.5248 20.7084 23.4458ZM20.7084 19.2283V16.5543C22.3645 16.4756 23.9347 16.1436 25.3848 15.5708C25.629 16.6892 25.7709 17.909 25.8106 19.2283H20.7084ZM19.1569 16.554V19.2283H14.0546C14.0943 17.9075 14.2365 16.6862 14.4813 15.5665C15.9339 16.1414 17.5037 16.4747 19.1569 16.554ZM19.1569 20.7718V23.4461C17.5037 23.5251 15.9339 23.8587 14.4813 24.4333C14.2365 23.3139 14.0943 22.0926 14.0546 20.7718H19.1569ZM24.4202 30.2789C25.2466 29.2264 25.9021 28.0069 26.3825 26.622C26.9647 26.9571 27.5177 27.3422 28.0389 27.7753C27.0166 28.8321 25.7886 29.6881 24.4202 30.2789ZM31.1627 19.2283H27.3627C27.3187 17.6621 27.1393 16.2192 26.8253 14.9018C27.6068 14.4807 28.345 13.9808 29.035 13.4068C30.2463 15.0623 31.0144 17.0615 31.1627 19.2283ZM27.3627 20.7718H31.1627C31.0144 22.9386 30.2466 24.9378 29.035 26.5933C28.3453 26.0193 27.6071 25.5194 26.8253 25.0983C27.1393 23.7808 27.3187 22.338 27.3627 20.7718ZM28.0389 12.2248C27.5177 12.6579 26.9647 13.043 26.3828 13.3781C25.9024 11.9932 25.2469 10.7737 24.4205 9.72148C25.7889 10.312 27.0166 11.1683 28.0389 12.2248ZM15.3718 9.81364C14.5802 10.8436 13.9503 12.031 13.4843 13.3738C12.931 13.0552 12.403 12.6917 11.9029 12.2849C12.8849 11.255 14.0611 10.4115 15.3718 9.81364ZM8.8377 20.7718H12.5025C12.5465 22.3398 12.7265 23.7842 13.0412 25.1029C12.2923 25.5063 11.5821 25.9812 10.9153 26.5247C9.73277 24.8825 8.98388 22.9087 8.8377 20.7718ZM12.5025 19.2283H8.8377C8.98418 17.0914 9.73277 15.1176 10.9153 13.4754C11.5821 14.0189 12.2923 14.4938 13.0412 14.8972C12.7265 16.2159 12.5465 17.6603 12.5025 19.2283ZM11.9029 27.7152C12.4027 27.3084 12.9307 26.9449 13.484 26.6263C13.9503 27.9691 14.5802 29.1568 15.3718 30.1868C14.0611 29.5886 12.8849 28.7454 11.9029 27.7152Z" fill="#FF6043"/>
<path fill-rule="evenodd" clip-rule="evenodd" d="M20 38.4375C19.57 38.4375 19.2188 38.7885 19.2188 39.2188C19.2188 39.649 19.57 40 20 40C20.4303 40 20.7812 39.649 20.7812 39.2188C20.7812 38.7885 20.4303 38.4375 20 38.4375Z" fill="#37395B"/>
</svg>
