<svg xmlns="http://www.w3.org/2000/svg" width="41" height="37" fill="none" viewBox="0 0 41 37"><path fill="#4A50AE" fill-rule="evenodd" d="M40.1992 0.482422H0.800781C0.358475 0.482422 0 0.840897 0 1.2832V35.6936C0 36.1356 0.358475 36.4944 0.800781 36.4944H17.2969C17.7392 36.4944 18.0977 36.1356 18.0977 35.6936C18.0977 35.2513 17.7392 34.8929 17.2969 34.8929H1.60156V8.10736H39.3984V34.8926H23.7031C23.2608 34.8926 22.9023 35.251 22.9023 35.6933C22.9023 36.1356 23.2608 36.4941 23.7031 36.4941H40.1992C40.6415 36.4941 41 36.1356 41 35.6933V1.2832C41 0.840897 40.6415 0.482422 40.1992 0.482422ZM1.60156 6.5058V2.08398H39.3984V6.50611H1.60156V6.5058Z" clip-rule="evenodd"/><path fill="#4A50AE" d="M6.90379 16.1127L8.66019 18.6689H7.81528L6.53469 16.7139L5.24921 18.6689H4.4043L6.1607 16.143L4.58444 13.839H5.43523L6.53273 15.5985L6.90379 16.1127ZM6.90183 16.1088L7.11135 15.8058L6.90183 16.1088ZM6.73833 15.2799L7.6322 13.839H8.47711L7.11331 15.8077L6.73833 15.2799Z"/><path fill="#4A50AE" d="M9.55323 15.835C9.55323 15.7265 9.55323 15.6268 9.56204 15.531V15.4958C9.58945 15.0677 9.67071 14.7774 9.8068 14.6298C9.97715 14.446 10.3492 14.3541 10.9229 14.3541C11.4966 14.3541 11.8677 14.4326 12.0361 14.5897C12.1957 14.7343 12.2799 15.0384 12.2916 15.4958H13.0043C12.9606 14.8604 12.8278 14.4277 12.6059 14.1977C12.3285 13.9109 11.745 13.7679 10.8554 13.7686C10.0388 13.7686 9.49057 13.9334 9.21056 14.2632C8.93056 14.5929 8.79186 15.2397 8.79447 16.2036C8.79447 17.2463 8.93382 17.9305 9.21252 18.2564C9.49122 18.5822 10.0754 18.7451 10.965 18.7451C11.7306 18.7451 12.2661 18.6448 12.5716 18.444C12.8771 18.2433 13.0298 17.8921 13.0298 17.3903L13.0249 17.2143H12.3014V17.3658C12.3014 17.6956 12.2162 17.9103 12.0459 18.01C11.8755 18.1097 11.5051 18.1576 10.9347 18.1537C10.3348 18.1537 9.953 18.0494 9.78918 17.8409C9.62535 17.6324 9.54344 17.1472 9.54344 16.3854H13.0249V16.0032C13.0249 15.9455 13.0249 15.8878 13.0249 15.8321H9.55323V15.835Z"/><path fill="#4A50AE" d="M16.0334 14.3541C16.4847 14.3541 16.7902 14.4264 16.9488 14.5692C17.1074 14.7119 17.1867 14.9914 17.1867 15.4059V15.4959H17.8995C17.8995 14.8262 17.7741 14.3707 17.5333 14.1322C17.2924 13.8937 16.8205 13.7686 16.1293 13.7686C15.2717 13.7686 14.7352 14.0162 14.5198 14.5115L14.4992 14.4958L14.5198 13.839H13.8345V15.4959H14.5599C14.6471 14.7324 15.1376 14.3541 16.0334 14.3541Z"/><path fill="#4A50AE" d="M14.5401 15.8351H13.8313V18.6689H14.5401V15.8351Z"/><path fill="#4A50AE" d="M17.8954 15.8351H17.1865V18.6689H17.8954V15.8351Z"/><path fill="#4A50AE" d="M19.6793 14.8399V12.4294H23.1354V11.7734H18.9V15.4958H22.9356C22.953 15.2748 22.9877 15.0555 23.0394 14.8399H19.6793Z"/><path fill="#4A50AE" d="M19.6782 15.8351H18.8989V18.6689H19.6782V15.8351Z"/><path fill="#4A50AE" d="M27.0133 16.2544C27.0133 17.1127 26.9383 17.6438 26.7882 17.8478C26.638 18.0517 26.2464 18.1537 25.6133 18.1537C24.9854 18.1537 24.5967 18.0517 24.4473 17.8478C24.2978 17.6438 24.2228 17.1127 24.2221 16.2544C24.2221 16.1039 24.2221 15.9612 24.229 15.8351H23.4868C23.481 15.968 23.478 16.1068 23.478 16.2544C23.478 17.2919 23.6112 17.9654 23.8775 18.2749C24.1438 18.5845 24.7237 18.7396 25.6172 18.7402C26.5108 18.7402 27.091 18.5851 27.358 18.2749C27.6249 17.9647 27.7581 17.2912 27.7574 16.2544C27.7574 16.1068 27.7574 15.968 27.7496 15.8351H27.0045C27.0114 15.9651 27.0133 16.1009 27.0133 16.2544Z"/><path fill="#4A50AE" d="M24.451 14.6601C24.6005 14.4567 24.9891 14.3547 25.617 14.3541C26.2449 14.3534 26.6365 14.4554 26.7919 14.6601C26.8898 14.795 26.9583 15.0745 26.9877 15.4958H27.7278C27.6763 14.8807 27.5529 14.4597 27.3578 14.2329C27.0915 13.924 26.5112 13.7692 25.617 13.7686C24.7228 13.7679 24.1442 13.9227 23.8812 14.2329C23.6854 14.4597 23.562 14.8807 23.5111 15.4958H24.2513C24.2845 15.0745 24.3511 14.795 24.451 14.6601Z"/><path fill="#4A50AE" d="M29.1331 15.8351H28.4243V18.6689H29.1331V15.8351Z"/><path fill="#4A50AE" d="M30.3177 14.314C30.8574 14.314 31.127 14.5617 31.1263 15.0569C31.1263 15.1009 31.1215 15.1869 31.1117 15.314L31.0901 15.4958H31.7882L31.7999 15.1048C31.7999 14.1886 31.3545 13.7308 30.4635 13.7314C29.8193 13.7314 29.3572 13.9595 29.0772 14.4157L29.0625 14.401L29.133 13.8448H28.4252V15.5017H29.1467C29.2182 14.7089 29.6069 14.314 30.3177 14.314Z"/><path fill="#4A50AE" d="M36.1093 14.2329C35.843 13.924 35.2631 13.7692 34.3696 13.7686C33.476 13.7679 32.8974 13.9227 32.6337 14.2329C32.4379 14.4597 32.3142 14.8807 32.2627 15.4958H33.0038C33.0371 15.0745 33.1017 14.795 33.1996 14.6601C33.3504 14.4567 33.7394 14.3547 34.3666 14.3541C34.9939 14.3534 35.3855 14.4554 35.5415 14.6601C35.6909 14.864 35.766 15.3955 35.7666 16.2544C35.7673 17.1133 35.6922 17.6444 35.5415 17.8478C35.3913 18.0517 34.9997 18.1537 34.3666 18.1537C33.7335 18.1537 33.3445 18.0517 33.1996 17.8478C33.0501 17.6444 32.9751 17.1133 32.9744 16.2544C32.9744 16.1039 32.9744 15.9611 32.9813 15.835H32.2392C32.2343 15.968 32.2313 16.1068 32.2313 16.2544C32.2313 17.2919 32.3645 17.9654 32.6308 18.2749C32.8971 18.5845 33.4757 18.7396 34.3666 18.7402C35.2602 18.7402 35.8401 18.5851 36.1064 18.2749C36.3727 17.9647 36.5061 17.2912 36.5068 16.2544C36.5068 15.2176 36.3743 14.5437 36.1093 14.2329Z"/><path fill="#4A50AE" fill-rule="evenodd" d="M33.4654 3.49411H32.2333C31.791 3.49411 31.4325 3.8529 31.4325 4.29489C31.4325 4.7372 31.791 5.09567 32.2333 5.09567H33.4654C33.9077 5.09567 34.2662 4.7372 34.2662 4.29489C34.2662 3.8529 33.9077 3.49411 33.4654 3.49411Z" clip-rule="evenodd"/><path fill="#4A50AE" fill-rule="evenodd" d="M37.1504 3.49411H35.9182C35.4759 3.49411 35.1174 3.8529 35.1174 4.29489C35.1174 4.7372 35.4759 5.09567 35.9182 5.09567H37.1504C37.5927 5.09567 37.9511 4.7372 37.9511 4.29489C37.9511 3.8529 37.5927 3.49411 37.1504 3.49411Z" clip-rule="evenodd"/><path fill="#4A50AE" fill-rule="evenodd" d="M29.7809 3.49411H28.5485C28.1062 3.49411 27.7477 3.8529 27.7477 4.29489C27.7477 4.7372 28.1062 5.09567 28.5485 5.09567H29.7809C30.2232 5.09567 30.5817 4.7372 30.5817 4.29489C30.5817 3.8529 30.2232 3.49411 29.7809 3.49411Z" clip-rule="evenodd"/><path fill="#4A50AE" fill-rule="evenodd" d="M27.189 23.7886V31.5308C27.189 31.9732 27.5478 32.3316 27.9897 32.3316H35.7323C36.1746 32.3316 36.5331 31.9732 36.5331 31.5308V23.7886C36.5331 23.3463 36.1746 22.9878 35.7323 22.9878H27.9897C27.5478 22.9878 27.189 23.3463 27.189 23.7886ZM28.7905 24.5894H34.9315V30.7301H28.7905V24.5894Z" clip-rule="evenodd"/><path fill="#4A50AE" fill-rule="evenodd" d="M3.82129 31.5308C3.82129 31.9732 4.17976 32.3316 4.62207 32.3316H12.3643C12.8066 32.3316 13.1651 31.9732 13.1651 31.5308V23.7886C13.1651 23.3463 12.8066 22.9878 12.3643 22.9878H4.62207C4.17976 22.9878 3.82129 23.3463 3.82129 23.7886V31.5308ZM5.42285 24.5894H11.5635V30.7301H5.42285V24.5894Z" clip-rule="evenodd"/><path fill="#4A50AE" fill-rule="evenodd" d="M16.3059 32.3316H24.0481C24.4905 32.3316 24.8489 31.9732 24.8489 31.5308V23.7886C24.8489 23.3463 24.4905 22.9878 24.0481 22.9878H16.3059C15.8636 22.9878 15.5051 23.3463 15.5051 23.7886V31.5308C15.5051 31.9732 15.8636 32.3316 16.3059 32.3316ZM17.1067 24.5894H23.2474V30.7301H17.1067V24.5894Z" clip-rule="evenodd"/><path fill="#4A50AE" fill-rule="evenodd" d="M20.5 34.8925C20.0589 34.8925 19.6992 35.2523 19.6992 35.6933C19.6992 36.1344 20.0589 36.4941 20.5 36.4941C20.9411 36.4941 21.3008 36.1344 21.3008 35.6933C21.3008 35.2523 20.9411 34.8925 20.5 34.8925Z" clip-rule="evenodd"/></svg>