<svg width="106" height="23" viewBox="0 0 106 23" fill="none" xmlns="http://www.w3.org/2000/svg">
<path d="M8.19439 14.3257L13.9526 22.7648H11.1826L6.98433 16.3104L2.76998 22.7648H0L5.75822 14.4258L0.590587 6.81934H3.37983L6.97791 12.6282L8.19439 14.3257ZM8.18797 14.3128L8.87485 13.3124L8.18797 14.3128ZM7.65195 11.5762L10.5824 6.81934H13.3524L8.88127 13.3188L7.65195 11.5762Z" fill="white"/>
<path d="M16.8797 13.4091C16.8797 13.0509 16.8797 12.7218 16.9086 12.4055V12.2893C16.9985 10.8758 17.2649 9.91735 17.711 9.43005C18.2695 8.82335 19.4892 8.51999 21.3701 8.51999C23.251 8.51999 24.4675 8.77924 25.0196 9.29774C25.5427 9.77536 25.8188 10.779 25.8573 12.2893H28.194C28.0506 10.1917 27.6151 8.76311 26.8876 8.00365C25.9782 7.05701 24.0652 6.58477 21.1487 6.58692C18.4718 6.58692 16.6743 7.13124 15.7563 8.21987C14.8384 9.3085 14.3836 11.4438 14.3922 14.6258C14.3922 18.0681 14.8491 20.3271 15.7628 21.4028C16.6765 22.4786 18.5916 23.0164 21.5081 23.0164C24.0181 23.0164 25.7738 22.6851 26.7753 22.0224C27.7767 21.3598 28.2774 20.2002 28.2774 18.5436L28.2614 17.9627H25.8894V18.4629C25.8894 19.5515 25.6101 20.2604 25.0517 20.5896C24.4932 20.9188 23.2788 21.0769 21.4086 21.064C19.4422 21.064 18.1904 20.7198 17.6533 20.0313C17.1162 19.3428 16.8476 17.7411 16.8476 15.226H28.2614V13.9642C28.2614 13.7738 28.2614 13.5834 28.2614 13.3995H16.8797V13.4091Z" fill="white"/>
<path d="M38.125 8.51999C39.6047 8.51999 40.6061 8.7588 41.1261 9.22996C41.6461 9.70113 41.9061 10.6241 41.9061 11.9924V12.2893H44.2427C44.2427 10.0787 43.8319 8.57485 43.0423 7.78742C42.2527 6.99999 40.7056 6.58691 38.4396 6.58691C35.6279 6.58691 33.869 7.40446 33.1628 9.03956L33.0954 8.98793L33.1628 6.81927H30.916V12.2893H33.2944C33.5801 9.7689 35.1881 8.51999 38.125 8.51999Z" fill="white"/>
<path d="M33.2301 13.4092H30.9062V22.7647H33.2301V13.4092Z" fill="white"/>
<path d="M44.2296 13.4092H41.9058V22.7647H44.2296V13.4092Z" fill="white"/>
<path d="M50.0779 10.1236V2.16543H61.4082V0H47.5229V12.289H60.7534C60.8104 11.5594 60.9241 10.8354 61.0936 10.1236H50.0779Z" fill="white"/>
<path d="M50.0745 13.4092H47.5195V22.7647H50.0745V13.4092Z" fill="white"/>
<path d="M74.122 14.7936C74.122 17.6271 73.8759 19.3805 73.3838 20.0539C72.8916 20.7273 71.6077 21.064 69.5321 21.064C67.4736 21.064 66.1994 20.7273 65.7094 20.0539C65.2193 19.3805 64.9733 17.6271 64.9711 14.7936C64.9711 14.2967 64.9711 13.8255 64.9936 13.4092H62.5606C62.5414 13.8481 62.5317 14.3063 62.5317 14.7936C62.5317 18.2187 62.9683 20.4422 63.8413 21.4642C64.7143 22.4861 66.6156 22.9982 69.545 23.0003C72.4744 23.0003 74.3767 22.4883 75.2518 21.4642C76.127 20.4401 76.5635 18.2166 76.5614 14.7936C76.5614 14.3063 76.5614 13.8481 76.5357 13.4092H74.0931C74.1156 13.8384 74.122 14.287 74.122 14.7936Z" fill="white"/>
<path d="M65.7219 9.53009C66.212 8.85884 67.4862 8.52215 69.5447 8.51999C71.6032 8.51784 72.8871 8.85454 73.3964 9.53009C73.7173 9.97544 73.942 10.8984 74.0383 12.2893H76.4649C76.2958 10.2584 75.8914 8.86853 75.2516 8.11982C74.3785 7.10004 72.4763 6.58907 69.5447 6.58692C66.6132 6.58477 64.7162 7.09574 63.8539 8.11982C63.212 8.86853 62.8075 10.2584 62.6406 12.2893H65.0672C65.1763 10.8984 65.3946 9.97544 65.7219 9.53009Z" fill="white"/>
<path d="M81.0709 13.4092H78.7471V22.7647H81.0709V13.4092Z" fill="white"/>
<path d="M84.9544 8.38726C86.724 8.38726 87.6077 9.20481 87.6056 10.8399C87.6056 10.9851 87.5895 11.2691 87.5574 11.6886L87.4868 12.2889H89.7753L89.8139 10.998C89.8139 7.97311 88.3534 6.46172 85.4326 6.46387C83.3206 6.46387 81.8056 7.21687 80.8877 8.72288L80.8395 8.67448L81.0706 6.83822H78.75V12.3083H81.1156C81.3499 9.69103 82.6241 8.38726 84.9544 8.38726Z" fill="white"/>
<path d="M103.943 8.11982C103.07 7.10004 101.169 6.58907 98.2395 6.58692C95.3101 6.58477 93.4132 7.09574 92.5487 8.11982C91.9067 8.86853 91.5012 10.2584 91.3322 12.2893H93.762C93.8711 10.8984 94.0829 9.97544 94.4039 9.53009C94.8982 8.85884 96.1735 8.52215 98.2299 8.51999C100.286 8.51784 101.57 8.85454 102.082 9.53009C102.572 10.2035 102.818 11.958 102.82 14.7936C102.822 17.6292 102.576 19.3826 102.082 20.0539C101.589 20.7273 100.305 21.064 98.2299 21.064C96.1543 21.064 94.8789 20.7273 94.4039 20.0539C93.9139 19.3826 93.6678 17.6292 93.6657 14.7936C93.6657 14.2966 93.6657 13.8254 93.6881 13.4091H91.2552C91.2391 13.848 91.2295 14.3063 91.2295 14.7936C91.2295 18.2187 91.666 20.4422 92.5391 21.4641C93.4121 22.4861 95.309 22.9981 98.2299 23.0003C101.159 23.0003 103.06 22.4882 103.934 21.4641C104.807 20.4401 105.244 18.2165 105.246 14.7936C105.246 11.3707 104.812 9.14606 103.943 8.11982Z" fill="white"/>
</svg>
