<svg width="32" height="28" viewBox="0 0 32 28" fill="none" xmlns="http://www.w3.org/2000/svg">
<path fill-rule="evenodd" clip-rule="evenodd" d="M31.375 0.536865H0.625C0.279785 0.536865 0 0.807907 0 1.14233V27.16C0 27.4942 0.279785 27.7655 0.625 27.7655H13.5C13.8452 27.7655 14.125 27.4942 14.125 27.16C14.125 26.8256 13.8452 26.5545 13.5 26.5545H1.25V6.30206H30.75V26.5543H18.5C18.1548 26.5543 17.875 26.8253 17.875 27.1598C17.875 27.4942 18.1548 27.7652 18.5 27.7652H31.375C31.7202 27.7652 32 27.4942 32 27.1598V1.14233C32 0.807907 31.7202 0.536865 31.375 0.536865ZM1.25 5.09113V1.7478H30.75V5.09136H1.25V5.09113Z" fill="#37395B"/>
<g clip-path="url(#clip0)">
<path d="M5.38832 12.3549L6.75917 14.2876H6.09973L5.10025 12.8094L4.09694 14.2876H3.4375L4.80835 12.3778L3.5781 10.6357H4.24213L5.09872 11.9661L5.38832 12.3549ZM5.3868 12.3519L5.55032 12.1228L5.3868 12.3519ZM5.25919 11.7252L5.95684 10.6357H6.61628L5.55185 12.1243L5.25919 11.7252Z" fill="#FF6043"/>
<path d="M7.456 12.145C7.456 12.0629 7.456 11.9876 7.46288 11.9151V11.8885C7.48427 11.5648 7.54769 11.3453 7.65391 11.2337C7.78687 11.0947 8.07724 11.0252 8.52502 11.0252C8.9728 11.0252 9.2624 11.0846 9.39383 11.2034C9.51838 11.3128 9.5841 11.5426 9.59327 11.8885H10.1496C10.1154 11.4081 10.0118 11.0809 9.83855 10.907C9.62205 10.6902 9.16663 10.582 8.47229 10.5825C7.83501 10.5825 7.40709 10.7072 7.18855 10.9565C6.97001 11.2058 6.86176 11.6949 6.8638 12.4236C6.8638 13.212 6.97256 13.7294 7.19008 13.9757C7.4076 14.2221 7.86353 14.3453 8.55787 14.3453C9.15542 14.3453 9.5734 14.2694 9.81181 14.1176C10.0502 13.9659 10.1694 13.7003 10.1694 13.3209L10.1656 13.1879H9.60091V13.3024C9.60091 13.5517 9.53443 13.7141 9.40147 13.7895C9.26851 13.8649 8.97942 13.9011 8.53419 13.8981C8.06603 13.8981 7.76802 13.8193 7.64015 13.6616C7.51229 13.5039 7.44836 13.1371 7.44836 12.5611H10.1656V12.2721C10.1656 12.2285 10.1656 12.1849 10.1656 12.1428H7.456V12.145Z" fill="#FF6043"/>
<path d="M12.5141 11.0252C12.8664 11.0252 13.1048 11.0799 13.2285 11.1878C13.3523 11.2958 13.4142 11.5071 13.4142 11.8205V11.8885H13.9705C13.9705 11.3822 13.8727 11.0378 13.6847 10.8575C13.4968 10.6771 13.1284 10.5825 12.589 10.5825C11.9196 10.5825 11.5009 10.7698 11.3327 11.1442L11.3167 11.1324L11.3327 10.6357H10.7979V11.8885H11.3641C11.4321 11.3113 11.8149 11.0252 12.5141 11.0252Z" fill="#FF6043"/>
<path d="M11.3486 12.145H10.7954V14.2877H11.3486V12.145Z" fill="#FF6043"/>
<path d="M13.9673 12.145H13.4141V14.2877H13.9673V12.145Z" fill="#FF6043"/>
<path d="M15.3592 11.3925V9.56991H18.0566V9.07397H14.751V11.8885H17.9007C17.9143 11.7214 17.9414 11.5556 17.9817 11.3925H15.3592Z" fill="#FF6043"/>
<path d="M15.3587 12.145H14.7505V14.2877H15.3587V12.145Z" fill="#FF6043"/>
<path d="M21.0835 12.4621C21.0835 13.111 21.0249 13.5126 20.9077 13.6668C20.7906 13.8211 20.4849 13.8982 19.9908 13.8982C19.5007 13.8982 19.1974 13.8211 19.0807 13.6668C18.9641 13.5126 18.9055 13.111 18.905 12.4621C18.905 12.3483 18.905 12.2404 18.9103 12.145H18.3311C18.3265 12.2455 18.3242 12.3505 18.3242 12.4621C18.3242 13.2465 18.4281 13.7558 18.636 13.9898C18.8438 14.2239 19.2964 14.3411 19.9938 14.3416C20.6912 14.3416 21.1441 14.2244 21.3525 13.9898C21.5608 13.7553 21.6647 13.246 21.6642 12.4621C21.6642 12.3505 21.6642 12.2455 21.6581 12.145H21.0766C21.082 12.2433 21.0835 12.3461 21.0835 12.4621Z" fill="#FF6043"/>
<path d="M19.0837 11.2566C19.2003 11.1028 19.5037 11.0257 19.9937 11.0252C20.4838 11.0248 20.7894 11.1019 20.9107 11.2566C20.9871 11.3586 21.0406 11.57 21.0635 11.8885H21.6412C21.601 11.4234 21.5047 11.1051 21.3524 10.9336C21.1445 10.7 20.6916 10.583 19.9937 10.5825C19.2958 10.582 18.8442 10.6991 18.6389 10.9336C18.4861 11.1051 18.3898 11.4234 18.3501 11.8885H18.9278C18.9538 11.57 19.0057 11.3586 19.0837 11.2566Z" fill="#FF6043"/>
<path d="M22.7378 12.145H22.1846V14.2877H22.7378V12.145Z" fill="#FF6043"/>
<path d="M23.6626 10.9949C24.0839 10.9949 24.2943 11.1822 24.2938 11.5567C24.2938 11.5899 24.29 11.655 24.2823 11.751L24.2655 11.8885H24.8103L24.8195 11.5929C24.8195 10.9001 24.4718 10.554 23.7765 10.5544C23.2737 10.5544 22.913 10.7269 22.6945 11.0718L22.683 11.0607L22.738 10.6402H22.1855V11.893H22.7487C22.8045 11.2935 23.1079 10.9949 23.6626 10.9949Z" fill="#FF6043"/>
<path d="M28.183 10.9336C27.9751 10.7 27.5225 10.583 26.8251 10.5825C26.1277 10.582 25.6761 10.6991 25.4703 10.9336C25.3175 11.1051 25.2209 11.4234 25.1807 11.8885H25.7591C25.7851 11.57 25.8356 11.3586 25.912 11.2566C26.0296 11.1028 26.3333 11.0257 26.8228 11.0252C27.3124 11.0248 27.618 11.1019 27.7398 11.2566C27.8564 11.4108 27.915 11.8126 27.9155 12.4621C27.916 13.1115 27.8575 13.5131 27.7398 13.6668C27.6226 13.821 27.317 13.8981 26.8228 13.8981C26.3287 13.8981 26.0251 13.821 25.912 13.6668C25.7953 13.5131 25.7367 13.1115 25.7362 12.4621C25.7362 12.3482 25.7362 12.2403 25.7416 12.145H25.1624C25.1585 12.2455 25.1562 12.3505 25.1562 12.4621C25.1562 13.2465 25.2602 13.7557 25.468 13.9898C25.6759 14.2238 26.1275 14.3411 26.8228 14.3416C27.5202 14.3416 27.9728 14.2243 28.1807 13.9898C28.3885 13.7552 28.4927 13.246 28.4932 12.4621C28.4932 11.6781 28.3898 11.1686 28.183 10.9336Z" fill="#FF6043"/>
</g>
<path fill-rule="evenodd" clip-rule="evenodd" d="M26.1194 2.81396H25.1577C24.8125 2.81396 24.5327 3.08524 24.5327 3.41943C24.5327 3.75386 24.8125 4.0249 25.1577 4.0249H26.1194C26.4646 4.0249 26.7444 3.75386 26.7444 3.41943C26.7444 3.08524 26.4646 2.81396 26.1194 2.81396Z" fill="#37395B"/>
<path fill-rule="evenodd" clip-rule="evenodd" d="M28.9954 2.81396H28.0337C27.6885 2.81396 27.4087 3.08524 27.4087 3.41943C27.4087 3.75386 27.6885 4.0249 28.0337 4.0249H28.9954C29.3406 4.0249 29.6204 3.75386 29.6204 3.41943C29.6204 3.08524 29.3406 2.81396 28.9954 2.81396Z" fill="#37395B"/>
<path fill-rule="evenodd" clip-rule="evenodd" d="M23.2437 2.81396H22.2817C21.9365 2.81396 21.6567 3.08524 21.6567 3.41943C21.6567 3.75386 21.9365 4.0249 22.2817 4.0249H23.2437C23.5889 4.0249 23.8687 3.75386 23.8687 3.41943C23.8687 3.08524 23.5889 2.81396 23.2437 2.81396Z" fill="#37395B"/>
<path fill-rule="evenodd" clip-rule="evenodd" d="M21.2207 18.1586V24.0125C21.2207 24.3469 21.5007 24.6179 21.8457 24.6179H27.8887C28.2339 24.6179 28.5137 24.3469 28.5137 24.0125V18.1586C28.5137 17.8241 28.2339 17.5531 27.8887 17.5531H21.8457C21.5007 17.5531 21.2207 17.8241 21.2207 18.1586ZM22.4707 18.764H27.2637V23.407H22.4707V18.764Z" fill="#37395B"/>
<path fill-rule="evenodd" clip-rule="evenodd" d="M2.98242 24.0125C2.98242 24.3469 3.26221 24.6179 3.60742 24.6179H9.65015C9.99536 24.6179 10.2751 24.3469 10.2751 24.0125V18.1586C10.2751 17.8241 9.99536 17.5531 9.65015 17.5531H3.60742C3.26221 17.5531 2.98242 17.8241 2.98242 18.1586V24.0125ZM4.23242 18.764H9.02515V23.407H4.23242V18.764Z" fill="#37395B"/>
<path fill-rule="evenodd" clip-rule="evenodd" d="M12.7266 24.6179H18.7693C19.1145 24.6179 19.3943 24.3469 19.3943 24.0125V18.1586C19.3943 17.8241 19.1145 17.5531 18.7693 17.5531H12.7266C12.3813 17.5531 12.1016 17.8241 12.1016 18.1586V24.0125C12.1016 24.3469 12.3813 24.6179 12.7266 24.6179ZM13.3516 18.764H18.1443V23.407H13.3516V18.764Z" fill="#37395B"/>
<path fill-rule="evenodd" clip-rule="evenodd" d="M16 26.5543C15.6558 26.5543 15.375 26.8263 15.375 27.1598C15.375 27.4933 15.6558 27.7653 16 27.7653C16.3442 27.7653 16.625 27.4933 16.625 27.1598C16.625 26.8263 16.3442 26.5543 16 26.5543Z" fill="#37395B"/>
<defs>
<clipPath id="clip0">
<rect width="26.1875" height="5.26758" fill="white" transform="translate(3.4375 9.07397)"/>
</clipPath>
</defs>
</svg>
