<svg xmlns="http://www.w3.org/2000/svg" width="46" height="40" fill="none" viewBox="0 0 46 40"><path fill="url(#paint0_linear)" d="M32.9231 38.4051C48.2234 35.4575 51.7282 6.07818 34.5987 3.33896C31.2014 2.79518 29.7411 7.94838 33.1639 8.49216C44.944 10.3776 41.7262 31.275 31.4884 33.2468C28.0809 33.9075 29.5259 39.0607 32.9231 38.4051Z"/><path fill="url(#paint1_linear)" d="M11.874 1.55013C8.45114 8.58878 4.76185 15.5258 0.770251 22.2595C-0.997532 25.2376 3.66532 27.926 5.42285 24.9581C9.41958 18.2193 13.1037 11.2873 16.5266 4.2487C18.0279 1.15881 13.3804 -1.555 11.874 1.55013Z"/><path fill="url(#paint2_linear)" d="M10.2901 37.3225C10.4848 37.6376 10.0697 33.9277 10.2901 31.7831C11.9861 15.2715 13.0673 9.39663 14.4098 2.64258"/><path fill="url(#paint3_linear)" d="M11.0077 39.8992C11.018 39.8941 11.0333 39.8941 11.0487 39.889C12.2733 39.579 12.9343 38.4965 13.0266 37.3124C13.2725 34.1412 13.0624 30.9903 13.4109 27.7887C13.8003 24.1601 14.2153 20.5366 14.7072 16.9181C15.3272 12.3697 16.1215 7.85175 17.013 3.34905C17.6843 -0.0203497 12.4885 -1.45349 11.8173 1.92608C10.8796 6.64222 10.07 11.3685 9.42438 16.1304C8.9376 19.698 8.51744 23.2758 8.12289 26.8586C7.89743 28.9219 7.59512 30.9954 7.53875 33.074C7.49776 34.4817 7.74883 35.9098 7.64123 37.3124C8.30223 36.4536 8.9581 35.5947 9.6191 34.7358C9.60372 34.7409 9.59347 34.7409 9.5781 34.746C6.21163 35.6049 7.63611 40.7581 11.0077 39.8992Z"/><path fill="url(#paint4_linear)" d="M33.8816 3.24255C16.419 1.50448 5.89936 22.4781 7.59541 37.3228C7.97971 40.7075 13.3753 40.7481 12.9859 37.3228C11.6126 25.2834 19.2782 7.14048 33.8816 8.58887C37.3403 8.93445 37.3044 3.58305 33.8816 3.24255Z"/><path fill="url(#paint5_linear)" d="M24.3206 14.6771C20.99 19.2306 19.7244 24.7751 20.7953 30.2993C21.856 35.7727 26.6469 39.1065 32.2116 38.5017C35.6293 38.1307 35.6652 32.7793 32.2116 33.1554C22.8398 34.1718 25.6477 21.9292 28.9783 17.3756C31.0177 14.5805 26.3395 11.9175 24.3206 14.6771Z"/><defs><linearGradient id="paint0_linear" x1="39.744" x2="34.951" y1="6.293" y2="36.8" gradientUnits="userSpaceOnUse"><stop stop-color="#FA3B3B"/><stop offset="1" stop-color="#FF6043"/></linearGradient><linearGradient id="paint1_linear" x1="2.558" x2="14.74" y1="13.213" y2="13.213" gradientUnits="userSpaceOnUse"><stop stop-color="#37395B"/><stop offset=".352" stop-color="#522A52"/><stop offset="1" stop-color="#8E0A3D"/></linearGradient><linearGradient id="paint2_linear" x1="10.224" x2="14.412" y1="19.991" y2="19.991" gradientUnits="userSpaceOnUse"><stop stop-color="#701B48"/><stop offset=".456" stop-color="#7B1544"/><stop offset="1" stop-color="#8E0A3D"/></linearGradient><linearGradient id="paint3_linear" x1="12.299" x2="12.299" y1="37.877" y2="2.106" gradientUnits="userSpaceOnUse"><stop stop-color="#8E0A3D"/><stop offset=".03" stop-color="#8E0A3D"/><stop offset="1" stop-color="#8E0A3D"/></linearGradient><linearGradient id="paint4_linear" x1="21.94" x2="21.94" y1="37.858" y2="5.272" gradientUnits="userSpaceOnUse"><stop stop-color="#8E0A3D"/><stop offset=".256" stop-color="#910B3D"/><stop offset=".44" stop-color="#9A103D"/><stop offset=".601" stop-color="#AA173C"/><stop offset=".749" stop-color="#C0213C"/><stop offset=".887" stop-color="#DC2E3C"/><stop offset="1" stop-color="#FA3B3B"/></linearGradient><linearGradient id="paint5_linear" x1="21.998" x2="32.443" y1="18.07" y2="36.31" gradientUnits="userSpaceOnUse"><stop stop-color="#FF9E00"/><stop offset=".198" stop-color="#FF8C13"/><stop offset=".507" stop-color="#FF732E"/><stop offset=".509" stop-color="#FF722F"/><stop offset=".577" stop-color="#FF683A"/><stop offset=".671" stop-color="#FF6241"/><stop offset=".933" stop-color="#FF6043"/></linearGradient></defs></svg>